<mxfile host="app.diagrams.net" modified="2024-04-03T15:23:04.976Z" agent="Mozilla/5.0 (Windows NT 10.0; Win64; x64) AppleWebKit/537.36 (KHTML, like Gecko) Chrome/123.0.0.0 Safari/537.36" etag="qtt9fP5ffm1_JeEvIe3v" version="24.2.1" type="github">
  <diagram name="Page-1" id="90a13364-a465-7bf4-72fc-28e22215d7a0">
    <mxGraphModel dx="5250" dy="2785" grid="1" gridSize="10" guides="1" tooltips="1" connect="1" arrows="1" fold="1" page="1" pageScale="1.5" pageWidth="1169" pageHeight="826" background="none" math="0" shadow="0">
      <root>
        <mxCell id="0" style=";html=1;" />
        <mxCell id="1" style=";html=1;" parent="0" />
        <mxCell id="3a17f1ce550125da-13" style="edgeStyle=elbowEdgeStyle;rounded=0;html=1;startArrow=none;startFill=0;jettySize=auto;orthogonalLoop=1;fontSize=18;elbow=vertical;" parent="1" edge="1">
          <mxGeometry relative="1" as="geometry">
            <mxPoint x="947" y="474" as="sourcePoint" />
          </mxGeometry>
        </mxCell>
        <mxCell id="3a17f1ce550125da-14" style="edgeStyle=elbowEdgeStyle;rounded=0;html=1;startArrow=none;startFill=0;jettySize=auto;orthogonalLoop=1;fontSize=18;elbow=vertical;" parent="1" edge="1">
          <mxGeometry relative="1" as="geometry">
            <mxPoint x="947" y="554" as="sourcePoint" />
          </mxGeometry>
        </mxCell>
        <mxCell id="3a17f1ce550125da-15" style="edgeStyle=elbowEdgeStyle;rounded=0;html=1;startArrow=none;startFill=0;jettySize=auto;orthogonalLoop=1;fontSize=18;elbow=vertical;" parent="1" edge="1">
          <mxGeometry relative="1" as="geometry">
            <mxPoint x="947" y="634" as="sourcePoint" />
          </mxGeometry>
        </mxCell>
        <mxCell id="3a17f1ce550125da-16" style="edgeStyle=elbowEdgeStyle;rounded=0;html=1;startArrow=none;startFill=0;jettySize=auto;orthogonalLoop=1;fontSize=18;elbow=vertical;" parent="1" edge="1">
          <mxGeometry relative="1" as="geometry">
            <mxPoint x="947" y="692" as="sourcePoint" />
          </mxGeometry>
        </mxCell>
        <mxCell id="3a17f1ce550125da-17" style="edgeStyle=elbowEdgeStyle;rounded=0;html=1;startArrow=none;startFill=0;jettySize=auto;orthogonalLoop=1;fontSize=18;" parent="1" edge="1">
          <mxGeometry relative="1" as="geometry">
            <Array as="points">
              <mxPoint x="907" y="754" />
            </Array>
            <mxPoint x="907" y="700" as="targetPoint" />
          </mxGeometry>
        </mxCell>
        <mxCell id="3a17f1ce550125da-20" style="edgeStyle=elbowEdgeStyle;rounded=0;html=1;startArrow=none;startFill=0;jettySize=auto;orthogonalLoop=1;fontSize=18;elbow=vertical;" parent="1" edge="1">
          <mxGeometry relative="1" as="geometry">
            <Array as="points">
              <mxPoint x="757" y="514" />
            </Array>
            <mxPoint x="777" y="514" as="targetPoint" />
          </mxGeometry>
        </mxCell>
        <mxCell id="3a17f1ce550125da-21" style="edgeStyle=elbowEdgeStyle;rounded=0;html=1;startArrow=none;startFill=0;jettySize=auto;orthogonalLoop=1;fontSize=18;elbow=vertical;" parent="1" edge="1">
          <mxGeometry relative="1" as="geometry">
            <mxPoint x="777" y="664" as="targetPoint" />
          </mxGeometry>
        </mxCell>
        <mxCell id="3a17f1ce550125da-18" style="edgeStyle=elbowEdgeStyle;rounded=0;html=1;startArrow=none;startFill=0;jettySize=auto;orthogonalLoop=1;fontSize=18;elbow=vertical;" parent="1" edge="1">
          <mxGeometry relative="1" as="geometry">
            <mxPoint x="799.5" y="834" as="targetPoint" />
          </mxGeometry>
        </mxCell>
        <mxCell id="A_hPwJBu-BMwf7_vtUkT-8" value="" style="swimlane;startSize=0;" parent="1" vertex="1">
          <mxGeometry x="180" y="250" width="460" height="500" as="geometry" />
        </mxCell>
        <mxCell id="A_hPwJBu-BMwf7_vtUkT-63" style="edgeStyle=orthogonalEdgeStyle;rounded=0;orthogonalLoop=1;jettySize=auto;html=1;exitX=0.25;exitY=1;exitDx=0;exitDy=0;entryX=0.25;entryY=0;entryDx=0;entryDy=0;" parent="A_hPwJBu-BMwf7_vtUkT-8" source="A_hPwJBu-BMwf7_vtUkT-3" target="A_hPwJBu-BMwf7_vtUkT-15" edge="1">
          <mxGeometry relative="1" as="geometry" />
        </mxCell>
        <mxCell id="A_hPwJBu-BMwf7_vtUkT-3" value="User Interface" style="whiteSpace=wrap;html=1;shadow=1;fontSize=18;fillColor=#e51400;strokeColor=#B20000;fontColor=#ffffff;" parent="A_hPwJBu-BMwf7_vtUkT-8" vertex="1">
          <mxGeometry x="110" y="60" width="250" height="60" as="geometry" />
        </mxCell>
        <mxCell id="A_hPwJBu-BMwf7_vtUkT-62" style="edgeStyle=orthogonalEdgeStyle;rounded=0;orthogonalLoop=1;jettySize=auto;html=1;exitX=0.75;exitY=0;exitDx=0;exitDy=0;entryX=0.75;entryY=1;entryDx=0;entryDy=0;" parent="A_hPwJBu-BMwf7_vtUkT-8" source="A_hPwJBu-BMwf7_vtUkT-13" target="A_hPwJBu-BMwf7_vtUkT-15" edge="1">
          <mxGeometry relative="1" as="geometry" />
        </mxCell>
        <mxCell id="A_hPwJBu-BMwf7_vtUkT-13" value="Data Interface" style="whiteSpace=wrap;html=1;shadow=1;fontSize=18;fillColor=#a0522d;strokeColor=#6D1F00;fontColor=#ffffff;" parent="A_hPwJBu-BMwf7_vtUkT-8" vertex="1">
          <mxGeometry x="110" y="245" width="250" height="60" as="geometry" />
        </mxCell>
        <mxCell id="A_hPwJBu-BMwf7_vtUkT-24" style="edgeStyle=orthogonalEdgeStyle;rounded=0;orthogonalLoop=1;jettySize=auto;html=1;exitX=0.85;exitY=0.05;exitDx=0;exitDy=0;entryX=0.75;entryY=1;entryDx=0;entryDy=0;exitPerimeter=0;" parent="A_hPwJBu-BMwf7_vtUkT-8" source="A_hPwJBu-BMwf7_vtUkT-14" target="A_hPwJBu-BMwf7_vtUkT-13" edge="1">
          <mxGeometry relative="1" as="geometry" />
        </mxCell>
        <mxCell id="A_hPwJBu-BMwf7_vtUkT-14" value="&lt;font style=&quot;font-size: 18px;&quot;&gt;DATABASE&lt;/font&gt;" style="shape=datastore;whiteSpace=wrap;html=1;fillColor=#ffe6cc;strokeColor=#d79b00;" parent="A_hPwJBu-BMwf7_vtUkT-8" vertex="1">
          <mxGeometry x="145" y="356" width="180" height="100" as="geometry" />
        </mxCell>
        <mxCell id="A_hPwJBu-BMwf7_vtUkT-61" style="edgeStyle=orthogonalEdgeStyle;rounded=0;orthogonalLoop=1;jettySize=auto;html=1;exitX=0.25;exitY=1;exitDx=0;exitDy=0;entryX=0.25;entryY=0;entryDx=0;entryDy=0;" parent="A_hPwJBu-BMwf7_vtUkT-8" source="A_hPwJBu-BMwf7_vtUkT-15" target="A_hPwJBu-BMwf7_vtUkT-13" edge="1">
          <mxGeometry relative="1" as="geometry" />
        </mxCell>
        <mxCell id="A_hPwJBu-BMwf7_vtUkT-64" style="edgeStyle=orthogonalEdgeStyle;rounded=0;orthogonalLoop=1;jettySize=auto;html=1;exitX=0.75;exitY=0;exitDx=0;exitDy=0;entryX=0.75;entryY=1;entryDx=0;entryDy=0;" parent="A_hPwJBu-BMwf7_vtUkT-8" source="A_hPwJBu-BMwf7_vtUkT-15" target="A_hPwJBu-BMwf7_vtUkT-3" edge="1">
          <mxGeometry relative="1" as="geometry" />
        </mxCell>
        <mxCell id="A_hPwJBu-BMwf7_vtUkT-15" value="Bussiness Layer" style="whiteSpace=wrap;html=1;shadow=1;fontSize=18;fillColor=#fa6800;strokeColor=#C73500;fontColor=#000000;" parent="A_hPwJBu-BMwf7_vtUkT-8" vertex="1">
          <mxGeometry x="110" y="150" width="250" height="60" as="geometry" />
        </mxCell>
        <mxCell id="A_hPwJBu-BMwf7_vtUkT-25" style="edgeStyle=orthogonalEdgeStyle;rounded=0;orthogonalLoop=1;jettySize=auto;html=1;exitX=0.25;exitY=1;exitDx=0;exitDy=0;entryX=0.15;entryY=0.05;entryDx=0;entryDy=0;entryPerimeter=0;" parent="A_hPwJBu-BMwf7_vtUkT-8" source="A_hPwJBu-BMwf7_vtUkT-13" target="A_hPwJBu-BMwf7_vtUkT-14" edge="1">
          <mxGeometry relative="1" as="geometry" />
        </mxCell>
        <mxCell id="A_hPwJBu-BMwf7_vtUkT-11" value="&lt;b&gt;&lt;font style=&quot;font-size: 31px;&quot;&gt;Monolith&amp;nbsp;&lt;/font&gt;&lt;/b&gt;" style="text;html=1;align=center;verticalAlign=middle;resizable=0;points=[];autosize=1;strokeColor=none;fillColor=none;strokeWidth=1;fontSize=22;" parent="1" vertex="1">
          <mxGeometry x="330" y="35" width="160" height="50" as="geometry" />
        </mxCell>
        <mxCell id="A_hPwJBu-BMwf7_vtUkT-65" value="&lt;b&gt;&lt;font style=&quot;font-size: 29px;&quot;&gt;Micro Service&lt;/font&gt;&lt;/b&gt;" style="text;html=1;align=center;verticalAlign=middle;resizable=0;points=[];autosize=1;strokeColor=none;fillColor=none;strokeWidth=1;fontSize=22;" parent="1" vertex="1">
          <mxGeometry x="1520" y="35" width="210" height="50" as="geometry" />
        </mxCell>
        <mxCell id="A_hPwJBu-BMwf7_vtUkT-66" value="" style="swimlane;startSize=0;" parent="1" vertex="1">
          <mxGeometry x="100" y="1130" width="810" height="840" as="geometry" />
        </mxCell>
        <mxCell id="A_hPwJBu-BMwf7_vtUkT-67" value="User Interface" style="whiteSpace=wrap;html=1;shadow=1;fontSize=18;fillColor=#e51400;strokeColor=#B20000;fontColor=#ffffff;" parent="A_hPwJBu-BMwf7_vtUkT-66" vertex="1">
          <mxGeometry x="260" y="40" width="250" height="60" as="geometry" />
        </mxCell>
        <mxCell id="A_hPwJBu-BMwf7_vtUkT-117" value="" style="swimlane;startSize=0;" parent="A_hPwJBu-BMwf7_vtUkT-66" vertex="1">
          <mxGeometry x="220" y="620" width="320" height="170" as="geometry" />
        </mxCell>
        <mxCell id="A_hPwJBu-BMwf7_vtUkT-71" value="&lt;font style=&quot;font-size: 18px;&quot;&gt;Database B&lt;/font&gt;" style="shape=datastore;whiteSpace=wrap;html=1;fillColor=#ffe6cc;strokeColor=#d79b00;" parent="A_hPwJBu-BMwf7_vtUkT-117" vertex="1">
          <mxGeometry x="75" y="35" width="180" height="100" as="geometry" />
        </mxCell>
        <mxCell id="A_hPwJBu-BMwf7_vtUkT-124" value="" style="swimlane;startSize=0;" parent="A_hPwJBu-BMwf7_vtUkT-66" vertex="1">
          <mxGeometry x="50" y="190" width="250" height="130" as="geometry" />
        </mxCell>
        <mxCell id="A_hPwJBu-BMwf7_vtUkT-69" value="&amp;nbsp;Service A" style="whiteSpace=wrap;html=1;shadow=1;fontSize=18;fillColor=#fa6800;strokeColor=#C73500;fontColor=#000000;" parent="A_hPwJBu-BMwf7_vtUkT-124" vertex="1">
          <mxGeometry x="50" y="40" width="160" height="50" as="geometry" />
        </mxCell>
        <mxCell id="A_hPwJBu-BMwf7_vtUkT-127" value="" style="swimlane;startSize=0;" parent="A_hPwJBu-BMwf7_vtUkT-66" vertex="1">
          <mxGeometry x="530" y="190" width="205" height="135" as="geometry" />
        </mxCell>
        <mxCell id="A_hPwJBu-BMwf7_vtUkT-70" value="Service B" style="whiteSpace=wrap;html=1;shadow=1;fontSize=18;fillColor=#fa6800;strokeColor=#C73500;fontColor=#000000;" parent="A_hPwJBu-BMwf7_vtUkT-127" vertex="1">
          <mxGeometry x="10" y="37.5" width="180" height="60" as="geometry" />
        </mxCell>
        <mxCell id="A_hPwJBu-BMwf7_vtUkT-125" value="" style="swimlane;startSize=0;" parent="A_hPwJBu-BMwf7_vtUkT-66" vertex="1">
          <mxGeometry x="260" y="410" width="280" height="125" as="geometry" />
        </mxCell>
        <mxCell id="A_hPwJBu-BMwf7_vtUkT-123" value="Data Interface" style="whiteSpace=wrap;html=1;shadow=1;fontSize=18;fillColor=#a0522d;strokeColor=#6D1F00;fontColor=#ffffff;" parent="A_hPwJBu-BMwf7_vtUkT-125" vertex="1">
          <mxGeometry x="20" y="39" width="245" height="61" as="geometry" />
        </mxCell>
        <mxCell id="A_hPwJBu-BMwf7_vtUkT-135" style="edgeStyle=orthogonalEdgeStyle;rounded=0;orthogonalLoop=1;jettySize=auto;html=1;exitX=0.75;exitY=1;exitDx=0;exitDy=0;entryX=0.688;entryY=0;entryDx=0;entryDy=0;entryPerimeter=0;" parent="A_hPwJBu-BMwf7_vtUkT-66" source="A_hPwJBu-BMwf7_vtUkT-125" target="A_hPwJBu-BMwf7_vtUkT-117" edge="1">
          <mxGeometry relative="1" as="geometry">
            <Array as="points">
              <mxPoint x="440" y="535" />
            </Array>
          </mxGeometry>
        </mxCell>
        <mxCell id="A_hPwJBu-BMwf7_vtUkT-141" value="" style="endArrow=classic;startArrow=classic;html=1;rounded=0;entryX=0.25;entryY=1;entryDx=0;entryDy=0;exitX=0.5;exitY=0;exitDx=0;exitDy=0;edgeStyle=orthogonalEdgeStyle;" parent="A_hPwJBu-BMwf7_vtUkT-66" source="A_hPwJBu-BMwf7_vtUkT-124" target="A_hPwJBu-BMwf7_vtUkT-67" edge="1">
          <mxGeometry width="50" height="50" relative="1" as="geometry">
            <mxPoint x="220" y="370" as="sourcePoint" />
            <mxPoint x="240" y="350" as="targetPoint" />
          </mxGeometry>
        </mxCell>
        <mxCell id="A_hPwJBu-BMwf7_vtUkT-142" value="" style="endArrow=classic;startArrow=classic;html=1;rounded=0;entryX=0.75;entryY=1;entryDx=0;entryDy=0;exitX=0.5;exitY=0;exitDx=0;exitDy=0;edgeStyle=orthogonalEdgeStyle;" parent="A_hPwJBu-BMwf7_vtUkT-66" source="A_hPwJBu-BMwf7_vtUkT-127" target="A_hPwJBu-BMwf7_vtUkT-67" edge="1">
          <mxGeometry width="50" height="50" relative="1" as="geometry">
            <mxPoint x="158" y="200" as="sourcePoint" />
            <mxPoint x="308" y="110" as="targetPoint" />
          </mxGeometry>
        </mxCell>
        <mxCell id="A_hPwJBu-BMwf7_vtUkT-144" value="" style="endArrow=classic;startArrow=classic;html=1;rounded=0;exitX=0.25;exitY=1;exitDx=0;exitDy=0;edgeStyle=orthogonalEdgeStyle;" parent="A_hPwJBu-BMwf7_vtUkT-66" source="A_hPwJBu-BMwf7_vtUkT-127" target="A_hPwJBu-BMwf7_vtUkT-125" edge="1">
          <mxGeometry width="50" height="50" relative="1" as="geometry">
            <mxPoint x="575" y="380" as="sourcePoint" />
            <mxPoint x="390" y="290" as="targetPoint" />
            <Array as="points">
              <mxPoint x="581" y="370" />
              <mxPoint x="490" y="370" />
            </Array>
          </mxGeometry>
        </mxCell>
        <mxCell id="A_hPwJBu-BMwf7_vtUkT-160" value="" style="endArrow=classic;startArrow=classic;html=1;rounded=0;exitX=0.5;exitY=1;exitDx=0;exitDy=0;edgeStyle=orthogonalEdgeStyle;" parent="A_hPwJBu-BMwf7_vtUkT-66" source="A_hPwJBu-BMwf7_vtUkT-124" edge="1">
          <mxGeometry width="50" height="50" relative="1" as="geometry">
            <mxPoint x="591" y="335" as="sourcePoint" />
            <mxPoint x="290" y="410" as="targetPoint" />
            <Array as="points">
              <mxPoint x="175" y="365" />
              <mxPoint x="290" y="365" />
            </Array>
          </mxGeometry>
        </mxCell>
        <mxCell id="A_hPwJBu-BMwf7_vtUkT-163" style="edgeStyle=orthogonalEdgeStyle;rounded=0;orthogonalLoop=1;jettySize=auto;html=1;exitX=0.25;exitY=0;exitDx=0;exitDy=0;entryX=0.142;entryY=1.03;entryDx=0;entryDy=0;entryPerimeter=0;" parent="A_hPwJBu-BMwf7_vtUkT-66" source="A_hPwJBu-BMwf7_vtUkT-117" target="A_hPwJBu-BMwf7_vtUkT-125" edge="1">
          <mxGeometry relative="1" as="geometry" />
        </mxCell>
        <mxCell id="A_hPwJBu-BMwf7_vtUkT-82" value="&lt;b&gt;&lt;font style=&quot;font-size: 29px;&quot;&gt;Distributed Monolith&lt;/font&gt;&lt;/b&gt;" style="text;html=1;align=center;verticalAlign=middle;resizable=0;points=[];autosize=1;strokeColor=none;fillColor=none;strokeWidth=1;fontSize=22;" parent="1" vertex="1">
          <mxGeometry x="330" y="860" width="310" height="50" as="geometry" />
        </mxCell>
        <mxCell id="A_hPwJBu-BMwf7_vtUkT-164" value="" style="shape=image;verticalLabelPosition=bottom;labelBackgroundColor=default;verticalAlign=top;aspect=fixed;imageAspect=0;image=data:image/png,iVBORw0KGgoAAAANSUhEUgAAAqoAAALoCAYAAACwFdcNAAAAAXNSR0IArs4c6QAAAARnQU1BAACxjwv8YQUAAAAJcEhZcwAADsMAAA7DAcdvqGQAAP93SURBVHhe7P1faFzLmt+NPzsJb0IS62JITg+WoU1Mw5EZolyMGnwjEauZeS/GLcxYV9bIv0i/c/jBb6MbIcxY6KrRnm0L35j93swg5WePcuPWwUgKL5kgO0g3xq25eDUc7AHh4GZLG/fhzbzQISETyOhXT/1Zq2r969V/JK1Wfz+HPl61aq2qp6qeqnrqqVra35wJCAAAAAAAgIzx9/S/AAAAAAAAZAoYqgAAAAAAIJPAUAUAAAAAAJkEhioAAAAAAMgkMFQBAAAAAEAmgaEKAAAAAADOjb/7u7/TV+2DP08FAAAAAAAyCTyqAAAAAAAgk8BQBQAAAAAAmQSGKgAAAAAA6Am9PlHa8zOq/+t//S9qNpv0P/7H/5DXAAAAAOief/gP/yH97d/+rQ4BkD3+t//tf5P/fvPNNzQ0NCR1tlt6aqiycfpf/st/oX/yT/4J/aN/9I/oH/yDf6BjQNb5+vUr/fZv/7YOAdAfQG/BIAF9B/0AOyn/23/7b/Q//+f/pH/8j/+xNFj5q/+/9/c628Tv2dY/C2aM1H/6T/8pjFQAAAAAgAHj7//9vy+NU3ZY/vf//t+lE7NTI5XpmaHK2/3GSAUAAAAAAIML24N8FOC//tf/2tW51Z4Zqmwxs/UMAAAAAAAAOzC7PWHa061/bPcDAAAAAACGjwF0S88MVQAAAAAAAGz4oyr+KwCdAkMVAAAAAABkEhiqAAAAAAAgk8BQBQAAAAAA50YmvvoHAAAAAAAgCM6oAgBASg7Xfot+67cCv3+zRb/R8SSutv4N339EWz/pW11xSM9lPs/FlUmbry8DLYtTXsbIFSWbkV/81s5Z6r98LvN59CuWzq63KOLKovjNrx5ZaQ0oP23RI1mHEW2n65p/z/+Sb7Sq76zT634LsgIMVQAA2P4l/byDCc4YQ2qivwiSjbPesEoHdnn+8kDcyQDG6DpvY/mq8icHjgF6+J8y0aoAtASGKgBgALlHf/rrv6G/+Rv1+4s/5nu79MtlNgB/Rg/+Ld9/SQ+uy4e7ZIwWZT6L4qo/+Ku6bwZfnkHTXb397A9fyrZ9+Yc/03cGnb+iurcQO6SDP9GXHv2npy697rcgK8BQBQAMPGNLf01/OiUutnfp4Kfw9nzwuABvJ7M39ee/2JXxq7+nPX3e1vWW5fmM9oIe2Gl6XsK4vNnby+n8vvJuBjzArnzu1q3x+srfv/lBmCtJ3KN7oh52//2BllUbNFPivgz7xOZp6mDtub/tHJApSV4fq97Ym/o7vxRLCcGf/H7gnTr9uXdswfduh73d9vEGna6OufLI9tul3fe6xNpLfk/c9wnraXQ7+Tq65dRxUv0G4rx3mLj3IvL5D9qrbqdtjjCs/UfveU837KMP4uccA7GOPvDP3hVxyz3gx0cyAAxVAACgn1H+tr4MIia03w94n3Z/sUT//v/RgQh2f/HLFtvlq7RqpymMr04nQzbIXPlW6ffNRC5kN8a0RBjiViiCf0n3/kAYL9JgF0Ft0CzzPQueyEN5OsajqIM/WbXyEvHaGE/zbltsi7rc1teC1d+LSouNnp/TL63npLHvGFNXmNvuAkR5yZdFW8vYSFq30yr90tOt5Pr9za+W3DiBaafDtYj3nOMdVj7/7AF9y7sfRj8Fpix/sfSv1A2DvbjR7P7i56qfcdzvuT109ff0wi+mv+Pca3fgq38AAOgJu9b2qOI3deWDXP6PvK0ofv9xWVy/pLn/90v66z9TBpyMW7I3TMXEyc/+2wfCBI7GS+/Xfyq9lb4XMw7emv0LkbJg6k/pr+UW5yH9uZzEdX7iJ48x6IncbNsH80oif8f3vqmyL9P4HRWnMNvGfp6qHlbpB9vYljJaeX6si/KlfDfI9Qf00qTzx38h3rO3p80xDu0Vd7a4NT8d0C4bQ0Ym8fuLPxYyrI6r+CtPnsa9BchvqP5R3PrjcYovfVQ7LYt6/iPKW3V778/+WsYtXo+qXxEWRuef/yVR/T+zjvrHbVRaog2FwfgD5+O9p9swcJ7Wy+d3RS/419wDjHdYyynKEjyu8Jv3alFm3v0b7jtCd9aELh/+O2XA2n3apBnX33GcoDvw1T8AAHSFmZjvUT4wIfFZR5505fY+bwX+3qpzhjOKe3/2Ry3O+QnjT0y6kuvj0ttF23Wqqzvp+amut/LZ26XkU94gNri1QRKVVxL6md1//+f05/9eTOdBI8Dkad3/Wf5f6iufe38wroz063nyYlO+2xZT92hctlmCV1zkK40WI5NgbEkYStd/FruQuGr8zCxA/t2fS6Ny+V8naGhUO/3hojDWRH15/WOZvjXnfyPqN/8v5LJCoo7W7NIvf0fp6M9/saoWE/o9dZSF44x31V5sWPkwvzsu7pBc2B3+6geh+dFlMcbxvTtei9OiWEyy/KpfuH2a2f3P9Y76OzhfYKgCAAaewzV99tMzemyEEfvR9xSxB7D7rUDry3rP25envLojMBO1MTZjMEag5cn6m1//tbxe/F1juEXklcjPtPdNbamHjACTp+X1Ml6olnTzbjeIfNlssr3Wv/nVlifDQGAWIPJIhrV4iSKinegvt+J1PqJ+laGoYb27zZ5wpaPKEHxOh/o95SXX/Uvob/IHUWP0R+yFF8bt7+vdhKiyKEPZeF6Z39DWr7g0pl/YH1SKPsPXclfkPPo76AYYqgCAAcT37vheSDFxrYa36qUR63l82BvEk6N7RMD7mKoNPI+NPkenvFFmEjXyBc7vGaQ8fKZujMb1FquR77d+5+fymj8OUduk4bxa4Xs5wx5mNhRknpYXV9VJwPMVSTfvakIfU6XA81rb7SgMnW7OxvYdlsfZWRRFEW6n3/q9XwqdjPkTbhH1K/uUWED90e8KA3FZ6J1sNyuOF2Ok37Pifi70t9XfQlXeYU3Etj9jnuFzqSpt0Zd+IfIR/dQcH/DHANFn+FrEpenvoH1wRhUAALpBeiSjvDjCjPkXwXOdyhPD5+WcCbMtlmlZGgKaP/4L788ojS3pc6iSwHOeAeEztmT+vJZBnStk+eh3F/UZUM0fi/T0ZSJ6ezXawxyXZ7o/a9Txu2mOLcTCf7rInGE1pJf5qmAWLvYWfRzhdmK9j/N0RtQv9yk+o/1TnfJ/ENQ6rntOK+a9Vn9iytKF2CMM9rlmA3tu2Wsq+oU6l+qjzpmLi4T+DjqnmzOq3wgrt3Mz1+Lk5IR++7d/W4dAv/H161e0H+g7oLdgkIC+g36E9fbGjRs61D7wqAIAAAAAgEwCQxUAAAAAAGQSGKoAAAAAAODcwMdUAAAAAAAgk+AP/gMAAAAAgCsHDFUAAAAAAJBJYKgCAAAAAIBMAkMVAAAAAABkEhiqAAAAAAAgk8BQBQAAAAAAmQSGKgAAAAAAyCQwVAEAAAAAQCa5REP1N7T1b36Lfuu3wr9Hv/qNfgZklp+26JFps7VDfVPzl8+9tnz+l/reOfGbXz2y8jmk5zLf5+IqAi1XnH6ZtDrTP5N3t/pr+kVyGUJ1DjoAbQYGBzO+xeppWhLHUdMXHtHWT/oWAF1y5TyqruECLoQ/OXAGvsP/tKqvLpcL1YW/PCBT6t1/fyCG64uhd2XURtu/2bow2S+dS2qzw7VeTeQD2GagQ35DB/9+V1+v0sFFzY/GodGDRRrm9sElA4bqMv3F3/wN/Y31e/mHP9NxoD/4K6p7k+4hHfyJvrxwxmhR6tCiuGqfn/3hyw717ze09X9Yxvn2Lh2clzfhdxdVP1nqpITAB20GBoi//HP65ba+Fqz+p/Py7v+MHvxbHoNf0oPr+hYAgqv53/q3t5bFz91mMNsL5qe2MnjF9fNfqFXj6u+J+7yKC25TOCs8f8tuK7BaU14P87O2SgJydb2N0u9M3aN7tEu773X9ai/VPXHfJdBmlhfIWymv6S3SQHzSuy6+h+ljlC4Y/vOfW23ot19oxZ6ogxY/HdAuTwJTf0p/8Wdcbqs+BF66vwp4F8yWsP4FPQUHlg56eVv6HKnvTDt9R9Yl19vvK+/i9i/p59rbF6oPpy/5db1lewjT1tll02GbxY4LmlZtxu//vlzI7dIvf8d6JqneIuOi2swfz4xcjvfWk2PL9cT2S5uBjjG7XMv/8S9omS+cXbAO+3LkOGrpIL//O78Umi74k9+3nknuR1FxkWOdMx4JjLyyr/pypJ7bwbnS5/+t/1X6fU9pxM9MnEbBNbu/+LlWNFbAnzurQ5mGmaQ7YpV+qTsBw51CTSYGkb6US+S97MrVfd59zm1hqE6J9tFbp2pAXKZ7fyBjNRFtxpOrmSg1q3+iBlOJiF+SA1C6d9thV+Tjt2FM+9mDrIZ1MGoS/817YeSIf5f/vw9o7A4b7n592Kz+wkqPB9nfs8or4AHYN1ZXRX3oS8HuL5bU5NGSNvuOrMv/RP9NB9tGvP9LT86kvLNFJ23mG5kGHrvsie4c2ixWD/8fHWqfXVEmX/P6p81Ap+hdLrEo+6PfHaPxP+Z7Edv/dl9utB7/Uo2jEcTPr/F97P/SofZJO7eDLJNJj+r//asfhPoQ3fuzv1ZbZr/+UzmRmO2K8VXeWtA/HUcf60R/+JL+WnpHeOUo4trYajN5Lf7uIf25VGz/SMJfcMeWW4N1qmsvzF/LuL+mP/1jcT3QW3p5Gv8DUeeyfn5D9Y/i1h+P07iKVFjeK1Vvpk5/SX9uD5Z//BeqTf+jXPPT7n8WbZr23QD/LEkXTFqW7gQHKmPIeDr4N39By0K+tTsq3sec/Vqm8d8V/1x/QN96+sLxFiZfIYvv4VBlYlmWRV5/dP3/lvcZEyfLK6Txj1co+KhCsIy/Seo7kXUp9Hz1/0X/Hy4fJyTj2tu2U3K+pPH3yf02O3TSZqSPtPjjwl//2TL96a//iPLWO63abGzJxN0T76pjJkltFq+H/4oWO24zXYZ/+4CoxVgLrgBml+sPxokPNY09jG9jry//5xTjn+kbWmdC46joVy9NnBzb+UhW0vxqjo2F+9i/unPec7t8FGSU7J1RFYPnfxOdhOEVnPSympWd7Ag/o5+JAdlz3wdWfZ2xTN+ac4nCGP0recErOZWHWoHxpDNGi9zx2Asl434uVqDCeJXPDy4/kx4pMbD9uz+XhtDyvw4MIqJOuY3MQMnk/4UadGy8967n1eDGpHy3Hby0RD7/Ut4JU5c6KMp1x+Qq2l4Mjj+7bsIaY/xF6Msv/507EbD3Tr2tDXqhd9JQYsSgvih08GfX/5m+4ce1U14lt8g9qu9E1OXYkpg8RJkCpUqPmKz+SMuZmLeMyQidtJkZF8QizGj3z/5wURiHajxS9L7N/q+0etgG9/7sj7wy9E2bgY4xi+JQG//JD67HP9SXk/UuzTgaIml+/as0faxd0s7tMgJklEx6VM0gb7wT7Ln8618rI/Zn+hzK75P2vpkVWwukd47Rk3UsptOZ1aLMQ+Qv/l0UnZg9HP/Sk4s9GkLpB3nrn7k+rrb/5VaQZXwZtOFpb62aCbIl3bzbBUoHhfHtnVv8DW39KtzOxuMVSeCvIfj8jPK3+V97++1QpN+9aZDYdyLq8je/2oqR0eev6urp39TVMB9HYt4yJht01GZmXLDj/3Ir5dZ+Mkn19q9S6qGL+bjRLIji6Zc2A52S9HGrrVcuace/tkmaX//3zvpYr+Z2kF0yaagqD52YxvnQtFz5/Jx+/jviXz5LYpRRHs4W98zqMLAV7B241pOz93zgXGAYfYbH85pyHiJ/8e/z/7BFS7/YteTSHzMMvPfBGF6CqTzl9aWHNmTtOpUrWWsFH0s372o8XWgDo4OeF4K9578QOuSk428hO7sC4qe2d+P/DMzYv1bHG2xd+qXI69Gv/K3/djBlTOw7EXX581/8kpxzljJOfUzxs7wc1r06MB8zxJGYt3okA3TaZv7ZPuON+a3f+yX98nf0hydt439MlVRvlEYPvTYz/VClLZ+VnuN4+qPNQMeYbX9vC1//tIMn6lw2k278awPvY6qE+fUv0/UxM9b1dG5POEYGLp9MGqrO2RaN7Gi8yv/dRT2haITB8qdW2HQwD5HWmj7bwtz742U3PgL/HJlBTWp/9M9Ex3DuC/jsDbwPnuFlbyv78J8s+Wv6UzaSDLyqTVVvnb8b0oV2iNBB2db22SjzJ1+srSqDZ4j+H1sUaXrynyzSZ3ENrOMv/9Bs/acjSt9j+05UXUrd5rNjZpKwCPS1ZdF3EknMOyN00WbhcYHPmbb/Z3hMPh5J9Zaoh+E2G1vS51Yly6LN9GUc/dBmoEN+o/8EmxgjvC18jbVojTzrn6h3bWDysYibX9mrmdTHznNuh0c123xz1s0ft7I4OTmh3/7t39Yh0G98/foV7Qf6DugtGCSg76AfYb29ceOGDrVPNj2qAAAAAABg4IGhCgAAAAAAMgkMVQAAAAAAkElgqAIAAAAAgEwCQxUAAAAAAGQSGKoAAAAAAODc+Lu/+zt91T4wVAEAAAAAwLnx9/5e5+YmDFUAAAAAAJBJYKgCAAAAAIBM0tP/MhUAAAAAzod/+A//If3t3/6tDgHQH7De/vN//s91qH16aqh285/IApcL2g/0I9BbMEhA30E/0q3eYusfAAAAAABkEhiqAAAAAAAgk8BQBQAAAAAAmQSGKgAAAAAAyCQwVAEAAAAAQCaBoQoAAAAAADIJDFUAAAAAAJBJYKgCAAAAAIBMAkMVAAAAAABkEhiqAAAAAADg3OjmP4KaEUO1RmtDQzT0tKbDndHYmklIQ+WxdsjXDao+MtddcrhGQ4+qIsVz4LRKM0NrQvKMw3Xg1a0N1/kMVU916OkQzWydS031KW79XDSyvyToLrdXu32yk3cuDzUORNWBPZYkjyuDySDVyXn0k4tDz62hX3fjDsby1iT1kVY6dRX55ptv9FX7ZMJQbWy9oApfrL44x0m7SEvNJi2N6SDoEWKy/0G2HlV+GKyO1+/kHmxS8+U05XS4FxQfN6n5uKhDGefwFc2/Ef++madXvVi0givJefSTi2blreiXYv7zf5s0PawjwYVzFXTqIsmAodqgg90dKm/s0fr9Hdp+75o6auVWVatCswKRnsa4lWFdeUlCccZ7xf8W5ARVmbTSFMhVjkk3sNqJipP3JoWRJia6grgvPYohD2uUVzFQHu2RVL/uVroXzukBbb8p0/rbdSq/2aaDDmWXXglTB84q1PUI2F5bpy75J+vTft7yRmvvdLXNNlboNtyy2imwUo6TX6b5tBrWSSlPSSzQdmh+xHrH0e1or4WbpiljfD055bL0S6VjlcPWQ1H+ur5tiK8fH9UmKia27Bmh9k703eU92lsWY8E7tz3TklQnsTodoYvcXnZafrtH6F5ol6WNPhJ8N24sjZDRyMRpFuZ2iFZLzjtOeUMyCtoqN+OWS8VpL7jT/9Rz7rtB/ctWP8kOuj6NvE69tirLQbxeWSSl0Zs+otJx9dxt26R2v8g+YnB1ypUt2AZAcNYjfvzxR33VJrVnZ9euPTv7IC6/Vh9614YP319z7528Pnt47drZs5odtt9/ePb6REXJ8Ozrs68y9OHsmRf39ez1rJWGwH1W5/u9yjUolwzrOCm/9V4o7OQbV54Yma2ynTedtp9fT6pOvXqRhMv+sOrXjEGmEah79Ry/b7eTG3brUucfrGsjj9YbP39X3mD7u2GVr1+2CDm8OJWuyUfpTkz7ynT8OPOuX14Oh9s/mGZQHkengjrEYbvMTv1Yaer6iqsft8w+ftuF5Qym0Qs6Hnfs8soxyK5Pt26cerJQ5fPr1n4uWD+JuijzD8YbeYK6p9MK6Ga6PqLDkfkIrLE4JGPg2VCdRIyDfl/TtFVutx85cfLa0ulg3hrVPlb5gnWVlCaHtVxOWe13vLBfBvlsin7SKe3re1A/XFz53GdV/SXod5xeWbRMw3rHCet6TacrYXnU8yY+I33EIlgPdl/58L2V3xWh43Fac+keVeXVmCDeLMw9WKAVqtC+sxIiKm/Mynim8X6bdpb3/C384XF6/mlCrHJ1eHnB29LI5UeJ3nwJrXjDKK/uyre+K744s07l1X2x1tFxb5c8GXJ3ntPxXV4HdYZdHiIhv7UNI2XuG2q0v0q0cle2Hk1/uyJWkFxn7cBplGn9O7vuj2khX6fG4T5V7q/TrHdco0izG2XH++XXZY7G75Wd9s/fEuGPIh0VFKzQwgOTi5D3u0AbW+0vddHxEAsZZ0yr5enmfaKjOqes5ffiVD3s7B74+abWyTp94a1oD5HWS1/vHKw0KVhPw9O0sKx3J376QmJd7yPiNiO25lW/stKUaejrxP7Rgo764/kjy3t/isZZtrHZyN2cZJLGhaBORNWXpYtjEyJkPT+cp1HRal9+UkFX90Raj/d83Wyrj7h9ItTmsh7s8deSMSSTS6N+pK80Y0u06fU1m/TlHv+u6ach4zRizJ+y5OQ5pHxv3NNNh37pJ+eM3D20vHbKo9ig/Ix9VEeNa4rW816cXvlcZB9x5WH92zNtm5E+Ek2D6h/1pab4GMcyglyyoWobOkyRJlpsw9U/71D5Vl6HmBzlhotU9JSwE5SB4HTmkXk9cHFcmW5elwHFsMhzTOSpg13BaQll9bZfJoXh3i/wACA66oSpezmYhBcaiZzW6Uh077zdMUWdFEX9Ek9+t/POBCSNndCA2A1HVBcyhNpYDtopBh0pv96+N7rTcRvyOeo9IksP3e2raKSRoI+fmPdKol9JxIDdfEtU8uKit+jC/UoP2JKk/tGPqAnUN27UIsdZXLQkYVyI1GmexFjXdLhrlG7Ktu+wj3Cbq61J067qSFQn8Jm743vbvg52veXN47oon7etysdkDKq95Jn40yq9WLWMhQQGuZ8Ez6gqR4+qY/8og93+vZj3LruPiF7yWfSDjPSRaNgZcUxTuwUvj+ARFnDJhqr5iMru2HLgSPioigcFVr7ewkaJWK19cjtzs8krwZQGS6fIQWKR6Dud59sVHZF1zEdUFWtwV5NJWx9VJQxOUYNJ1KDTHTxYRrVxxCAbhZR/hfYcvRG/Dg/KN07z8qM/mcandTqaDJ9vCiLraXnPzV/8lDeqQY3rYhLW9443jqgUYURE9Ss5SEuS+kcfoj+i2pnzJwd5nqytj6oSxoUonY6amLtC6WY3fYTbvLxxHGjTDj84PRUS8AciOo2928Ig7OqsnTq3t0jPdZp7opf5mB2PV5vs8VI7cq1APwmiHSTvJrScx7TueVR7Me9ddh8RvUQsKjLTR2JoiDqYfmnS3qNRMS6lcVAMEpdoqGqvRkgJuLPEb8Pl7kxRWaxwvIbUB527a1heoRPNP/EHJrWS51W1Xr1P+itsPy6C6zedj4q8v2gQg+ww1taCPArRD5iPqIKDsjCu2vuoir3oO07dywP2PEmwh9YxHmr0ShgUvge+XSr0wlutikH6ybye5CwPjYnldjNbw4mw/MJYtyZlT34dTo1YtBRGgoNUioGb68nuE3qS55V57WlBpBnQ1YgBWvUra4EoPVX6OrF/9B/mIypHb8WvvY+qksYFrdOblk5sGl3rhEBaT8WC0Du20Hkf4TanucXAxyGdjKXcl4SeBXQ+6HlsC2m0WJ5SuXtjo+q4InTU3j5OBP0kgFqMe/Unx3R1mazfabnIPsILz1e+bGIsLa2WaeqOaMFM9JEYRHqLYsx3vagpHCQDxqUZqo2tRZp/E7Vlo8/42cphw2eHpKdJeUKGRrZpShhL7a1wTAfiNFQnCm5dFXan6FivhGUcr7Aj4kwn4Peksgn5nm+IwUpvBS/SlOMJCCI9A9bWwv5dPn/WrTfivDFGnnV2x6DPfdmDdSv4TxpJD4yugxIJI0J6JINb4SWit92sZldEayzqtAo0f1vko89nRbZ/Sq+olF9IrdK15W+FHqxZV6RhvqS9qCod3jYctc53xRNdT+wpYtkc3Z0bpb2oPx/F/ertqH+E4QnRlHf2Lrl/9BV6AosybtQZOduQSSZpXIjUiah6T4WQ99a+n9bHdUs3u+gjciydom3T5m2MpcZhwO+tHfL2ZaAPCxmfh8b2NpDjiLVb825Cnjmct4zJ4l0xsqZaTBoGt584xxHkj3dq+KymP1dxWRb47KbexUmc91JycX1E9JKNm7Sv0xqaPKL1T+asZxb6iL4ZhNMXsrEX1ch2tPEcZ1QDfMNfVOnrrjg5OaEbN27oEOg3rnz78Up45Ast9KNxBWK5+uMOe/1e0E1v0gUK3rYu0Pa9Y/+DqwEA82w0vIv14tZg6UI/0a3eXvpX/wAAAEBq5Ln+As1Tl15bAMCF0Y1PFB5VIEH7gX4EegsGCeg76EfgUQUAAAAAAFcSGKoAAAAAACCTwFAFAAAAAADnRjenTGGoAgAAAACAc+Obb77RV+0DQxUAAAAAAGQSGKoAAAAAACCTwFAFAAAAAACZBIYqAAAAAADIJDBUAQAAAABAJoGhCgAAAAAAMklGDNUarQ0N0dDTmg73F42tmb6V/fJQbb52qINdkJ365zLNUPVUB/uY2tP+7Y+tkPryqEoNHb4QTqs00xPdyI6OXZlxr2dt0x+ct/7z2DGzdaG9S9C7+eRq0t9zUyYM1cbWC6rwxeqLgRksQJGWmk1aGtNBAC6I3INNar6cppwOXwjD07TZ3KTpYR0GAACQigwYqg062N2h8sYerd/foe337kpMrc6qcrU0pH/+qkmvErbWvLihoTVxVyNXymsiXqwgrfekt8g8H/AIyNVmVFoCJy60Iq1T9ZF5b0BW54d2vceX2alvr07dFV64nRPqXsStcZox3pzkdlLIZ55WrTYLegHUCj06LlmHPEz96PjUuhVRvjRlEk855bHfb1W/TluK9Ov69lVEtb3VJo4exOtxUvv5uHrjtYEei1QoYtyy2iqke0/XEj1+rXUxIr+k9g/mJWWPifMwumfi43UxHCf0Xfxre8Pa6l/yZ8vVqn7d/Nfe69tXFaf91uhA3/aIal9Zt25bK/23ddi8k+zJjG3LwPwsf4GxLWncs9Od2UoasQL9yRrL3T7tltcn/n0bp5yB/hVXB3w/3r4RpNRxI1PkGCXruUQV2qH5EXHfyz99G146Zz3ixx9/1FdtUnt2du3as7MP4vJr9aF3bfjw/TX3nnz+4dnrEw58OHt2TcR/778hn599ffaVAyevzx6K+IdVGZLI+ODzJmzJwthxQdlk2IkzMumwkaFPaLv9ZN2mKDPXqX1fhFV7cNv57wfbOdwu/rOmXZ36t6+t/ILtbQi2mUnzWY0DX89ez1p6EyirTDOQR6hMgXeSdCtV+VKUyb2v+oYqj46Lyz8oayD/LNPJuBPSF6vswbr2SGo/C77vjje2Ppj3g+OW3VZK9+y0VdsZGSP6jfdsQG89gvnp90w5A+3v1IHWBaNHdjnsegzWhxuO0EWrjlUbBOJblSlJ5lB5I/IPymqllWXa13e37F7dxLS9r+fBeldhlU4gzUAaXJ/mvci6NmGtW8E8THywL9rvBuOCOuQTKIctq7z2+7QMW7IqEt634Xqz5OFwdB246ck4WwZ7LgjklazjgsQxip+35U5uw17TsX2ouXRDNVyZrrJxvK/ICv9esPIZ615QEaOet575euLmIxVDymZ3Uo149mvtg3rPe04TUJh+oH1DVZRfX0qCHVUTHFB83LYItrP9XpwOmDpPbqegDihCbSaw0/kap1MBuSWiLj4IXRD/r+P4X1eOeN1qVb60ZQrK7L6XVL9RdWHXb5bpiaFqlzOm7ya1n487CTk4bRbUIeu9qLaV96L0L0IXI/thxHP2vYS+HC4n65kY94RemTj5r5Nnki7GyZIQH1WmxPEnmIbdLhHpO/WbbdrW94i6s9srqn29trLftfUyIk17fPGv4+papxOr63zP1hlNUpzMK3iPCeqiJROXI5h/iIT3LcJ9wBDxvFV/wXGZ8e61peNChsQxKvB8izbsNd0aqpe89V+j/VWilbtFHS7SxDJR5Z3tNI9m53OSq3+HvvykL21O63REo5S3z4kN58WdI6qfEuWG+dSa7w4vzO2oZ6hOX96U6eZ1HWTEs7mxopB4QOHy21tokxUd4cLnAY/vbVNB12n8tnUv4HYS+jOp8+LfyLzQhjb4WBfyibIJHfG3UXjbRBOpQzkqCl1QZx55e0U9f1T3SxqvW61IWyYls79VVKB58V4a6p93qHwrr0OK/K2yvgJMuvbL0fTLY5raLXhtFbdN2BOkLurtPJ1fXD+MRo+TCX05rBusZ2LcM2fLV0uqLt58sY6LdK6LqcuUcvwJETsHXE0a9SOi23lRVz65vF9abl9uQ6+u7bYam6CVN9t0IObGxvtt2lmekPOdTPPNvD+mi19JzOMhWsy38XB80rgXMR9Tnm7e15cOShcjx/KxJWq+JSqZ9APb9YqE9y1i57kO+6i0b9rU8XbmmNRtmBEu1VA1H1HZyigrK8VHVcGJ1SWoxJqoTmJ1JqWM+zTRbFJT/I43zGTNnSDG+B1U5CS0SPSdqqvm2xUdEeBUdFf+eEXX6d5t0TnizpzFULy7Qjtzi75OnFbpRWSn4nYq0/onLZP3W0q/oJCDuursi/Rcv79HXulSDLQrb8U7oj5smeN1q1X50pZJD2jvJnT8Ma1HDtxh2CgNLvzkBAY8ktrPpiHacPqlaaM9Gp0rtHf2a3icpu5XqGSfY9uMWWxJXVyhPS2T90v9oZgeJxP6cpRuONxfp2Opa7bMSbrIzggxcT/xF6zex7RM2jKlHX+CxM4BVxNplMrFt480UjTcvuWNY7euxU995Kraavt9TX5HYhxKMs3lvdA7mw8CWtdivo2H45PGvaj5WBm2YRLGclErjevCWNVpH28cUSnkSEl63yJunuuwj0r7pk0dTztGManbsIecnZ3pq/a5REPVfEQV7CQ8qLkfVe3MvfJXOqLxSqtlmrpjKlQMepvWoP5UrHjuT9F4ZEfQg6T9PE8CeqUovQcbs/LayKfI0fi9sjCo/RWXUoqoFdhgIAe75QXvK+bau6jVnpiwnhSoEOj8yYuMCMTK93iD/FXpyBcaXdZxDtxO4jlnEkxoJ3tBJIzDRbEClYOxHExXaMF02sN9axUdnmjlQXmvjHryFzLvWc/F65YgsXxpy6S8DOszKgc6PaDtlF6s3J0pKgfqInohMLgktp+BdWikQK4XNWbRHAt7ZcVkaHm5XghdjJ5yWBcDRq2jizbx42RSX1a6UfKNbVFG/vDGC8uFnZD5u3XruWRdLD4WYzz53pzCZ57KDenKlG78iSJmDtDXVw7pFZ2nV95iqUavLE8bty8FFsl2+6pFdInm36zQhPGic5q2Tog02ZgL7x4kz7eKCr3w3uP5wsQnjXt6Pv7BjrMWOzYJY3ntqZibRgLjaMD7nDwXGJLmudb6HGfftKvjqcYoQ+o27B3ffPONvuoAdQKge9o9gyDPT8SdD5FnR9R5CnVu4vUZnz/hw9LuoXd97qLKz+t4+9xF1BkYAafpPW+fz5HPmziRbk2FzbkNJbOOt/IJnfNJdfYlW7R/hoTr3tQVnw3SYee8k8Kp75gzNsHzMe6ZHz4D6scx9vPB+o9rJxv1zmt51sk8a59vCuqICvttGozXd50ysdwyfZYhUbeSy8ekLpP1zAcZVvJEpmenI3XWf/c1ly+iLbPGRZ1RbTU2+Lj9wot3xqJoPfGe1WffPRLfVW3rtV1km+l34sZJGe+nEerLwbLrvKPrTvWjJF084zOulvydl8l/xpU5mF6gfnXYe1fML1f2jCrjtN8zoQeiLez2j2lfharXVnoeHDvt52PbUuu1lCcqXhDUI1sKO11jI4TPqIbzV2HVn5z0vT7mkvS+jfNcgqx2Gfl+sn3jv5es44JgOwbGKE8GT7b4Nuw13Z5Rvfyv/lugGtJucpuIxgIdcV7t1wtUB7PaWXbI7to9NMleIudRvkEhy3rbEWayCUxm3elqlsZJPTlaE7nsi4GJHURzpfRdG6rZGIUvh2T75urAevt3f/d3OtQ+mfiD/wAkUXzcpObbUWtrfJ5G316dP55+1csH2kD+hwGOaf2jv/Vf+rhOx4/9zdL+Rv2HPuQZPl2+wtwo7V30f4ABAHChdLP1/w1bq/q6K05OTujGjRs6BPoNtB/oR6C3YJCAvoN+pFu9hUcVAAAAAABkEhiqAAAAAAAgk8BQBQAAAAAAmQSGKgAAAAAAyCQwVAEAAAAAQCaBoQoAAAAAADIJDFUAAAAAAHBudPOXUGGoAgAAAACAc6ObP/gPQxUAAAAAAGQSGKoAAAAAACCTwFAFAAAAAACZBIYquHxOqzQzNEPVUx1OoPZ0iGa2GjoEwGVSo7WhIVo71MEEGlszNPS0pkMXS1d5H67R0KMqoceBeNL3g4tG6n4q/e1dGS56jkpfxv4FhioAAAAAOqRIS80mLY3pIAAR4Kt/cEmoVeiQ/rmr0aS4BlUfWXHv9W2PpHeZg/h49gB5ca6Xlle6ftyayMXHibskzxe4OKQXwrR3wBuRpAt23MxWXd/1SUqXqO7ovet1cXXeiZM7DtFxyfnZxOWt+qLdh2Saotzy38kK0Zt5Koh3wv1Q4Mjm9jdHNru/yXfWqGrFR3qgAs/J/EMeXq43k6++3rLGgIS+HNfOqvxVq77S7fZkFbcdEsZEqw74/sxWVemkqO9fyzQixkzZFnYbMEnjd1KcT8e64+jjmpgp4um0L4f1I0Z/NZHpyHnKbQv1nClrQj21UcYsga/+wSXAHalERxvH1BSr6WZzj2jSdDwVR2/5vonzO1vtaYHmb+/puCZNfJ6nHRUlCLz7aZ2OvHQVO3NfaEK/23y7QhUTzx148ojWP6m44w2i+Sf+wFD6uE7H3ntEL/TgwgNWiYw8x7T+sZQ48ID+hieEwtwo7WldOL63TQU9Sbu60BRXJW8C5/dsHXpO21SRMQqZ7u6UF793Wxh4tqG0uk30nYpjvaa5gu4TbCxafUnGLWqdF3FP5mnU60vHNLX7Sk5mLfOzic07ntyDTdm/6L4qc8hjxv1txJLt0xRtj+iJVvQ3u473litUcmSriNp7bsljyhvEfy6dx26H5j9PqHTFuLOyWoosZ1I7S6z6csaRfkO00aLVDrKNNlU5W4173jj7cpp+58ECiZGW9r26rNH+apnWv5umnL6jaGNeiBjbJR3rjkjf1sfmBH2Z82cWm/Pryy7BdORYw8bq2JIo1w5tvzf13aCD3R1aebtExcR6Sl/GK8VZj/jxxx/1FehH2m6/2rOza7Ovz77qIPP15MPZh5q4ExVXfXh27fsP4urD2bNrD89en6j7kpPXZw/NvYh3P3x/7exhVd2xrw3evZOvznt2WjL/QLqKCHkiZADZpP1x5+vZ69lrZ89qOsiw3tSE7sbq5jMRE/GefN7ci0rXvGvrv49/T+Rv5+nIYedhk5yfTau8g+k4zyf0hXC6XA4eA8SVqFMb59mQnDFljCpPSJ5gXdntp8oWHC/CzwmS2orzjKjXy6CjcTpS9og6sOo2apyN1wsrrVD7sC7EzwuR+XSqO1F587uBe+LuOfZlu0xx+UTUlV2upHpKXcZs0a19CI8q6IhG/Yjodt5ZTeeGi1Qcy0XH5UeJPtapcVqnIxql/LCOYIbz4o5Cvqu3Gs22R2lVRyaw87ku0smJPK1jBbxtqWHvkFzNmnTNFoyUZ4fmR/T9wHvgqlGnL2/KdPO6DjKsN2NCd2N184jqIi70HuXp5n19KdMlqkxaejRi7xTEwH1CaG1O5MneF/VuyfLu8Pk/tSNh0lWemw7zs5F5d0798w6Vb+V1iOFy8BjAYwH3fvYMKdkKWfL6JLazDl8Vxpbk7lHJ6IjZWu5g3MvdmaLy6r58v/auQuV7484Yz7ScF1KM7Z3qTuy8E+I8+7JNXD479OUncTk2QSuiPl6J/lzbnCfamBW9PXkOTF/G7CHsTX3VPjBUQUd4hqcO20TFeR0sakKQg6ZCvrvsb8mZ3+aD4JDoIidMee5n0d+S4W1Lw6mQhrcydXreVo6UZ8XfGjO/l8EtLXA1sCaKILG6yUZN1HtqQlNwfNk7duL/eCsvATnpqEl50Wxn8pa1jmYap3n5sYqM87YBO8zPJjDhtUv+VlktECNQRve+d0TneKOsYzJAYjvr8JWhQY3rwlj12uGISrxI72TcGx6nqfu8/a+2/afuhJ9sOS+kGNs71Z3YeSfEefZlm7h8jPFapFlRtsq7Nac+k+opfRmzB86ogotHrwYXvTNNarKVZ5yslaKiRq/EqnjlLnfzIk0si5W8PifF8GrSW63yu865Mitdzc6cOqMn4bOnupPLDru8QNN6suFVv4LP+RXU2SB9h1HeIJbHPQMlD9kHngVXhRyN3xOTw6T/gYaaGDkco5vLEyJGv/eDrxeNrReW55Pj3bOMfrqa1Rf+eTx5dlD3CWkkrdCCmbAP9/10+bzeSPD8GxtUKfKzictbyJ2/TWKyNG+pvpoG5WGz+iqfWRV9lcPS26o9RNz/+PxdT7h+k8pvtulAl8Vtg7QktfPVgr8HKJhzwwZpUHUy7pm+U6LK/SkajzLqW80LLcZ2pmPdiZl3wpxjX3aIyceqO9WHKlSx5q3EekpdxiuGOgHQPTij2t901n7qXM81/Ys68xMdp87ueHFVPp9jn5eKf1ed1XltxSe9p8PW2SETF3UGyIvzzh+p98Nn3EBW6HTckee62tIFhR1n9NDWz7h01Rm2167eB/Tae0/kqcL6zJo8v+bHp8nPplXeRs9V3LOz1/J5tw9wXGQ/cGSz+mLwfk2FZRr2eTyJysOVSRB6TmGXWbWByZfTsceDuDOqirh2VvVl5crnAiPkuAw60XdHRwLliKsDvp/U3mH9SRqH9W1JUpymG91x3tW6HNMv7LL3ui/bdReXjiLqHCuTUE9tlDErdGsffsP/p23Wrjg5OaEbN27oEOg30H6gH4HegkEC+n75sHe18HmBmo974H/n42qTRHvtHNnpQ7rVW2z9AwAAAABcGPqj38mK/pNUV59ufKIwVAEAAAAAUiD/vnDX3tQcTb9UH0kNyn/RCx9TAQAAAACATAKPKgAAAAAAyCTwqAIAAAAAgCsHDFUAAAAAAHBuYOsfAAAAAABcOWCoAgAAAACAcwNnVAEAAAAAQCbB1j8AAAAAAMgk8KgCAAAAAIArBwxVAAAAAACQSWCoAgAGnBqtDQ3R2qEOPR2ioac1FdBxQ168/m90i/DMVkM+cTGwHDNUPdVBAFLh6nZ7dPPuedErmcL9ifv9xfZpkBYYqgAAYFF83PT+W96NrRdUWd7z/5vch69ontbpWIQ3H+TkMwBklyItDdB/Tx5cTWCoAgAGDuk1HTKe0bq+qzCelcbWDBXmdohWS+K5Gar+n2s0NFkhejNPBcurw8+ZtIYeVcn4ZOT9p1XtgV0jz0dr5e17bk2+VekxUvH6ndMqzQyVqEI7ND/ivmNw0rTyYlLlJ+T+tSxHxLumTFIOk5bljZL316iq60HVi/J8ReXrEJemfF+Et0Sdizh4ujrF9hy6dRrVLrauBPsFk0qX9M/1err6YMeF343X33Zkcvsf/3Q9tOpPh1w/ti6aPu7KBS6Qsx7x448/6ivQj6D9QD/Sid5+rT48uzb7+uyrHb527exZTYU/fH/t7GFVxcq47z/Ia0ntWfhdK8zvmudVug/PXp/IoMSOF0+cvZ7185Jx156dmVj32Q9nzwJpeQRk4rCTZsr8VB5+PTh5nrw+e2jnz3mad2Wcny7DabvhCNmDaTphJYtT96ADfbf1Jlinbnun6RepdUnqh5uvp1eBdg++a+fTjUzB/uemZdeLgtOyy+Prr0rX7xegXbq1L+BRBQAMEA062N2hlW+nyWzc5x4s0Iq+bo9wWsWZdSqv7vuel+UFmh7W1+Lu/mqZ1mfUsQKRM01/u0I7uweeF7a8MUsmNn+rTPSx7sXF0agf6SvN2JI+ltBefrxNPLtRpso7Lf3hPlXuT9G4kL/xfpt27LKMzdL6/Qrte56xFVrwjkI0qP5RX2qKjzetelCE0hyepoXlHdp+70lnyQ56g12nebp5n+iozvXdql+0qUtCB/dMW0o9WqdZc/wg1M5xet+9THb/y+VHid58obBPNkzxrpXO6QFtv1mhCRyfuDRgqAIABog6fXlTppvXdVCiJuz24bSIKpNma1H8RuZpR8eGOK3TkdluNM/zUYIuyT3YpON72/I4gkzT26pvP7/cnSnP0K69q1D53rg0EuqfzREIk1aB5kXZoxEGw8tjmtoteM9Hbd1zmuVbeR1SsJGy8zmNKQF6S4t+0aHuclvKhZQ+LmPeLa3qBxI5H5lSMTZBK0LmV2IhVtucJ3IWdOCigaEKABggeKLboS8/6aBEGZztw2mVaf1TU35s5f+Woie14TyN0grtOc+K30vfY9QRp8IIFMaqSW/vtjAK+NxdJ/kNj9OU9JQqb9XUHfUkG5DljWM3HfGL+0incUrCWDXP7dHoXCH0pXaUURplvIKLoEW/6FB3uS2lJ1N/kGj/Wn+MeD4ypcPsLqw5/QBcDjBUAQADRI7G74kJ6Af7o6cX1JkfhtMimn8S+IAq9qOLIk0sV6gU+AjF/gCrfRpUfVKgQiANZex1kp+un8mSt+0v796ZIppbDHxAFfNngkTc4kgh4EUNesZUmuXVF06aL2AUXBKt+kVrXdqZe+Xr/eEalUxbsndytWTpivqwqvUHct3L1A1KPytUcY7vgMsAhioAYKDgrXLpddTbhYs0ZZ17a4/gtnthd4qO4zyqAv7TV3vkb6GXRCidB4gnZb3N6UzEvM2uvagmzY/r9Fx7qzrJT07Q4l/7bCCfK9z8NEXbZpt1ZJumPsV4VPlZ7UVV+ZboaON5eLKPTDN8lhVcDK36RStdKm/cpH0dNzR5ROteW/KfyNoj8o7IlIjepvvzbt3KFE9cf7IY5t0F0Q/u6t4c8dcAwMXwDX9Rpa+74uTkhG7cuKFDoN9A+4F+BHoLBoms6jt7Ml/cOr5af1uYDdNJor2EhSdIR7d6C48qAAAAAIBE/9fnJiu08hZGahaAoQoAAACAjuEt+KvjTVXHafjDLPwXvbIBDFUAAAAAAJBJYKgCAAAAAIBMAkMVAAAAAABkEhiqAAAAAAAgk8BQBQAAAAAAmQSGKgAAAAAAyCQwVAEAAAAAQCaBoQoAAAAAADIJDFUAAAAAAJBJYKgCAAAAAIBMAkMVAAAAAABkEhiqAADQYxpbMzT0qEoNHQYAANAZMFQBAKDH5B5sUvPlNOV0GAAAQGfAUAUADBg1WhsaoiHze1rT9wWnVZrx4maoemrfX6Mqe0pF3NqhSmNmy/KZ6nfXDrVH1UpXhk26AU9rfFyCnAAAMCDAUAUADBS1pyU62jimZrMpf3v0QhmkbGiObNPUJ3W/+XaU5kfWhLloqNA2PZdxS2NFmt0o087ugWdYNt5v087ynojTNzRsiBbmRmlP53d8b5sK2uiUcbtTdKzj9m7Pe3GxcgIAwAABQxUAMEA0qP5RX2qKjzdpetgYmgvyWjI2S+v3K7R/qMO0QgsP/M383IMFWnmzTQfSeGzQwe4Ordwtyjgfff/tEpmY3J3ndHyX/aU67lv/iEBxZp3Kq/syLk5OAAAYJGCoAgAGiBxNvzymqd2Ct6Vutu/rn3eIVkv+VvtQgebfyKgYijSxvEPb78X7pwe0/WaFJgLeVJEqfXlTppvXdZAZzlFurCje5jiiyqTJT/xG5klIIYiXEwAABgkYqgCAgaJxSsII1Nv7zT0anSvIc6X5W2UqW1vt5hfcyrcp3l2R2/816Y2d8LymPnm6eX+Hvvykgw4cV6Z1c9TA+ynva5ycAAAwSMBQBQAMDqdVWhwpBLyTyuOZuzNFNLcY+IBKfRwVy9gErbyZp9Jc1LY/k6Pxe2WqTPpnXdXHUxzmOKL5J/4HVF5cgpwAADBIwFAFAAwOw9O0qb2TakudP1h6rs5+ctynKdoeMdvw6sOqJI+q2v4X/9xfp9mY5/hPVR1vHFFJb+Grj6eU11TG8cdVwbgEOX1DFwAArj7fnAn0dVecnJzQjRs3dAj0G2g/0I9Ab8EgAX0H/Ui3eguPKgAAAAAAyCQwVAEAAAAAQCaBoQoAAAAAADIJDFUAAAAAAJBJYKgCAAAAAIBMAkMVAAAAAABkEhiqAAAAAAAgk8BQBQAAAAAAmQSGKgAAAAAAyCQ9/S9TAQAAAAAAYNPNf5kK/wlVIEH7gX4EegsGCeg76Ee61Vts/QMAAAAAgEwCQxUAAAAAAGQSGKoAAAAAACCTwFAFAAAAAACZBIYqAAAAAADIJDBUAQAAAABAJoGhCgAAAAAAMgkMVQAAAAAAkElgqAIAAAAAgEwCQxUAAAAAAGSSSzVUa0+HaGgo8Hta07HZQsqaUdkulcO1QBuu0cDUEpf9UZUaOniphGSp0Zpoj7VDHUyEn52h6qkOBmhszbi6f1qlmb5v5wZVH9l6O0QzW5loyQtAlT2dblwePOYOTpucF2ocsPVc/eL7exqy1DZyfOrhOIy5Pntcvkd1eY+azab326OS6EQDZOz0MXKAmCTas9rveOOISmi/DFCkJdEeS2M6CCx48i7Q9r1ja+zZo9G5AgwjcCVZeeuP0eq3SdPDOrLPyT3YpObLacrpcLcUH4v6eVzUIZAFMrf1X3x8TOv3K/TCmjAcz6u10lGenqrjGQlONHHvqhVh1VptBowr21MoVmt1fdsg87biTa5hmYIrV3eFq7wa6p4ju/RaZdjrIeRbnCNa/7QkTCIfOWg0J0T96Ru6HOG60F68Lb+eZfnteu9RWxsPYNVqs271RBnpFaI381QQ9007OXoR67VwdcCXxa0T735sHSqiZdFpOfVt5fl0TaQZSOt9uO65/IW5HaJVXkAG89ZeSbuudT7B+s0StaclqogF8uYDe2pThv3zfF33Zbe+7H4Y1kXWCdtDa9VThO6FvD9t9BG3rgP6lmoc4jQLNP+GqDJpv+OWN5gP01a5GWe3xc4/oB+6/NFj3YEllz1GBzziWl5VH+5YLvu2KWeLvjR4RNejIU6/FHFtY5OgVyn1fmbr10pGRzZfj5Repkm3VXkUasw3Ma37BbgAznrEjz/+qK/S8+H7a2fXvv+gQxa1Z2fXZl+ffRWX7jNfz17PXjt7WOUYEao+PLt27eHZ6xMZPDs7eX328Nq1s2c1FUx6V8Zde3ZmYp1nZTrhdE28zFfLx9jvBmVyn/1w9kykY2RQYf2sVWZGvufJfv603X4BeSOJrEcTVnXh1rkIB+rKtGV7bR0I62e9eg/I5b7bhp4E60Cm6z8rw5ZMCjd9V5ZAnTABWWWedh6GUHtYuqXzDNVPbL4RdR+SScsQLHMavegh7Y87qi5M2aJxyx9ZH0H9CcabOpD1Y/f5QFsE29cJp2gXq65t3QzK6D4brgN+15eRw5ZMmvbLHZN/QEdknK1fGpV+dN+zr0XIqpeottNyBOs6ri9lmPb1PVgfLvH1aNrbrx+7nZLaxobvR+pVYlsoOZz0gm1l6ZCjPzJdq7wyrN5zdFCQRuZY+UFbdGIf2mT3Y6o3X6guVjP7q2VanzE+uxxNf7tCO7sH/kpoecHfwhiepucbZaq841VP63fLG7OeNzB/q0z0UXlTGu+3aSeQ7sKyvhZPHOzu0Mq3/lZDcWadyqv7IkeN9W4uP6rLIjjcp8r9dXrueXKKNPtpgfI/iVzHJmjlzTYdyNWfzuNudrcfGvUjfRVPdD3u0PZ7rwX89hkep6n7ZNVrnm6K8FHda+k22jqiTWiFFky9D+dplHboy08c6FxPQvz0RaRqIWTcjNhCGv+u6XvzpCw2bjlCdTg2K3cc9iO9TzGcHtD2mxXas2SR9aOvFXa+EXUfh2w3X57auwqV7417fSN71OnLG30Zh+6ns96xCdFPPV3TWG1SvLtCZD3v9HmJpXusX9/5utlWH3HapYtxKESD6h/1pab4OGZrOHW5x+m5tb0s4wxtjHXRfa9B+Rl7e1bViyLQVrItp2hcyNGTvtSnSO+55RlU3uuketTt8tbfMcvdeU7Hd3nEVLQeF+P1qnVbuONgMD5unFHp7vlHnsT49PwT7/Cl6C8h2ugX4FzJrqF6/yblT+t0JKb++RGrk/EWZyu4w3T6rqD+eYfKt/I6pJAdUaImOqfjj8y7BkoM0ri7nXc6V264SMUxvlOkCTFBzW+KbnP4iubJniizhzPxxBBXjzufo6fLjvDaepTy9gAiDcAjqlvbPpF0oSchxpao+ZaoZNKJ3A7LiTYXuuBtQZUoKTeuQ7XtbtJU27bZIUfj94Rh8ENVtEOVXqzaRlkWsSfjaCL7Ket7aCLuBqWbnfeRzsehMMJ4fnlMU7sFL62uj24MCz0XteVtKzt9qtuxTvUh/2iB2ydyd6Y8A8Q2aLLfl86P4BlVZcgl1SPrV5luXtdBhtt0TMxXOtiaeL1qvy30OGM5JqbuhMeZcH/iMvIc20l/OYd+AToig4aqGNx+0IOLNDZWnI915K/VwWmeZDp9VxA1UciOJeGJTqz2PgXSbbpnNaNoNdmZFd5a5r1Sgus3qex5RaKJq8fgxNwVXlsHjNIo4zWKLvQkTIMa14WxqtOQH5aFzkGpM0+L9Fw/tydyj4frsLxhf/Sjfm19JDWsvJ4l63xVbbNToyZM7sGC9JC92mRvxkQbE9llkKP8bTFh2d7RAFH9NMp47Q6lm533kc7HoSgaou9MvzRpqA/Los+MpkQaP4tE3+k037pa3t1Ypw3gdxNaXv6uQUcxWt/3D12Dpid96UqRVI+sX2bXqXPi9KqTtvAWIJaXPEhUf1J01l963i9AR2TMUOWOwysr45XhlXdggrUPxjOrL/zD0qf8gY/ZRkrxbgyqQ7jpvljV12JIHb9HNP/ETyfqAH8kcstrnhYDB7W9VZoeYCuZ90oJ5Na7qIeR6MPq3Jmj6zF6JZyKxLbWHhqNNMRSGU2d60mQ2tMCFUYCehA0bqQBbbUvD7rqKhKuQ5pbdMod/+FJHOwZEAax5cF4IWRwt/67QdV/RfQRZ7suoxQf67pwPozQH01wu+t++sqr4xq98nStE+yPQ8UY98TXzc77SBfjUBDuSyPBv3gQ8Ka1iTTsra1d9mw6dDXWKW+fp2vyaIu6VGjv22TJMWh605euEkn1aOrQ16e29StBrzpqC60zpcn4xY3qTyU/HS/dDvrLOfQL0BmXb6gG3f+3+c9V+asc/lMR6k9WqWdKIuR4u5aFwj/R74/M0+hbf1XW8t04+Gzh21F/O/gJ0ZR3RlV0hgebdHxvW35hzfGF3Sk6TuXJ4C+L1apMyVQiEvL6Xx+rwYEy75VSyC/87Xry6kK3AdfjpynaNvEj2zT1qYszPu22dco/MdKxnmiDhvWABzNOR/15LpVOYW7UORcqkWcQxWCrn2Fvxh4b2UED1xBZhxGeh4AsIcTAPWF5EjZnboqbKTzOAjP4c/5xE4k6rxjt5cge3A+Paf2j3+amL6p2V/2UvG1CFZfk7UlmhaZoUaelxzijF130kc7HIWOE8HtC71iGwLh0tPG8q7N40stuje37d8XigPXTWxx0M9bxOVReJKu0eXxe4HOpk/6iWeqs+Nc+k5i6L11BgmdU1dfwyfUo9csez1LrlyZJrzpqC60z9kI/iEx3nY5Mea102+4v59AvQGd8w19U6euuODk5oRs3bujQxcArosLnhSv0N8/Yq9PtpNgZl9F+7XD12voCYa8Cn8fiv1ms64+9xu0Y88monRD+u6Tun3w6f7Kut6ruv9BCOxP8QHB5Y10/k3l9ByCCbvU2ux9TDRhqG0L9fUcM3KCnSM+A60EsfVyn414YqfIsYkF+EOP/NQsA4sFYBwBoh772qILegfYD/Qj0FgwS0HfQj8CjCgAAAAAAriQwVAEAAAAAQCaBoQoAAAAAADIJDFUAAAAAAJBJYKgCAAAAAIBMAkMVAAAAAABkEhiqAAAAAAAgk8BQBQAAAAAAmQSGKgAAAAAAyCQwVAEAAAAAQCa5VEO19pT/u+MzVD3VNyzUfw96iNYO9Y0BRdbD05oOgW7qQ+pbx3VZo7UYXe1r5H+rn/vhmijhoOhbg6qPuMxDNLPV0PeyAutZ1sa9C5DptEozV7F/XTrdtN1V1kVO5yL0LYt12H9kwKO6Q/ObwYmxQQe7O/oaAHA+CIPthwqtvG1Ss7lERX33ynP4iuZpnY6bTdp8kNM3waUyPE2bzU2aHtZh0COKtCT0fGlMBwHoQy7dUC0vr1B5dV+sOyxOD2ibVmjlvg5L1MpEeX9cTwh7yma2qla88g4ZjHc2HOd7VuTv6Vpo9aO8vibeelN6nqrW+5yunV5gtSY9BlFxemW3ZTxb4qfz4bwLc8JgXy2F08sEbpu4q8a4OFVH9rOOF0/W05qoD6vNHlXFWzHE1qvA8xaqNOr6divi2lzyPtxOiqAu+XHt6uca52+978Q7deHWcUhWQ2QdsbwFmn9DVJkU90W6/yFO3+LqOKKtsuehDMA6MVkhejNPBSGv0cPIOpb647eVfMaqf6knps5T1pHbRxS2vs1shbU0Th/DepW2D0a96+pkpzKpvmyPi4E+2aKevJTinhO4/SWQvkd82VvKeKXgejDl09cRc42h03YP61OGdVHqVokq7CQbcd/xsOcORz+6r0PQAWc94scff9RX6fnw/bWzh9Wv8t9nNX1ToO5/OHs9a+5/ldf8rOTk9dnDaw/PXp+oID9/7dqzsw8qqMLf61DtWWycvJ59LVJXfK0+FM/6sjjpBGRQzwZl8N+V8SbtgLyuTB/Onon3/HxU2EnHizs/2m8/JafXJjJsyuiWwQ2revTjAmWUdWWnq5438eFnY+o1GKfTbVWXQZ3gsJJFlcF/3y2jqysRcYn6GS+no0cC+11fNsWH7610DJH1YMIt2oIJvh+qY0uG4LMXQCfjjixDsN9H1rFbP6odTfm4jfV1O3UUIJi3DMfqlTsGKXl8vXJ1ydXBoIzBd+18upFJPevn46Sl68KVya4n+zqpPq0yc9jWV0mg7IFwoowZp7Nx2tUJv+0i6mVQdFHK5Mc5BOQLv2fn2V4dDiodjdMWmTBU3YnDKJA9SXw9++oolKtkXjoaW1m+inRsZJxUsihFtZUuIt6S009H45RBYA2uoWfFU37ZgvlEdDbn3fOh7fYLllfw9eTD2YeauBMV55XDLrvCKWNwImKse/azSfUaVW/uoBZFRJsL/flQ+yBSTmqnoH66ZUzSz2Ac48sZriu/Luz844mrByN3MP3g80l1HG4ru/9cDN0bqkl1bJefy/bs7Jmou2DZ26sjm4i8nTqM0EdL9jjdkfci+qD9fPBdWQb5fHcyheqC4xLqSY0Z4jJtfVrpxRJRdjvNJBmzTveGavwYNki6GPmuQYz5tqyu/MH32qnDwaVbQzUbX/2PTdDKm206YPf64T5VlhcCZ5VylBNhf8uH3fbpyA3zGTR/20FubabhtE5HZmtAvyu3DDug/tlsp5q01JZrP9OoHxHdzouW8ckNF6k4louOy48Sfaxb29btckT1wPZcUr1yXPlWXgU0+VtlfRWDbPNRytu6J/SnOFZ0yhJG6ae/XdSr9q3TF7M1b8o4Mi+0ksnR9MtjmtoteHFR2+5x9bDzOd2W1FXUXZekOrb0lsel+zdp9u4KVd7VqPF+m3aWJ+S53s7riPMu083rOijJ001z5KnDMYjbVvZBfbzBvFta1Q8kcj4yMWFd5H7DY4YOahLrc2yJmm+JSl6cu03MnM/4c9UZLF1MRIz5YhbzjwykTrOFvKBjMvLnqYo0sbxD2+9r6uOOu8HPOpShuUjPqdnkDz/2aEXHtEIZt/s0Id9r0vGGMVZUnvNP/DNnja0XvgE8nBcmywrt6fe838tpZwBMAxsG5Y1jNx3x6+cD7kkDf1Rc1OTRHgEDUpBUr1HGmJwAk5BtHjaIW6MHtXcTWoZjWk85OBWF4bMzt+ifgTqt0gtvEOdBrkzrn9zymQ+fGuKd6Zfm3h6NzhUC58Li6yFovMZxFXXXJbmOzSL61bsjKt8bp9z1m1RefUGLuzveONV5HXHeO/TlJx2U8GSnLzscg7htZR9c3nPfE7/WH4+dj0xMlC5GkVyfDWpcF8aqvne8cUQl59z2eY0/V53B0sVEpMNhkeg7nd7btNZGC3lBx2TEUBUT9sw60VxJrJxXaCI4wMuV0wotGMVm74a6aomclDdm1aQjhi77rwkUHwuDgvyVXuEzq72BDdkKlQIHxt2PWdKRuzMlyuYaI/yhQNCo6CvkBD5Pi54XTy0mpFdPx73yylejV3NmYs9R/jZJr5RCxblU6IWXrjACn8x73iubpHrlODYoog3AOMKLl3RtzoORMHZmtIT8MWDawWlsSUy25HsFRr7Q6LKOE3U1fk/EOYspXnitUU2UZ3GkoOrbI7iaj6uHMk3dSTeUX0nddUioYxlSOlERuiPrbHicpsRktGONU53XEeddpsoPdt7WYjnFGLQz90rLKRATbMm0LffB1ZIlg9U/E+lepjiULloyxdRTUn3WnhaoMBLwogYN0MTxB0QzWLqYhFzUWLu6tXd+jsm0khd0SmYMVTUBiKnWMyothqdpgRVSKLeczN9N0B4bFMEBKwJlAJvt0UWib9flYCk7iTCA82bVxL/HE+INf7IvPm7SHvlbUCUR6mi1xn965dMUbXvGyDZNfUrnlTKDO78XHNAvF/6zJ8qLp+qnRPTWrJJVHHnbqSrOlLf4eE8OXCpun256Xm7DCk3Roo4v0PxtUe+PIyaZpHrluLejvgH4RBgangGoPaDWAGeQbX7bX7yka/MizdrGpshrQZSpMml/LRpHg+p5s1PAvyWSWqg9nrkHm3R8b9tfTO1O0TF7++Sf83Hr/2jjefjP+0TWUfyfAQrpWxe62y/E1rGOZ6+379FXkxHdv0meT7qLOuK8bX1bFJpv+29ajUHljZu0r+OGJo9o3Wvb6D6Y5s9xdStTLLKe1unIyBRXTwn1yXlLL6rOuzA3SnuhsSF5/AHRDJQuCpmkU4J1LGDY5h4sWPPTEO3fFfMVH12ImC+CtJIXdMY3fFBVX3fFyckJ3bhxQ4f6AV7Vlahyf52OtWKzJ0VOUqkU/WqRmfZj78nIF1qwDIVzgfPZzNNmlAF8gbAHgD0P3qAuy59sTAKf/ht3egfrzotbx6kmfHA1yKq+QxdBEt3qbXY8qhcOr/Jc75lcnQ+gkTp4iEXKyDyNZmArkD0CTdvzy3K9hZEKAAAAMAPsUQU2aD/Qj0BvwSABfQf9CDyqAAAAAADgSgJDFQAAAAAAZBIYqgAAAAAAIJPAUAUAAAAAAJkEhioAAAAAAMgkMFQBAAAAAEAmgaEKAAAAAAAyCQxVAAAAAACQSWCoAgAAAACATAJDFQAAAAAAZBIYqgAAAAAAIJPAUAXnw+EaDQ0Nid8a1eSNGq3J8BCtHcobHdCg6qP49xtbMzT0VOUmOa3SjJf/JcB18KgqpDaoOui8/OdASEbQCbWnQzSz1W0tsn7MUPVUBwW9STeeUJ9ph0TdufiygMFE6rCnh2G9A/0PDFVwDgiD8ocKrbxtUrO5REW+s/WCKst7ItykpTH11OBRpKWBLj8AAPSW3INNar6cppwOg6sHDFXQOZ7XlH9mFctezwLNvyGqTIr7YqX7a7HiLcztEK2WrOd8D2uUl5W9L17a0uPDz7vp2r4Zfj6ch6LOK26dluvRSZbBJ+45vXrfsupBe6fkKn+yQvRmngreO/p5r/z+u55c0gts8nLL4ePK49dPoHw6LZm3k656LlpGxk0/qbwyP1sPOvXOXTCy7EZmR5eU1z6uPPHvMQdWvcV78iPTkO1Togrt0PyIuO/km5BunL7I+2uirVRefhtGUXfK7OtQeAdDyi5ki9cdQa/LArqg3T7r9n17PFEe8WpM+yX1m2DcmkzD1pnweG9w5XHjFEYnY/XO0Su3TDaRMsh68ssp87L6vXxHPhuu5yhZQYec9Ygff/xRX4F+pO32O3l99vDaw7PXJyr4tfrw7Nrs67OvKnT2evba2bOaDEhk/PcfdOjD2bNrVnwgrQ/fX7PSUuGHVQ6F07Vx8xDIdM27JmzySZbBJ+k5FRdbrtozpxwqPu5dQVAGfv/aM/Gki18fig/f63cC+fn1Eaw3Dut0I2VMWV4ZZ7dV4N0LoJNxx9VVVZ+mTPZ1sDzyPas9bH2T71lxbjo+wbzdMOdntb8gMd0kfdFtY+tJFKpMVhr6PVXmFv04pDs2PSwL8Ghf39vps6q9o8fL5PZz2tJJU8cFdT4Y773rysBxkWOdhaOTMm/7mYSxz8KVwQ6778v7Xvp2XoF6DtTBoNOtfQiPKuiQcXre3KTpYRXK5UfVRRoO96lyf51mzRb48DQtLO/Q9ntep9Zof7VM69/5WznFmWNayNe9VWx7rNDCA53ScJ5GxWr7y0/iOlEGi5bPCVln+HADk6eb94mO6mkltd8Vq/X327SzvODVKY3N0vr9Cu073rAG1T/qS03xsW6HsQlaebNNB9IT1aCD3R1aucvp1+nLG75nyNH0S3UkI0Q75R0epylR3pVvTVu1W/7LQNeLJzPr1zqVV/eF5jUoP9Ok5mO3PRX6vbd+veXuPKfju6yxivLGrBeXv1Um+hjU2XDeuQcLVptFE5dua32xdD8JOw3R3s83ylR5dz7eoM7LAjonfZ8d/65Jm8546RLdfkn9JjyeS53X1168Nw6KsenbFdrZPZDpxo51qUkz9gVlsMeEHI3fM/2Bn1uhFTEeyjnktE5Hoobynjx2Gv0wFvYPMFRBZwznRBe2tnR4GzAljfqRt2VotklKqzoy1PkFIq/iWNEb6HpBogwWaZ/rBfXP5uiCyUsddXDhgfaYpnYL3nP+VlaRJsQgOr8pBtXDVzRPxuDks7F7RHxkQr8TtxV8keW9HNTEJY+PmDKOzIvlCyN0mvXO2xa165/fK9PN6zrIcB8QeulOeklEpCEnND3xtUk6femQkJF9vpxrWUBKlP77R1N4Gz0NSf2mBXK811v1pu29uSRprEtLirEvcs5hI/2I6mIBKZ0w3B/kIv4mzd5dkYarWlxNtNH/QafAUAWdIQelRSKxAucPpJpv/TVyK2TH1x9W2T+5krcGiPMkUQaLtM/1AvZQlDeOQ3kFP75qiLqZfmni92h0ruANvsYTsPauQuV742KoVzRO8/JDLvnOp3U6mow+A3iR5b0c2DAs0/ont3zqoz+98Ho3oe8d07rnGercoPSJSiPKeE1HWn3piNt5T3cugnMtC0iJOg+6SM91/e9Zns8kkvqNXjw/8c91yg9r9bUa71doz2pz+dMfRyWNdWlpOfZFzTm28ap3ql69O1Jj6vWbYox9QYvejhU4b2Cogo6Qnjdrq64mDKPUcMdfLVkDjhog1Wo5PLDJA+uhD1e6JFEGi7TP9YDcnSmiucXABzHhD1UWRwqB/C1DZ5i39ipUWbW2fcWioiDecQf4gAfBcIHlvRx4K48CEyd7kPiDCWU0ett3pwe07XmG9BbgZODDiuAHQYnoNH4ITNr3p2g8qi1akEpf0iAmXTuNxTkzAecof5usYwA1esUfLJ4DPSsL6BxpnNnjxn5Kj2pSvxEj+mNhuJK/S1P4zKapgcf7CpWsD4+88b7VWJeGVGOftROlqW3OW95SFV9ZJZq6I+pGjrE7tPNmhSawkLoQYKiCjpDnjKytuv27YvXNW8apvnQMbseUiN76Xrvi4ybt3fYHthLt6RW2MRb4fthA4MmurGVqPcEly+CT9rkI5EpclSOVoTc8TZufpmjbbIONbNPUp4BXiZ/RngUjz9HGc+vclqojsrekxpa0J8GkO0+j5qxlSMYuyuugvSwZ/PKV/5zN8b1tf+LcnaJj6VEt0uyGMGJN/T8hWuDzmtoDI9/bOKJS6L30RObt/WkdPWFy/mkWZmn0RZNoVC8LI/GJSYN1w0+j+Fj0a6+f79NNUR8eifp9fmUB54RogwU2GmVbi9+7CdqTbdhqMZbcb9gAzpudN/49nhA3fYNTjvdilFc6Zo33Lce6KAJ6lzT2WUTK4J25FfF32bQ2Bq4eY+/fpDwHwbnzDX9Rpa+74uTkhG7cuKFDoN9A+10V2AOqjMtBmOSht2nhhcMrysd9RAf6gv7TdzUe8QeaZkHGiyZ3gQauOt3qLTyqAFwRlNdMTArLe/BEAYfa0wLN38aHH+Ci4R0ad4esMDdKezBSQRvAowokaD/Qj0BvwSABfQf9CDyqAAAAAADgSgJDFQAAAAAAZBIYqgAAAAAAIJPAUAUAAAAAAJkEhioAAAAAAMgkMFQBAAAAAEAmgaEKAAAAAAAyCQxVAAAAAACQSWCoAgAAAACATAJDFQAAAAAAZBIYqgAA0BE1WhsaorVDHUygsTVDQ09rOpQVWP4Zqp7qoKD2dMiT05Y5Xv4GVR+p/4b7zFZD3wNZRrblo6pouexw/jKl76u9I9y/QGfAUAUAACApPm5S83FRh1Jw+IrmaZ2Om03afJDTNwHIGkVaEjq6NKaDoK+AoQoAGDikB2dIeQKDnhzpVTRxAS+iHTezVdd3fZLSJap73kf1vpOr9PhExp1WaSYmLjk/g5u2LJNMs0QV2qH5EX2PnxTlS+0ZPVyjockK0Zt5Koh0jbcqViaZ5xpVdbx8PnDP3LfTiC1vrLcqoS4HEUd/1uhA3/Zw4q06jWiboI6lbWv+xet0GzIZL+WW0D0Tn9BH/biwdzO2nzt5p9OfpDGD3sfJ6u9GBONkvT6tWvGu7G4/WKM1zj/4vokPtJkjq3g3IG0mgaEKABgoeBAvzI3SXrNJTfE7vrdNBT3I8yBeoj15n397ImQmAH6v9FF5DznuOW0LQ89Hprs75cXv3RYGnD0xrW4Tfafimp/WieYK2rjjCatERxvHVtyinphE3JN5Gn2r32se09TuKzm5tMxPU3tqpc3P0Quq0jRtNvdohcq0/kncb8eLahhboubbFaL7qk7YWxWUSdatM1FWRK09l3G+d8u/x+lVJoeo8HlBhe26EAbEotVuzU9TtL0ZLG9SXQ4iwkAbsfVngr7M7eg4ARtlI9s0xTrA8W9HxcLFNl6sthG6t06+jrXWP+tdpx26lUksrj5P6HeFDq+WvEWS7L9WH+X+G2Vouv1clOujeS6+v8WRnGeSrAWav21kcOMk1nhxvEE0/0T3I7FALMyR6rf87qebdLQq35Aktot415a1+ZboRQpD/NI56xE//vijvgL9CNoP9CPt6+3Xs9ez186e1XSQOfl69rX24Yz/9+zaw7PXJ/o+c/L67OG1ZyIm4j35vLkXla55V8RWH55d+56vfPx7In87T0cOOw+b5Px81HMPq1912CZc3g/f+8/aMkfJL6k9O7s2+1rkwsTVkc4jSr7QvaBMVvk5r1D5giTVZf/Ttr477aOQbanvhdvVasPE9mqhf5HtarVjpzLJdOz2tPU7oq1F3/4g+rb4fysu4jlPJkvOVKTNk7FlDeqpW5+hOrB03+6jBr6nnk9uF7ueL5Ju7Qt4VAEAA0Sdvrwp083rOsgM5yg3VqTiaZ2OaJTyw/o+M5wXd46oLuJC71Gebt7XlzJdkt5Ab1ttZJ4sP1E0H+vUIJG/yJM9Iepd3pI38Nm6PSIrXeV1SZtfjqZfsleo4D2XZiuzM+LqaIe+/KSD3SA9uEQlU97Ibcukuhw8GvUjott5USs+ufyovhIt9llozGpJ1xX/CjQv9CoZ0x860HfB+cgkiOy/OSqKvu2cnpbP6SMvJg8+wiKJ628xpM0zhNJTeXymnTK2JLldcg821S6HiQscC8gqMFQBAANEguHkGaU6zHgTUdR7alJQcLzeRjfbavK3JKa+BOSErc5ULnpbrLwl79M4zcsPQWTcp3U6muTzaunza4jyTL808Xs06h056DVxdRQ0XjulQY3rwljVZT3eOKJSaKJNrstBQxqAcjHkIw1FTf5WmcrWsRDzS/7oyPSHDvRdcD4yCaL6bxTyuRX/CIn5vZyWxmV0f1OvhkibZwh9PvWdORZwTOveojeZ4t0V2rGPs5xW6YW39d+iXU5FrQtj1dyPOy6UNWCoAgAGiByN3ytTZdL3xinvG4eLNLG8Q/PWucfa5jztLE+IGP3eD75h1Nh6YXnrON46Rybw09WsvnAml8W5HVq5K6YPaQyv0IL5av5w30+Xz6ONBA1LNhRS5MdwPuJ914vaK8MxSEwd3Z+icdvj1CF8pq/gnFUUBDxziXU5iIxN0MqbeXrl6U+NXlnnQXN3ptwzvHw+VBj6vr5VrDOM6vym3x9S6F8UXcsUh+6/lkzyw6HQYoafq1DJMtC852L7m74MkTbPIGoBtz6jzfrTA9pO61EdW1JnVo1HeOQLjS7ruMR24fYTfSggW/lWXl9lFxiqAICBQm5/sTeOB3nxUx8eKI8D/3km+QGVjpMfXOgPjfg96YHQcYs05XjrgttqdrqSZTEBP1FxvB3HH2xIL9HwNC3wxKnfYy/LHk9+bJTxdrf06tjvqTRb5seItPmjKfaiyveH+EOj5zQtJ149yfKE13JiTUekTNpT1S3cNk678YdVwY/AkupSPzJYFGnJ1p+hfbq5UdZxAtYP/ijNM3rUR0y+93JFaPmifld//GP1h5b6F0m3MsUj+6/VR2X/jdC/yH7Oz8X2N+0BjfA+ps3TpUiztrH5hGhB1EElyXvr0aB63uwYKG/phLhrDM74duFjQAFZP67T8z74s3Lf8EFVfd0VJycndOPGDR0C/QbaD/Qj0FswSFyovrMnc+QLLaQyPgcAro/NPG128hcyeoj8KwOrvL2/qRacsp3YmNfhDNKt3sKjCgAAAAAQi/6TWnxU55JhD676k13aGyu9vtk1UnsBPKpAgvYD/Qj0FgwS0HfQj8CjCgAAAAAAriQwVAEAAAAAQCaBoQoAAAAAADIJDFUAAAAAAJBJYKgCAAAAAIBMAkMVAAAAAABkEhiqAAAAAAAgk8BQBQAAAAAAmQSGKgAAAAAAyCQwVAEAAAAAQCaBoQoAAAAAADIJDFUAAGBOqzQzNEPVUx3umBqttZ1OJ+9cRdx6qD0doqGnNXnd2JrxriWyvdbEG9HY7w4uDao+GqK1Qx3shl70D7vNWrRf+7DuiDYXP1VeVXYOz2w15BMdcbhGQ4+qIrXeEtLnloTbsv00+hMYqgAAwAxP02Zzk6aHdRhcOsXHTWo+LupQe3TzLogg4/2jsfWCKst71Gw2aWlM3Dh8RfO0TscivPkgpx4CfQkMVQDAgOF7XuTPeCQcD4/27G2thZ+TuGnMPF1L9DZJ715kOnEE0rc8QpzWzFZVxWtPj/SseM+v0VrAm+jEx3iHlHem6nmhOJ2a5ZUaCpZP1ld0nCOjl5ZFwrs2Kp2G/Lcwt0O0Wgo9X7fKFq4nN2yeGwQvlCixqP8Czb8hqkyKMot2/7WsK7ctZL1InYjQefvZkAfU1dGQpy8qjUi0jkX0r7An1NZH/x3Oz9GP/1OUYbJC9GaeCuI5I1tSP4iKk/ci0nGI1eWI+ozSO/bYBnRayRKsa7ctfdnrHfXRvuKsR/z444/6CvQjaD/Qj3Sitx++v3b2sPpVhzj88Oz1ibg4eX328Nqzsw/q7tmza9fOrn2vQib8rMbXX89ez9pxKs1r13Q68llzreO8Z9W7dv4K+53AM1KuQHqenILaMytvgXzez/Nr9eHZtdnXIlWFK4+PfC6UjylzIJ2ATK1kdPJMfDdcd6YeZP623LqcSfVk4mT+gToIt0H2aV/flS6ZNgyH7fpWOm7XsVNvsn7d/uHXoZWO1MekttdxcdcMp2G1l8FJS+YZ0E9bPwJpJPUDpft+/k5aMbJIAjrnhoP1GS+vq4/BNjKE7yu5/fydMgZlC7TLRdKtfQGPKgBggGhQ/aO+1BQfx21nlml9xmwd5+nmfaKjeoPo9IC236zQnrWtXJxZF09HUaP9VTudHE1/u0I7uweONyfI+HfWduVwnkbVlUd5Y5ZMirV3FRF+7pdheJoWlvW1yOVgd4dWvp0WOSukrKv7lrfGYnnBS6d4d4Xo/jrN8jaqIJcXUrz5QnVx3Xi/TTvWsyrPHdp+75fKljF/S9TOx7ryUqV4Nz0rtODU0w59+UkFfXQbfGfXwTEt5JU8g0WOxu+VqfJOt/7hPlXuT9G4p/+2rnLf2KOVN9t0EPTEyffW6bm3pV6k2U8LlP+pQY3rs9RsLrlt34rhcZq6X6F97bGUOn1v3GsvRYPyM/ZxDtUn05HUD3TcW1/m3J3ndHyXNSeZ1rocM4YE4L7mjQl6fJnQ/a4lVv6JfXRsltatOu4nYKgCAAYIYSi+PKap3YLeDovaXuwhp3U6EsbT/IjZfhM/3kpMJEc5Mbn4W5ElavVGPHX6YrYLTf4j80Ki7qh/3qHyrbwOKdgg2fnMU2Qy3bzbEbINRinvGWOC4RwVx4oBQ2gwyN2ZEgbaC6qeNqj6Q8Ux3qIJG/+N+hHR7bzzXm64KOqUdZfv+scC5JZ8S7QB/UOVGqdVerFqLUA8VL9QW+WcttoKT0dSP+C4Mt28LgMKUYac0A/fZI+mZ7o8NiEWBPP0ShiRtc15ImuR1yksmzoKYcrcTn1lCxiqAICBonFKwlhtyo8ums09Gp0rRJ89i2NYeX9K1nkznlwip2Pp5VuhPZmX9XuZZByoSX6RnnsyruiYKKQ3Zm7RP38mJ3p9Lb04ZVr/FMjf8nh1QtRkHDVpR9HNux0h2+CI6kGv4KBivH6br1J67gJGnEB67j5Ge6TVAmufJrSuHW+k8KgKcg8WpPf21SZ7Aici9FOfT303oXX4mNZTe1ST+gHHRXniW9M7XS7SrKinyrs16f2fupO8dEgDy1beOA6UV39o1mfAUAUADA7CiFscKQS8qOGJOBn2ygrj0fJWvBCmZPR0XKSJ5YBR6328EoP0AFoeJd5mVVfRjC0JY4B8r+3IFxr1tv7ZUyXinvj5hT/UaB/fK6dvSOM43QTbzbudwW2w49RByza44sjFzarQqpDnTtTTpq2rpcDRAI32AC56/cj/+Ekaal66als9HaqdKmKRZR8/8FGeTy9ObpGry9Yk9QPtzZ30+0TaPtJLXVZpVahib9d3AadHgQUsf1jV1qI8I8BQBQAMDsP8J3aUF1UZmSU6ss93pkUM9sZjxL/NmZviZmB7WcN/JmmPfKO2JEKJHlXp8RLGrX6ePUh7bGiNxE2cwjjIG+8r/5ZoQtw1Xp3cg006vrctv1rm9Aq7U3TcpUdV1uOnKdr2jONtmvqU8k8XdfiumshVPbY72co2uK2+3Ob3W7bBlcEYYVxuS3/Y0BRLq7BBJQzBW/uqXbiePq7TcWQ9FWkp0I/orTpXzWc/ybu/SPQtnwUtBRaH0ahz0RGGsYS9jtaC7AnRAnshJ9N9zZ7UD2TcxpHX55w+oo1yfi9Uhm76QZBh3qkhWrkb1zNj2jKOSNn606P6DX9Rpa+74uTkhG7cuKFDoN9A+4F+5FL0lj0TfL6N/2aj/rCDPXTS+LmEv9sp8+aPhcwEKeXrYsIEmaVX+s4eQ2mMOUYoe0Vf0M1L0xve2i/Q9r3jwfy7p3z2dpJor9tFZAbpVm/hUQUAgHZgTwWfj/toeUnZ83RJf1xe/mH7t6PW1v88jb6FkQqiUFv0hTly/grCpSM/kCrIP9Dv/yWBQUGfvZ2sOH95APjAowokaD/Qj0BvwSABfQf9CDyqAAAAAADgSgJDFQAAAAAAZBIYqgAAAAAAIJPAUAUAAAAAAJkEhioAAAAAAMgkMFQBAAAAAEAmgaEKAAAAAAAyCQxVAAAAAACQSWCoAgAAAACATAJDFQAAAAAAZBIYqgAAIOH/DvoMVU91sMc0tmZo6GlNhwDIHpeqo/zf+39UpYYOXjinVZo5x/4POgeGKgAAAAAGm+Fp2mxu0vSwDoPMAEMVADBgsOd0iIbMjz1I0ptSogrt0PyIvsdPPh2ima2qep69PfK5NZGCoUHVR0O0dqiDAumVMmlrDxGnU5jbIVotifvaaxPyINkeXX29JZ4R6cxs6adk/jpteH9AS6L1KEpHI4nUN9V/PJ1k9HOyH7Beh95hXFnkT/czKc9khejNPBVMOgG4D/np2n1QyWPi/HeDZf+17Kuux9gqS7BvJ/U19MMLBYYqAGCgqD0t0dHGMTWbTfnboxdUJfam7NEKlWn9k7j/uKifJtqZ+0IT/OzLacrpe3HwhFuYG6U9nfbxvW0qiImx+Fhcb5SJlvfE/bReG2E0f56Q6Ww+EDnz5DiyTVMsH6f/dlQY1faEDUAUrh5JHd2domOto3u3hXHoGG+aWH0r0qzQ5Z3dA8/Abbzfph2h20vXxTuTR6oPiXeON4jmn9iGsC9Lk/ubWLixYZl7sCnSXyG6vy7lWhrTjxuE8Vv6qOKULEQvpKHMhmaJ6K2+/2mdjiZtw9Eu++/Q9Lcij9V9v88c7lNF5Pmc+5eNLPs8jXrpTtG26WvohxcODFUAwADRoPpHfakpPk42HMsbs2JqTkODDnZ3aOXtkvd87s5zOr7L02knCKN5xs9ZGQMLvqxjs7R+v0L7Ed4nAHxsPdI6+q2/6CrOrFPZNt40SfqWe7BAK2+26UAahDrNu5zHOD23FmK5/Ki68LBlydPN+0RHdcszG0OjfqSvNGNLavGmDc1ZY9gOT9PC8g5tvzdpun0o2Gdq7ypUvjceWoB6hreXrijXpwmRX3K9gPMBhioAYIDI0fTLY5raLehtu8AWZlfU6cubMt28roPMcI5yY8WUhm4y9c/m6IDZcizQ/BsdCUAqWEeJKpNGh8RvZJ6EZoVI1rciTRiD8PSAtt+s0AQbdazvwnCVW+z8Dm/n9wD2uMrdCSOLPq4gDVh9XMDIWVpV70STo/F7Zaq8Y7O8RvurZZq6EzRTVdnLt/I6xIhyDYt+LMqIfnjxwFAFAAwUjVMSxqretmvu0ehcIfJMXPuwh2iHvvykgz0mf6tMZevIgvmFtkkBiIV1VB9vcfTI3wUwtNK34t0Vuf1fkx7GCfW+PJ+6SPSdfp6383vBqTBL+XiAlsEcV5AeW3mcxpePf9LbGkPuzpTyIEtv7BSNR+ymcNl3Ptd1yAX98OKBoQoAGBxOq7Q4Ugh4UQNe0CSG8zRK1jbf4SvLm6K9NZP+eTX10UrM+bXrN6nsbZ/ysy9EyvHwBEtzi/75Oz4rNxT94QkA0bCOuudG43S0pb6NTdDKm3kqzZltf+3htLbFeWu9expUfVKgQuCjL+nxZBn0OVeF9XFUHMPjNHW/QqXJ6G1/RhmzVrpW2dEPLx4YqgCAwUH+CRrlRVXbdvxh1XM9sartTPnVf+yX0EVaervib52+u0nr93WUQG5RbhxRSaY9pD9aUd4qM/nxfTmpCVme88cmnJ+4t0hTlOh/YtnlRx06b/1Bx9KY3mqN+iAGgADBbXRbRx1i9U3Hy/4i/rHOiMqzq9a2+P7dPWnMRn6sFUQbviyXa2jycR3tRdXp8odV6gMo0R9FfybvKIP6sCrJo8rp8YKSRG9biHtOlp0/zNLp2mVHP7xwvjkT6OuuODk5oRs3bugQ6DfQfqAfgd6CQQL6DvqRbvUWHlUAAAAAAJBJYKgCAAAAAIBMAkMVAAAAAABkEhiqAAAAAAAgk8BQBQAAAAAAmQSGKgAAAAAAyCQwVAEAAAAAQCaBoQoAAAAAADIJDFUAAAAAAJBJevpfpgIAAAAAAMCmm/8yFf4TqkCC9gP9CPQWDBLQd9CPdKu32PoHAAAAAACZBIYqAAAAAADIJDBUAQAAAABAJoGhCgAAAAAAMgkMVQAAAAAAkElgqAIAAAAAgEwCQxUAAAAAAGQSGKoAAAAAACCTwFAFAAAAAACZBIYqAAAAAADIJJdsqDao+miIhobMb41qOqZjTqs0kyadFs81tmZo6FFVSCiwn5XXM1Q95YCSf+2QrweJYLsFfqbeOsCp9w6pPR2imS2VgkzvaTtaVaM1r31VWu29r+mpnrBMUe8Pqv51h9SJoM5abd4zHB0I0wtdzyp2H4yi435lc7gWqL+4fnKeqDxZhzLbD6UeWrrebb3H0JM2vYrY9gPoiEs0VHmSLdD2vWNqNpvyd7xxRKXzmDA6IPdgk5ovpymnwx7D07TZ3KTpYR0eSHI0/VK1Gf/2lsWt5T0vHFlvKYmt90ui+FiU53FRh9oAepJt7q/TsdFX/r0dpfmRHo890IFYOu5XiRRpSbTl0pgOXgCNrRdU0WPfReabGjaSRrZp6pPR9WNa/1g6lwXS+bQpAJdpqJ4e0PabMk3d8U0SNlL2NkaJfjJdyF+tBlesrlckYbXCq27vufBEVLfTsTpvrCfOWx2xbAWaf0NUmdTvyrzcPJScg7Sa0t5Wp+5UO7KHRdVr1fHI2p6XYL077ewMrgGvbsuVvC+Dh/Y0JHlCwt5ZW3ZuV1sOq+2T9EQ/Ij0Q8j3xC8hvx81s1fVdm/h04+sMxDI2QSu0Q19+Craz6btKf0y9Gp1Rde32b9l2XO9BT4rWN5XGGh3o2x5OfNQ4Eh3n0WKs80ibj6M7XH7x7Jafh+wXdp6hPngQWWeM3a/UddV61q1Pt+wqTt6brBC9maeCl7aW0SpPXB+T7zt9uf364jQKcztEq8LwS3r/Emm836ad+1M07i2W2MmwR+u3xdxn5I3TB3l/TbS5qv+1Q9UH4sZQu02ZeF2KbxfVhnFxPvFpx88LrfTMJ0kGN87WaUem2LQFCf0PxHDWI3788Ud9lZavZ69nr51du/bs7IO+4/Lh7Nm1a2cPq1+t8MOz1yfisvbMee/D9yKd73Xo5PXZQxMnr/U7gq/Vh2fXZl+LnAUyzk5fy6PTkc/GpmnyVu88q8mAhGUJpmnHZ5X228/HqX/GqSMBt5eud1mvVpuYdjB1ZNe7etZPx45z81S6YtKw28BpR0sOxonzsPSMQ8G0AnHXgrI7+pWsJ37eKt7JJyinlY9PON3Id63wVaMTvY2sEzmmqLZV9W3paEC/3HBUnH7X0YHoNFx9sfK0x7hgf+JwUG8D78e2u3zOksNKO1l3tLwmX51OMN6kq/qGJbNVv4zdr4LPOn3DrgdBKM4po1X3HLKfFdjhYBsn15fVLlH1bOVx3rSt76ad4mQMli+kd/Z8FqMjOm2uX3es9Nst+Jwvjzv22WkwH763ZNOkTztZJ91nfeJlUOn5cZa+JemprEe7TmPq+wrTjX3BXOLWv9o+Vtv9ZnVhrcgO96lyf52ePzAe1yLNflqg/E8NalyfpWZzSdxR5G+V9VWQcXpubb3l8qPqwmOFFrz0hTzfrVN5dT9+JZSC4t0V2tk9UCs86TVeoYksbgmdJ8PjNHW/Qvt6tVl7V6HyvXF/O395wd8OHZ6m5xtlqrwL1nqDDnZ3aOWt3865O8/p+C6vaRuUn7G3mfJ0876+TIK9Zm+26UCuYHX6d9vcqrJk57bmLeRZ3b5Sv958oSj/p0uN9lfLtD7jlYymvzV6o+X61j/+kHuwIDQ1DTHvemUGHtoTZ8adockjWv9kbdPbOqrHItPOcizydNa+FshnbQ+WJiYNg/R82XmOzdK66UM/faEddVfBRwpCW6ytxjqFymfP36YWffX5pwkhXxrdsXRW9nExgnrPqz54VPd9W+WNWa/v0tgS7S3v0PZ726/mYz8rx/OPdaHNQt7UY32QYB8TNT4TGN+t+o7ru6F2EXW/kFCOzCGPn+jtfk/fLa9wkt5J7DkyqBNxY6i+Hzl2J4999Y/6tqb4OHh0Jint1vNCnJ75JMjQA5ukdX2DKC79q395JtGcE/u0TjRXkMZqo35EdDvvDZpMbrhIxbGc+Jfv+i54uf0ShXguJxTP2wrgraKWHPlbIp0gjaF5eiUUr7Y5T2QP1gNDjsbvicn7B7X9+WLVHewiCQ0Ydfrypkw3r+sgw+05JnRApJ+TA4fZdlRb4K0p0oSYZOY3xVR1+IrmyTYcLpDTutAyIceI1ktHNyPKndYQj31XbWkDCzHhOGdUE86SRo5FbNhonc3dmfIMoNCiTBObhqb+2WwhG52wdFoYec23ZC3oI7YVU451nE/5Vl6HGO5LPK5ejO7sfG69jLNJPdYHkX1slPJ2mw7nxZ32xvdwfSkjpN1yXC7KKWR0/XiDvPPYiXoXiRpDt9lQj3XEJIzdiWMfy3lMU7sFL845ZiA5j3nBJl6GXtgk7dc3YC7RUK1RNaiEcrWqBjN7IgiizoLs04TX8WJW2VJhF4m+0530bRq/VGBwaxvjYVmTK0f7DO4gYVberzZ5BTkhaqUFgQEgeZLUE/K7CT34HotVqY5qgfGqrMUYFBeCnDBXaE/rr/eTH5FFlZsHZ32ZSNy7QQMEtEPUWORMWsNmB0F5i6L6fGwaGjZ+yhv+h6Xmpzyf7LERxqq+J3ehgmePU4518UbWxehO0OhrReqxPkiUURplvLYgqr6ijNfMclgNnYFUOzSqrZP1Lhqza1iT3sGosT1h7E4c+0R7C1l9o3qPRucKzjnQxLS7mBds4mTohU3SSX2DSzRUa09LNK+9px7S+0ZqK0F7Jhe9eLVa4eflQOF5KtVWQBRyIrDc7OztcKnQCy99oeRP5tMZVS1QHpYKVWwX/8ChVt4V0Z729ptk9YVzYH9RrD7D20faKzvpe4/UYMBhNYF66cqVvbpsiTYqKmm8vOcG102FSoGD/uqjAMsbrePkl8X6OpmYd6O2okF6rF0SRY1eOTprdLUUX9cxaRh4zKC5Radf+B+pFKgwEvCiBhZ2rcc6hRqbSv7k7+XTe93ZmXvlyywM6VIHC/e0Y30Ya/dEwztc7Y7vqr7c8epF3zggxJw5OR/6axZqPFGe0CS9i0Xrcily3GaSxu6EsY/ngpGATUDBhVJS2l3MC4YkGXpgk3RU3+DyDFX5pyz0asVzg+s/o6FWF/ynRuz4EtHbJm0K44K9YnxEQN1fJPqWvWSlgHIJpeCVo+Vm37+7JxWt4HWSFZqiRR1foPnbe23+eQ3Tafh9ayIZ1ue3Ijvx4KDOcEZMdMuisz5RbTI0Mk+jol2jVpR8LMQ+w1zYnaJjeQ6Ivda8faXTeEK0wF7syTRfUKo2ox4sSNIT1hPW/z3ydbMkQsarIP/6xW3/DOWi0NJo/1g4XVln97a9d2WdZejPffUnaiwiWc/8U2ORrbPSoBH/2mc8XUQan9bpyEtjn27aXhc+S/hpiraNTltjIeuK0w/mRmkvME61Hus0Mh9LDiufXutOeeMm7eu0QmeAU5I41mvDgeUNjv1MZB9ra3wXRLZL++W4HNSf61J/ek3LL37+OCpI0Lt42NgU/zhnrl3ix+6YdmE9Y1kCc/7RxvNQXZ/PvKBJlKF7m6Sz+gbf8BdV+rorTk5O6MaNGzo04PA23CTRnnW4Ouv0vv14G0b9nVzuyAZe/RY+L1zi39vjVXDY0AD9CcYdMEhA30E/0q3eXvrHVFcLfUZmsuJ8lThwyPNyBfmxkv+F5OWjtohK8g90w0gFAAAAsg88qkCC9gP9CPQWDBLQd9CPwKMKAAAAAACuJDBUAQAAAABAJoGhCgAAAAAAMgkMVQAAAAAAkElgqAIAAAAAgEwCQxUAAAAAAGQSGKoAAAAAACCTwFAFAAAAAACZBIYqAAAAAADIJDBUAQAAAABAJoGhCgAAAAAAMgkMVXD5HK7R0KMqNXSQqEZrQ0O0dqiDHcFpzFD1VAfPjbT5tHrOLrP7bO3pEA09rcnrxtaMdw0umwZVH7l6ardVp3AaM1t+b+g9tq7ZpNXllJxWaeZc+2C4/pM4/3rNInFtnYZu3j0veiVTWNc71Y9ej8m9GEMSCc23Ccg+vCZq63KBoQoySJGWmk1aGtPBgSC+zMXHTWo+LuoQyDJoK4vhadpsbtL0sA6DS2AQx9L+BmNIGBiqoAOUJ8Nd9amVrlmRylWmCMuftXpTq8+qel+s1P4DhycrRG/mqeCtlKNXu156dr68OjT3U3pvHNnS5qPLZ+LiV94tnntvy2uvVMNlNpiVPv9bmNshWi2Jd/lZt84lcgWcNS9IhpD64taz0gfdFrr+VPvYz+n22VLtN7P1H0S4QPNviCqT4lmt46atDHH9QMToPqB/qTwocbrlyhaVnq3XM1t1fTcGW0cD6cSWR3teqjpe6p/ljXH6lflZaTvx1n13vOCfaRMuc7j+O6vXq4zWDa/OutOTuHbi+zNbVUc/3THI1V07Lvyu68HrVKZY3ZF6WaIK7dD8iPuOpNUYEUk9QkcN8WV3ZfT7iurb7nuh91OOVfKnyyjzC823gg7m0QvlrEf8+OOP+gr0I223X+3Z2bVrz84+6KAMz74++youv1YfetfMh++vnV37Xj0p4649PHt9IoMK613Fh7Nn1jPy/UB6D6sidPL67KH1nJuvm4aHfMeSm8Natth8xJ3Xs+Za4ORr59PqOb8eGDc/O51w+U2asoxWGsG6C8VfcdofdwJtpMPPauIyoE+ujofbz3lXE2orS9fstpFt76Wl0jbp2Gn4tKNbbnpuvzByuXIrOkjHhKU8AbnlPauvGQL17NaFG1ay+s+6MkTXf3v12l+0r+9cB73RE7duXX2UccH5IJCv105R7W+9a+fTjUzq2TjdsetFwWnZ5fF1JaxnNq3zsd+NqPMEOWycdAN16IZVHnHtHJpvA2mF84now23SrX0IjyrojLFZWr9foX29Iqu9q1D53jjlqEEHuzu08u20uFYUZ9apvLrvr0aXF9rYDqzR/mqZ1r+z0zumhXxd5DROz62txVx+VF0k8dMXsY624O1Juc2SlA/R+HdN2nygY4bzFJdT8nMi/Rl/S6f4eI9W3mzTQTer17EJKw1d93exbRRPjqa/XaGd3QPZrnR6QNtvVmhiTNTe+23asXUzoOPB9ktGt8XbJTJv5O48p+O7rGkNys/Y23t5unlfXyaQXrdUekd1LmG4P+YeLNCKvg7TZjqO/q7QgpEvlgZVn8wTbTzX9az7nd0vEsYL2cfffKFon3Bn9TpYdKonwXYK9CNBeWPW03UaW6K95R3afi9iD/epcn+dZs3xAzHmLpg4jf1u/laZ6COPu93LlF53XIp3o8eIWOLyCZZdlHJ2o0yVd5ZvNs18eFqlxTny5qfQWBWq07h2jqKDefSCgaEKOiRH4/dMh1MDxtQd7kJ1+mK248xWwsi8axy2w2mdjsSUnLc78nCOimNFyol/2TD2tlx4S6MVYgBtviUqedscZss3IR/+n7ivtn/4Hd42iiLtczY79OUnfdkRRZoQA9T8pijF4SuaJ3tQBJFYxr0a8CfkJFn/bI5VGN1QW8udwf2gTDev6yDD+ir0SWoU65m33ZYmn050i4mQoyMDLi6d9vS39lSU9faeb3BH9js2wo+o7hnAaemkXoGihZ7IdtJb5aZ/pBhvdz4Lg7N+5G01m3dLq/qBRM5HplTIMWKeXolFam2TF1aWEd4Gsuy380IzfaQhKA3xtNRoTcyho299Y5LHqvKtvApo2MDn+m6bTubRCwaGKuiY3J0p5fmQq8YpGpediAcSsZr71KRm0/75nqW2SJq05IS0SPSdzuNtvJ/IR6zTrwtjVct1vHFEJT7fljg5qrNCi/Rcv7cX45FK+5xNcCBuH+OBWvO82iAZZdxvv68pj432QPNAX9441m3n/zr7ECXJiNOTwrsJnccxrbc0HDvRLSZKDjYA9GVq4tJJr79sZJdWV2jP/lAkqt9FGa+p6KRegaKFnsh2Em2n+4T3e+l7O6NgY0oaZst77nvi5y1WYjkfmdJhPJ9rlhOmfaKM0ijjNR7WabEoFfVnj0NRRmmU8ZqKjubRiwWGKuic4XGaul+hkliB+QYSe1qJ5p/4H1ooL1DSQfQktMfQSk8enhfG5a+5w1vbH3z8oBXs0SmMBGSRg0Z8Pg05cVrbmmyYqyuXls9pz6em9lQMQJ6B3wW6HSrCCGi99QoYubU3V6J5a0uPF140t+h/SKA/VnA/CkmL3nGY9HXN7wfKwPO25uTWorqMJa0OhtBy/GD3xxcp37WJSSet/pqty0/BBau1I6BhD5bxcrdHB/UKNK30hNtJjPWBD6jsD+p25l7546owfkrGwGPv5GrJ6kdq0eV8BBpJ9zJ1g3LEiHE1zdZ8HJZnVlGjV3P+4rgVja1FuUt2HPgrAEq2F85Y9aJDg1oazm3OoxcNDFXQBWogCZ5Nyz3YpON7295WT2F3io6TPKq6M/PzUYMX/7mOvdv+1lGJxOpcrJp/h88rWVu1+3f5zKd4LvgVpwWnJb2o+p3C3Kjn4YnLJyfP/4gBUd9njw2fv5oPGrwtnxOT6K19FSd+pY9iAGpz9a8GKFVmf+DX7eBN7mknggGGdU7845yr4/PKn6Zo22wljmzT1Kckj6qeSOUxl4AuCGQ/sHXN6wfsrRGLOZPPE6IF9t5MJnxtm1YHI2A5bL1epClZ9naJ7Ncp9Vcan8FtWt1PZb8Tvc3cl/0uMDFHE6z/DuoVeLTSk8h2stq/vHGT9nXc0OSRWJSYrWr+E1l7RN5xsBLR2zQe1e5likcvkFhX4gzbYXYAiNnNGJXS89iuLkWXPd0ujTJqg8cm5LgfOVal/FNwgflWnvttcx69aL7hL6r0dVecnJzQjRs3dAj0G2i/foYN03YGwKsD9BYMElnVd/Zkvrh1nMr47BvYMJ0k2rOcLLWnM1SfSWkQAo9u9RYeVQD6GLWdHD7DBAAAoBP0WefJivNXO+QZ6489OKoF2gYeVSBB+4F+BHoLBgnoO+hH4FEFAAAAAABXEhiqAAAAAAAgk8BQBQAAAAAAmQSGKgAAAAAAyCQwVAEAAAAAQCaBoQoAAAAAADIJDFUAAAAAAJBJYKgCAAAAAIBMAkMVAAAAAABkEhiqAAAAAAAgk8BQBQCALuD/BvjQ05oOxdPqORn/qEoNc22ePa3SzNAMVU85UKM177p90soayeGaJ1+YsFy1p0M0sxX9NOhX0upfq+c4fojWDs21/yzrjdHRTvXVTuNysMsHugWGKgAAZIDcg01qvpymnA57DE/TZnOTpod1GIC+p0hLzSYtjemgRfFxk5qPizrUGb1IozviywfaB4YqAGDAUN6OIfOzPS/Se2niXI+Q9O54cWsilWiSn6tT9ZGJcz2Osd4jKZNIR/5bogrt0PyIeF88q/Jy85DepFjPJxMnQ0Pet71ARib572SF6M08FcQ7jqcoQi6fA6uuA3WRUNegd7j66Naz1BUT57Sb20fiPeMtnnu/5sW57e96UW2MJ57/LcztEK2WxLv8rMrLyUPrUNBzadKQOHoWXxanngL9x63DYDnMffHz6jBYPvc5W14la1XFJ/bbwQWGKgBgoKg9LdHRxjE1m03526MXakLhCW1knkbfqvvNT1O0PaInpcM1MWmO0p55Z7lCJWdi17R6bnWb6DuT/jrRXCH99qD0rO7RCpVp/ZN4/3GRcg+e0/r9Cu17adRof1XEfxfhmTV0IIP09r5dIbq/TsfiPcdTFCGXYWfuC01E1YWs622a4uc5/u2oMHIDhizoHlHPi5Y+Sp3eVLXMBlLpo2pP2T5U0kYcL1isPiJ1ZDHCqGz1nFi4fJ5QcZw+t38bhhh7RY83ykTLe+J93lEo0pLQwZ3dAy+Nxvtt2hHx8Z5LIeMTq083j2lq91VIz9gQLexO+XVxWyzIjK4m9OnYscSBjdQSkTeurNPRpGuke/0kakcFwFAFAAwSDap/1Jea4mO1rR6a9IbH6fmnCTFRibjrs2KSWSJjguVviQk0gpbPLS/4W/jCwHsuJuLKu27MsxyN37PSONynyv0pGk86JtBzGeIpb8y6dfGxLo0MVdeWHGOzAYMb9ISfvghz0YIXFXIhEV7QFGeOaSGv2mdcLGQ2H+iY4TyNqqsQyc+J9Gf8RUvxsVjMvNmmg5Ah1wZjE1YaDTrY3aGVu34eYer05Y2+lORo+qXfPxU6nW/tulin8uq+NGjj+3T8WOIg++Q6zXrjyjQtLO/Q9nvfZLf7CQgDQxUAMEDwRMVelYK3DWe2Auufd6h8Ky+vFTnKDRepKCaY3DBPYf72ndySjCDtcw7aeOuU3J0pMamyJ6dB1R8qzoSbmi5laBeua7Wlq+ppaKhA845BAXrC2BI13xKVvHrWXuvTOh0JszJvG1VCd4tjRdZ6ocfCDPO2u/lYRxRpn7PZoS8/6cuOKNKEMPLm2St8+IrmyTIAI+GzontEk6b8UR84KWO2Yj0zNDLvGfjxfTp+LLFp1I+8IzPmudKqjgSpgKEKABgoGqckJhi9DScmsVG99c2ekp3Pdf2Ui5qM971tbLklGUHa5xxu59s3LG2Mh2bzFW2/WaGJxIk7hm5laBOu67K1ZWp++Pik1zSocV0Yq7p+jzeO1Pa79H4eUT3Su6mMskV6rt/jYx1RpH3Opkw3r+vLDjHezrV3FSrfG2+pt43TvPywScoYse0utJFu3tfHVsxz8qe8qEl9Om4sscnlR/XxBfOc+nmeaNASGKoAgMGBz+yNFAKeDzV5Ks9kyZ9o9EcYHJbeVm97Tm0VRtHyOen51Nfy/GCrrct0FO+u0M5qhSjNFmKsDDnK3ybrGECNXqXxCHcA17VzntGqa9A7ak8LVAie/ZWLEu2ZfOKfGeUzq/JjHultXaEFY0jx1rW6cmn5nPZ8avg8Z8tjKWkYHqep+xWqrFp5x8HnS0V/d/Uq4EkWtTF+j5y6UMapqrfYPp0wljjwcQV7XNEGfpT3FUQDQxUAMDjwGT3t+VDbcPwxxHN1rozjpMdFb9Hpj33Yy8deHP7oSL2zSPQte3XMxyc+LZ9bFgbaE5O++sijPS+iNjD463r7wxSeDMUkOXVHTdz2RBsiQQZ5jtDbkt+nm7ZHWJ4PVFuY4Uk2Rq44ZF3zx2pGDr+uQe9QHyQdeVv/8qMg/bEbx8mPhnRcifbUxzzSQ1/xjwu8m6A92bYBfWr5XJnWb+2rOPGTH261+bGQWTzy+76hp85l0/JE60UZH31w+jTre/CMqkjxwSYd39v26kJ9WKWei+3T78fjxxKH4PED9WFVpEeV/1Yx/gJGiG/OBPq6K05OTujGjRs6BPoNtB/oR6C3CjZM5eTqGQL8RfYryoc+HAH9DPSdYY+kMvawsOkPutVbeFQBAKBvUduIhTlyvuDmLd/52yk8TgD0EWqnoESVxD9JBa4a8KgCCdoP9CPQWzBIQN9BPwKPKgAAAAAAuJLAUAUAAAAAAJkEhioAAAAAAMgkMFQBAAAAAEAmgaEKAAAAAAAyCQxVAAAAAACQSWCoAgAAAACATAJDFQAAAAAAZBIYqgAAAAAAIJPAUAUAAAAAAJkEhioAAAAAAMgkMFQBAKATTqs0M7RGNR10qdHa0BCtHapQY2uGhp5GP9kWh2s09KhKDR28DEJlkfUwQ9VTc23qhOtA3+8BtadDNLMVU/JYGSKwn+2xjACA3gNDFQAAek6RlppNWhrTwavM8DRtNjdpeliHL4N2ZMiCvACA1MBQBQAMGA2qPhqioSH9s7yDymtXld5Qz3MpPXDm+bD3rc4eRh3ve/x8Tx2nWZjbIVotue8npRsRJz2ZkxWiN/NUEPeltzbkPVRlM57cyPJI2Uza/rNB+F3zzJDOI7IsIRlSEFl23S6Wx1iW2ambA0t2K88IGex2cbzQ5ln5b4kqtEPzI+IZoweObAleXADAhQBDFQAwUNSeFmj+9h41m03x26MVYXTZxtrO3Bea4LiX05Rjo2Vknkbf8rPi92mKtkdsg6hC2/Rcx60TzS26Bqeg+LhJxxtlomXOU3vyZLrbNPVJp/t2VBhLOt2YPOsPNsVzK0T31+lY3E/rrXXKI3JYE8YZeWmv09FkwEhmDteo9FHlo+QjeiEMtsiytEts2XM0/bJJe7fnaZGNQ/Hc4hzR+ic/H68s4re3XKFS7HEKq12ax7ROwrgPPis9q6L9qSzyEM89Loqbwlh+YtW9eHdq95VjAAMALhYYqgCAAaJB+RljlDB5unlfX2rKG7NkYhvvt2lHGGWeUTg8Ts8/TQhDToeFmbPwIKcuh/M0Sjv05ScVTEKlu+AbemOztH6/Qvsi3dZ5toddHjrcp4owdGe9tKdpYXmHtt+7XsNG/UhfacaWaNOUs0uSys4UH+/R6FyBhqSx7hrDdlnyt4TB/LHue0odrHZhA/i7dSqv7qcwOOv05Y2+lLDxvOTXHwDgwoGhCgAYIHKUY8OHP0qSW7sFmncME5f65x0q38rrEMPvF6nY5dlTTldtn5stZl+O88qTkQaoPjpg8i6t6kiL3INNOr637T/Xww+4ksquKNLEMv+7QhM9KLPPEdWDnuMQfLZ4j2jSyBZ/NAIAcDHAUAUADBD6HOS7CX9bOOBRtWGv3c7nug71Dk63vHGsZfB/7EU9rzyZXH5Ub9u7+Ya8pafCLOWjBjqet+NDW+cdklR2iT52sLdxlLC13wmjlLe8s3E0TvPyQzgpV9zRCADAhQFDFQAwQPDWbpnWZ/Rm7ukBbSd4VHN3pqhsn2Hl85U98LJxus55VivdtvKUxw38bXM6fJXoIaaxicCZXPVhlfvBEJ/TLFAh4EV1vbydk1R2Kc/kEa1/N03FB89p/aN7fjg9FXmmVqHOne4sT7TewhdGcmGkEMgznYELADgfYKgCAAaIIs1ukPrKWxhHQ0+IFjbKVInzmvEHN9Krpp/XHwGl/ZDJYIxPbytZpssfSUWkm5QnG5p6614Zl0Vaersi5NfPvruZ6CEOb22rD6tcj6r/UZPZ+mcP53P9TKgs7RJbdvWhV8U7vyrk+FaVrf18VmiKFnUZ9cdz3rlkGz5moL/6Z8N8bEl7UY1sfE4WZ1QBuEy+ORPo6644OTmhGzdu6BDoN9B+oB+B3oJBAvoO+pFu9RYeVQAAAAAAkElgqAIAAAAAgEwCQxUAAAAAAGQSGKoAAAAAACCTwFAFAAAAAACZBIYqAAAAAADIJDBUAQAAAABAJoGhCgAAAAAAMgkMVQAAAAAAkElgqAIAAAAAgEwCQxUAAAAAAGQSGKoAAAAAACCTwFAFAIALp0ZrQzNUPdWhp0M09LQmrxtbM9615LRKM0Nr4o1o7He7pkVeF8LhGg09qlJDB9tGlsGv2zii67n1ewCAiwWGKgAAXDLFx01qPi7qUHt08+6VZHiaNpubND2sw2np9D0AwLkCQxUAMFAoT1qVqo+GaGiIf+xBbFjhgFdNetqi49ibObNVpTUv3vVGyrxMXIKXUKXTkP8W5naIVkuhvOpWWvyswbxrkB5Wk2esp5U9uv5za4f6tiYur+B7fpz2EG+tOfed8gc9tRH1Kp+frBC9maeCuO/LFSdvRL4Br7Arg8onsp4D78Xnqd730wyUCwDQU2CoAgAGj9Vtou+a1Gw2aW+5QqWhAn35VoWPN4jmn2ijko2XkW2a+qTimp+maHtEGzaanbkvNMFxJi1rC7+wO0XHOu743jYVWmxps3f0eKNMtLwn3rG9exXapudahnWiuUVHBgMbUKWP616ee1QKGJoMG2AlOto4Vuk194gm7TLF5cXGvPVeSI4dmv88IeM2H+TkFn5hbpT2ZB5u3ah6nafRtypO1esa1R9sUvPtCtF9VYalMX5YyUves+t05MgbyNdG5LNoySDz2awl1LMhoY5Euew6br4lehGqYwBAr4ChCgAYPJYXPOOkeFcZRrPSKCLK5UeJ3nyhurhuvN+mHetZ3h5eWN6h7fe+YVLemCWz8Z6/JYyfj3Vh0jXoYHeHVr6dJmM65R4s0MqbbTrwDKx2WKEFY4QN52lUGGdfflJBnxrtr5Zp/Ts/z+LMMS3kWR6Lw32qiPI+94y6Is1+WqD8T+ap+LzGhXHvGYMyzkbkPeMfQWhcnxWG3JJbNxpVr3vaEBUMj9PzTxNCNh220fKa9gm3gZuvw09fhPQWvL2f5phEQh016kf6nmZsKWwgAwB6BgxVAACIof55h8q38jqkYINr5zObsUnU6cubMt28roOSPN28H2Vg9ojTOh0J0zFveweHc1QcK3qGKyMNrdt5515uuCiea2Vs5cRz4n1vK71EFR0TRU7krTyTaotcbrVrwvXKabMMOmgh5dVHAcx2e2lVR7ZCGJHs8Sx576bbpk+qo9yDTeUdN2l28+EXAKAlMFQBACCGKKM0yngNE2WURhmvPUR6OI+o3sJjKz3G0uvbLsroXDTHApp7tKJjolAG7b53LEJutWvSGfsKKa/cotdb7fqXzovZoMZ1Yazqd443jqiUwrBMrKNTcZePKOg0924LI7pXf3UBABAChioAAMSQuzNF5dUX/nnI0yq9WC3T1J3W3sfxe2Wq/OAbRY2tF1S5P0XjofOQvaJIE8s7/vlagfzoJ2iYjU3Qypt5WnQ+hAp+NBWB9NhaxwJ4e1xdRSINeu9YhDoKYVD1WvI/UJIfMoU/6pKwvPazaeUV1J4WqDAS8KIGPKWRxNbRr6n6RKQZqNPWCxcAQKfAUAUAgDj4TKP80Edv88oPq9L9CaPgFrH8sOqlf340DmPE8TuRhlsC/JGQ9PDpPEu0R81QnkVaau7R6FxBlUl/qNTSQynPhvKHZ7ou3k3QHhvGQUNQU5zhj61MHotE367LckkDU9YrfxSl09IfrMkzq9pI5DIoY1TJS+bZtPIK1EdTR57M8uMufUY1uZ7j6uh3aPploI4/6rOs/PdfzV8QAAD0jG/OBPq6K05OTujGjRs6BPoNtB/oR6C3YJCAvoN+pFu9hUcVAAAAAABkEhiqAAAAAAAgk8BQBQAAAAAAmQSGKgAAAAAAyCQwVAEAAAAAQCaBoQoAAAAAADIJDFUAAAAAAJBJYKgCAAAAAIBMAkMVAAAAAABkkp7+l6kAAAAAAACw6ea/TIX/hCqQoP1APwK9BYME9B30I93qLbb+AQAAAABAJoGhCgAAAAAAMgkMVQAAAAAAkElgqAIAAAAAgEwCQxUAAAAAAGQSGKoAAAAAACCTwFAFAAAAAACZBIYqAAAAAADIJDBUAQAAAABAJoGhCgAAAAAAMsmlGqq1p0M0NBT4Pa3p2HPitEozQ2t0zrn0kAZVHw3R2qEOZoYarQXbTvzOXU60X49R7Rgln+yf590fL4HG1kxIb4ceVUVLnSdczzNUPdXBPkDWU4bbX8rXdbvF63+IFmNPNuvrcsbprOtOmKz3zzg9bUN/+5jL96gu71Gz2fR+e1QSHamfDJHBZuWt33bN5h7RpBgIr6BxM4gUH4s2fVzUoSvG/XU6tsad43vbVOgzQxL0giItifZfGtPBKwrG6avKYOhv5rb+i4+Paf1+hV5s+etkx/OqO5fyirgGrXzOrLDl6te8lzQBuStOe2WiVoVV6REz8TMBuWa2qv77Mm87PVc+JbP9rEav1KtWvMqH0yrQ/BuiCg8s5+716RbRaT6tU3n1hVPfl9V+ofZx4vk9ke7Wmhcn6/zQDwcH8rj2C+uJkTdF+znltPQrQieC78fqkyApzm6Pma26vhtG1Z8tj/2enWL/k3uwSXvLOzS/6bd5ZB1K/XD1UT1ndDleH4NE9QtJi7YP6xvnrTz3KhzoL7F9KdwHjBwsW2Fuh2iVHQeB9CRuOX35I9IM9PN4eQSp49boQN8O0l79aHlN2O7/4v7aU5FWoP/UrXYx/aB1fWWJqHE6Sm91nTnjoHrOlDtpnHFIaFc1zvRunI7rV2G90HJI2UpUIdH/R9x3DE45LfnDaYbHxth+LkgbFz9Ou/obJ2ffc9YjfvzxR32Vng/fXzu79v0HHbKoPTu7Nvv67Ku4dJ/5evZ69trZw6qMOXt27drZs5qKUeGHZ69PxOXJ67OH5prh9K49E08IZJy+jkzDD3+tPhTvWenId/14KZuXlpLNft6WXaaly8Q45dLpqnKZsElHpevLeD60337BuvPhspmyXGb7ue0jkOmYdNWzwTbw28hNK6n9gnriPpvUfsE4DtvltHRCP5tGn9qJU7JHy8fvqfwT5LxkOhl3gnXgYelWfB2qugi2i6qbgD46esxxvo7YbcI44TRtH0wrTlcdGQR2X9Ly+nJE6Lwlo42vG4oP39vljChbGnlSyOrroM4noh3bqh+Zjn5W13tsHsF2CcibVF+94nzG6cAzdrmcNhBwWNeHW48qPUdHTV0E2zUQVu0TyMOL123gpGW1SUB2WwYhhdNXg3oRqwdBZJ6WfBy2yxkqWzp5Wspq1a3KJ6odLbkT5LxsOhmnbbJrqMoKj1CeYEcx78fdl1iTid2Y1jsG+91wOu49lt8btATB52VYpm/lb7DlCCqYLLd5PuLdc6DXA6Cqh8ttv2D7MP69oGzBelZh9Wxy+4XkZbm89kxqv/g6DOuEwLuXJE+bcQkyuHUVI+cl03tDlXUiub0dvYu7r4nWt6DuCex07GuDdS9S3+x8Lf1L7EshOVSc6TPhdw3ucy4RZbPuJcmTKGtE3crnI9oxlE5C/STLFsgj1C78rq8nUe/3mnMZpyPq1tdbW1/i70tidDSqXvx03GuDfy+oT8F8VTj6WYFVtpAcMXoQwnnOJaps/r0keZLiIupWPh/VjlY6CXJeNt0aqtn96v/+Tcqf1unIuOONO3uyoh8gyt2ZovLqPrHDvPauQuV745QT1/XPZgvGvKe2X4M06kdEt/PyHUMuP0r0sR6/hcG0ig9Rpy9m+9fINDIvSnZ1Kd/KE2W0/XY+x293R3Ne7cfni/R5MZ1u0lax4ojqol7j5WkVV6ab12VAk6eb9/VlLJ3I2a+MUn64RXuPTdDKm206OBU6+H6bdpYnRA1pfXwzTwXzjviVVtUrDrJfcD46zAznxR1uWx2OpFV8mLR9qT1yNP3ymKZ2C166rY+C7NCXn5LlSYqL7eugK3icTtbbHI3fK1PlnRylaX+1TFN35CidekzkdpXzgUX+VrnlONz2ON1ivumYsSVqviUqmTSDR1mi4DkoSZ5EWTscpzuRs0/IoKHaoOoP2miRg/cK7XmHwPXv5bQasIbHaep+hfYP7Q6kOkF549h9R/yCB46jjJqoATFEq/gQrGRlWv/kytNsLskJ7kpxWqUXpi0y2n7BQbM159d+jdO8PAwv0/u0TkeTrc4VsYGTJE+rOGUw+KgJpxXty9l/1DbFRCuNzlbtXaSJ5R3afl+jg90dWrmr7kp9DHwcyr/NBwFtjDJKo4zXEK3iw6TtS+3SELJPvzTp7dHoXKHF4kVNvEnyJMXF9vUeohbOJed85Cs+d3oVscbpVnrrORQO96lyf4rGpQ6mHxO5XYNGZ5TxGqTtcbrVfNMxDWpcF0agTu9444hKSedxGZ6DkuRJlLXTcboDOfuEjBmqfHibV9ErtCA7CU8IFSpZh4zlAWOv8vVqb7JkdSDVsWhu0Z9I9UHu0EAqPSPz9CowMJmJR2IfOBfpLAbjU8FyEs0/8ZVGHXq+OiseCdczr6qXF2hatsXlt9/O3Cu/jg/XqGQZxOk5p/YT8hRGghO8bYzYHxWKvvHEGFJJ8rSKE/X9gx33QuTSgpZy9j+sl6wb6zOsO63bu3h3RehWSY5VE8boY30MGDr2hyc+ytC1P9zyjWRDXNu3R+q+1A48Dgp9cMtle4ACZXvq9+8keRJljenrPWV4mjbfrlhewhfCgCvryCsE16s9TrfSW+1QKE36u17tjIncrs6HWyJ/z5mh6c043Wq+6Yza04IY/wLlsp0hsTZCkjxJcZ2N0y3l7GMu31ANbvXc5pWdvyrjP5Gj/mSVeqYkQvYKSXYC8e/Kt9aqiQecT1O0bdzqI9s0JVZ+YS9CcEuzRPQ28NyyGDyfmHTmaTQYnxL+qlj9CRyVVmF3io4jVp9htNJKGcODwGUT3Prh+rH/pNFlt1954ybt67yHJo9o/dOmNqLb41zaj7dqpHdSyyfrz05zhaZoUcWZvqHrNkmeVnF7t/1tvkWRw4pMMYGWcvYhwa3Oj/znqnzdaNnePLmLf8obs1Y9ROtjyKMqiOwXzp8Ci2/7tkjdl8IoA0PJ6Bi2nKb2oir5SnS08dzqV8Lgv7Wv43Tdmj6fJE+irKJubR0c2qebG703Ims04Xu3hD7M3hI3U072sfWVAZLH6VZ6q8Yw1knlQFKkHhMj29Udh3s1Treab+LRi0eWMWDYcprSO6nTLMyN0p7dFxNshCR5kuI6GadbytnHfMMHVfV1V5ycnNCNGzd06GrAK8TC54XOJog+4yq2H69QX9w6jjQUMo/0enyhhVTG8OByFfW2v9uevXEv6GaHhsZlIsd79oZ5hgaXJcJ5cYlgnM4Wg2QjdEO3epvdj6kAAACAC4K9WM7OgfQUH2fGSAVgUIFHFUjQfqAfgd6CQQL6DvoReFQBAAAAAMCVBIYqAAAAAADIJDBUAQAAAABAJoGhCgAAAAAAMgkMVQAAAAAAkElgqAIAAAAAgEwCQxUAAAAAAGQSGKoAAAAAACCTwFAFAAAAAACZBIYqAAAAAADIJDBUAQAAAABAJrlkQ7VB1UdDNDRkfmtU0zEXSe2pyPvpZeQMzpcarQ3NUPVUh0Q7z2w1VKAr3HQvk8bWDHS3Tc67zuz05fWjqhjpWpMslxor1w51UNC+PifrbTvjYO/6UjRdpX+4lrrOrz790+ZZIktlbWcMuapcoqHKA2+Btu8dU7PZlL/jjSMqZcQAAACAbsk92KTmy2nK6XCWKT4W4/Djog6BQQBtnn36aQw5Ly7PUD09oO03ZZq641c/N8jexijRT2LtcFqlmaE1qvJqwnhcA6sKudKIiVPv67ig8csrbuu9ur4N2sSuR1HHa08DK7/YNtCr/C3r/cCqXq70I+KU16mqPfHaAx+Qo9VCR+mN672X+UWsWh05Ejz+kfJKufx3gitj+Y55NmVdRa/y687ORPCZuLpk4vsQ5+u/56cZ9uypNvHTja8zN007jYun8zozOHUXo3fBunHfWRN9Jpi+LZdJk+utQPNviCqT4n5QT6WeufmrfGL09X10v+MyB9vZf07IKv512+zAas9AXnH6HBjXk3XATt96Vqdh1aqnk7LckxWiN/NUaJn+AHEBbe7odmgeSGrzuLFG4OhRuJ8a4vtrsEyOlsbLLEnQbw9Xdif9uD4g3xFhb0z/DzKNqHJ7Om2lmyRzcnn6l8szVIfHaer+Ds2PuApQfLBE02PGeK3QNj3XHtdjWicx+OgG4wYp7E7RsfbG7t3242Qjj2zT1CcV13w76ufDcZNHtG7iviPaXpVvgXaQ9Vihlbe6HpsLRKs7OlKQ1AYS0fafJ/S7e7SyWvIGMB50SrSn40S7fyy5nXh1m+g7jluiYqA9jzeI5p8kd9Dcg+e0fr9C+96AWaP91TKtfxdYtQoDoPRx3dOx5luiFxEDpSuv0EURkgPL2KyTT/2zqJ8323SgjQ+Z50yxrbrafBCxrvbqQ/w+rRPNFVLVpexDc6O0J+NE3d3b1n2IB/cSHW3o3Q6Z5mKkIRYits54cC4RGX0RaR5NusbVhdJhnXmINlu06q75aYq2N/0Wi0TUTWGO/LHn0006Co49lly+LhdpieW4T6q/Bb0rY0u0t7xD2++NjA062N0Rz4r+oe/4xPc7m9pTYRiLEde04/GtIzEau+zMfaEJHb+3XKFSmvFX4o/rS2P6VgR2+s23K8JIb60v0vsknqX7Svak9AeH82/zxPlYEtfmSWONiHsyT6PeHHNMU7uvLD1SJPVXWabbJs4te/z4p4jVb4vaU0t2fo5eKNnbGtP/d5rdKNPO7oEosaLxfpt2lvdC+pskc+s26F8uces/R9MveTDm7X69AhA/d0JYoQVvYhbPf7dO5dV90dh6IP7WH7CLMybONPICTQ+rONtgCMUNT9PCsr4GqQl3pKLsbIakNlBoI02Sp5tiEj6qc9tbBpxEtPu3K04nJjtdGqfnzU0vnMuPqotEcjR+r0yVd7oTH+5T5f4UjXtpKhr1I32lEQZB2FAMymvrop0PP7dCK8Kg+PKTCJ7W6YhGKS/ybK+uIgjo83PRDn6ecXUZNmZyd57T8V1+S9SqMJa8sg7nhaTpiK0zWcfrNGv0RfY727i6YDqqM4ufvoipxkKksdliC7X2rkLljedOvqGxx5JL6vKbL6l2fIp3LRnlbtUKTUQaaXbZ7H5no+vAWrjlHiyI0dilvDHr6U7+luj7H+sy/9b6bI/r8djph41xkJ7zbvPk+VgR3+bxY02dvrzRlxK2GYKLr+QxLj8jjDavX6qyK5LHPyZOv30aVP+oLzXFx2ouandMl3XtOTG0bHf9eEWSzGnaoH+55I+puIHEClivAIxnI+S9cDiiupjkWYHlNpgxckfmvYlDeq7EysmL09tmJq58K68CGqmEoKcktUEi0oATq80R85748VZeHMM50TGt7Z2kZy1yd6ZEJ+bVr3j3h4rTwQ2sm3LFauSI2kqxDE4POdiynoo02NjgAU4aajdpVhgUbBCpgWxCDjgd11USnGdiXXIfKtPN6zrIcF2OFYVM4l8ebMUKXb1XCnlW4oirM2nA6u1YI0spazsZLevMQhhO7C32F9m2t+QSGJsQE908vRITYW1znsg28i6Yc9Fnzc5nHNTKHsnzcTJJYw3vJOwRWemGPMGJ/VWlrY7GcJyth0njX1rYcGYvb8HL29gu7feBIk2YhVjsQjNJ5m7aIPtcoqFao2rQINUehuTBiI0CXhmJFYlxq3s/tdJgw7NsuePNj71/HBdMXyoVaAtl6NlbSDV6NefXY1IbJCKNvBV/S9X84g6Ty0Fo0d/G5W2/NBiP3uareO+TMGLJWkhFbqVYRqmHbbxKA2KbXr07ovK9ccpdvykN5EVrxdxxXSVxOy8G6aS65D6kvbsh1LmrRe/YzV7IsxJLTJ1Jg33ZPx5hfpFHGS6LlnVm06DGdWGs6ni5M9TiTJj0etpHKE6r9KJnxrra0ai8W5MeJvvsf/uoSdM+QtPYepF6sXIu+qwJOhlAr+imzZPn42SSx5rGaV4Yqzq9qONCif1VOzDemWMP6viMImn8S09DyMI7wyr9PRrVR4g66QNmV6RmOTFckmTupg2yz6UZqny2Yz7oPdUDt+/yrlhnAtV5FdWAvKXqnkVUKzLl1WAjyjlTx+dFRGdgBfI9aX5c7yaLAYK3OuW5MbOCeyEMEd8zndQGyfCA6Z4H4jNIcQfDpafO2mLh7dW0yIFhVTwf6X1ifStQIZBveKLUA7x1PpE9Wv5Ao+IrQsek8TCszmbvWMZx53WlCejzolgwqD6UVJf6WMKk7wn0+pA0tK2tOvYGqyuBMHFvi55pjk04C5SEOmODPbCwCX1AcJF0VGc+fPat4Jw5E7Chqy8jGVtS506N92fkC4328NiRGtsqVLG3HDuk+FhM6vxNgOzbQ1T4zOZAOrrWZ83OnHUekc8+GwNcGifWNurhq555bAeZzts8eT5OJGms4TPdI/7ZcUVg9yqxvyoPpLfFLj2V6lLJHDP+6XBLeNwQ8rljmPJ4dtQH9K5IyRuLgiTJ3EUb9AGXZqjKP4uhVyDK0OGBWx0+9lcdKzQl1loqvqAORevzJsEtRnWIWK8e2Ijijxu8CcFKVxpYfLBZxz0RBgTOqHZEjcxKlX+bNHtL3DSTdVIbtIB1Q36QpNtWHpSP8ajKsz3WFsv+XbEi5y1ma+CKhQcGMbBEe594W0d7BI0cH9fpeYQHMFJe67wiG8T+AKsGG7p/U6yBNV3UlWRZDIpPzLvq4wPzblJdyj5knRH3+pCQZ4EHf32fPRJ8PtB8DFB8rD5KUGnu003vbHJSnQW38dSHVZfmUe2wzgz8jFN3/IFDyz/zI6bOvPEcKW/HhLibzktoJinOL2byGeZFkL3Q7wJhQOTNLgX/HktJ3W3HONrQ56TJtLxxk/Z1/Q7JDybNWXShS/Yi+d1Ny1Mm0BM+6+ClLYT6kS7aPHE+TiJprOHjNdKLquNkPw2nGd9feZfBWhiKuX6Bdx20VzZ2/NPptoT13LFh+MMqfQa9ozGdjW7xj32WP0CSzB23QT9w1iN+/PFHfdUjTl6fPbz27OyDDoLzpd32+1p9eHbt2rWzZzV9Q7TUMyecfWQZZl+ffdVh0H/0fNw5Rz58f030mYdnr0/0DTnGWeFuqT0T6fdizFR92e4b59dXvp69nsU4n5bz0/eLbHMwaHSrt5f+MRXoT3j15qx25WryOL0X8FJR287yTwUF/yQVAOcEe37Un6nRfUZ6iPy/WNE5+izeJP+5uF54UNj77XrGpcc4ZlejG9SfD4o6jwculotrcwDa5Ru2VvV1V5ycnNCNGzd0CPQbaD/Qj0BvwSABfQf9SLd6C48qAAAAAADIJDBUAQAAAABAJoGhCgAAAAAAMgkMVQAAAAAAkElgqAIAAAAAgEwCQxUAAAAAAGQSGKoAAAAAACCTwFAFAAAAAACZBIYqAAAAAADIJDBUAQAAAABAJoGhCs4B/m/pz1D1VAf7hMbWDA09relQ/3JVynEVqT0d8tpGttOjKjVkqFPCfc3OI3OcVmmm3bFBvrMmSspweYdo7VAG+oIr3R+dtukl59zO5yZ3CzrR/zbpzbiSLWCoAgDAJZB7sEnNl9OU0+FeUXzcpObjog5dNYq01GzS0pgOAgCuPDBUQReoVe+Q/oVWv+/XvDjXo+C+N7Plr/3YGzSzVbXi7VVvg6qP/PeGnq6FVt3Sm+TFx+cZ7+GoW3kEVr6HVnm8OJWuXQa1avblipfJR66CzTM6bXXPXfXLtPRq2UlXP8f3CnM7RKslLx3GSd9ebWvPQtWKZ7nt552yXRFi60OQ1F7x77EeiPreUjri1ZmtM+L5urorkWnp9NV1tT3dk21Xogrt0PyIuK/TYvntNouVOaLtY9s6UvcZt9zy59SZ22fX3uvbUcTmYaPzM3GBd9aeirKYMrYon6ona6yR79njRMDjpvu1ycuTISGfuP54sdhlcsdLRzfs8rajG4K6nY7TLwRx9RbA7nczW3ZPUUT1SyV//BiZNu+kOgrpSSCeiZJNkV7/O24Lp4xrdKBvXynOesSPP/6or0A/0n77fTh7du3a2cPqVyv88Oz1ibm+dnbt+w8yxoSf1fj669nrWeu9k9dnD733xJPfi/euPRNvWGGdjryefS1SUHytPhTPmnTdZ4P5cJwvK4f9PA0qPf++DJv8AnLacc5zJmzLHCOTh0zbL7MMy3fU86Z8IjW/jmvPnDw5bNK182eC8jkyybwtmThdu+0C5c4anYw7sj6s+o5vLzccrEc3HNR5QbDudF076dnXHeieoxMaW9fdZ6PStdo+rq1b5m+X2+7rSha7TmS43TxknGkvq7xafrd/iPRTlk/JYtJVfc2WzZE98K7qJ/rdFvnIslh10A09HaftMgjC5U2rG3b6uh7T1JtFpJ6KdFuP7a6+OeVLylvGGTmi0gjkbcss0/HTjZctGGfSiqjHjtsiWna7LrNAt/YhDFUgabv9uGMFOsPXkw9nH2pm8LA7o915v4rn1F2F+yx3UH/QE097A1gwTcbupBHxnozu4BFHaEJxBjZOxcIpv523yqu1TBZ2PgEcmax3gwO7jVsOWx6NPUg7AzYTlNmu4+zR/rgTVR+ibWtCd0NlF3j1E/Ge83z43ZA+CewJyI4PPduR7in8PtRC5si2j2jrtvJXear8w7K5k6xFUh6OnH6aUfUr70W+x7jlixxrrPTstMJ5WXXbIp8oOTull+P0V1HnNo6cqXUj+JzAupdYbx5xemru+W3uYZXLySPuviSmzaLqyHo3qCeMfy9Jtog4mW9Y/ztuizjZA/cum27tQ2z9g45o1I+Ibued83W54SIVx1qduMuJ5+xtDt667AGndToyW6BmG2TSpJyj6ZfHNLVb8OKStrEiGRZy29s4XtpMkSaWd2j7vUjz9IC236zQBJ+hS5TJYmyJmm+JSuYZa9snd2eKyqsvqHoq8v6hQivfqjONfL7x+N42Fcw7we02jzp9eUNUmTRpi9/IvJCqA1JtzWYdro8y3byugwy37ZjQXdleo5QX+ukxnBd3jqgu4kLvUZ5u3t+hLz/pYID65x0q38rrkCJ/q6yv2iBR95JoX+ZIOs0/tj4j6LiMFwO3pdq+1/INFWhe9KuskzRO50Sd21ve8ohCz+A+k7be4vRUX7YYR9UYuS/HzNq7CpXvjcvypm2zyDrKCy39WI8ZUxU7n+vJsrWh/522RazsVwwYqqAj0nTkaFRnXKTn1Gw2xW+PVnRMMsoYnH/iG2SNrRe+kSsHgBXak2laP/2xSkMMmtMvzf09Gp0rhM4ZJSKNtEWi73Qab12pi3dXaGf3gGrvt2lneUJIK2ghk0+DGteFsarjjzeOqGQMz+FpWmAjePOVbwAzwnAl/hhHv7N3e54KztkoAw/4ZVr/ZOUvf0tKxnZgg9p7f5Om7QG4b0gw1DyjVIcZb7KJei9qgvVho1ROZhZy8myXFroXT/syR9Jp/rH1GUEHeSgDpWT14xq96qmx5cNtWd441rrv/7L+UVfSOK2cBfs0octyvNHBIioWZaClq7c4PdWXrcbR4XGaul+h/cMa7a+WaeqOGl3TtllUHUUZgEHkIjRJtjb0v9O2iJX9igFDFXTG2AStvJmnRc8zqQzQlp5K2VFXaOGBHgIO91N7VIuPj2mdhEFmVp2feYgwsCFboZJlrHmH6k+rtDhSCMjW3mQtO//ygmec8crdQddHSUyUK3eNCZggkw4ztacFKowEPtywBklpBK+K/DZmtXHZoOoT8U4gnaD3TpGj8XsUMPB5UAzkNzBwfZSpMumX368PvRjatNprc14vPPR7P9j1KBZK96doPMZg973h+obQwxer+roNWupeLO3LHEXn+cfUp7626SgPsYjbFAatv1vwQqTRS2PLh9uS5hadtrQ/mMwsCeO09PhbY8rBbqdGfoVeeOnz2GT6TNp6i9FTfd16HDV9uuToduo203X0KrDg8cdxop25V/54KRZVJc8gTpItvf533BYxsl81YKiCDuE/E6M8k2qSKBG9bdKmMUDjkB5C0bHlO+L3boL2uDMHDbUohJGbNx4X/j2eEDd9g5P/LM8e+Vs9JRFSK1sxoQVkPdp43pZHMPdggVasbaT9u3tygPC9mDwoiX/ur9OstWKPlUnHM/yM9KLqZwpzo7Rn/3khHoxEOY2ngAdm9g5LL6pJ9+M6Pdd1bzxNfJ8H5eAxgcLuFB134lG9Isj6sOvbqo/I9tJtEVmPIe+4hTSkRv1twSdEU6wjbZKse3oy5DwCCxembZkjaK378cjF5Ufr3VvrQpPDdJpHjSb88aC5SbO3xM0WnrCO4Lb8NEXbpi1HtmnqUzqParA/Xizx43RxZl0Ycub+ItG3om2EnG0fixKj0xQt6nQKNH/b7zNp64311B7PFkWKtk+91Tgq61j8a45GSVK3maoj8hY8qo7s58obN2lf5z00eUTrn/wdpSTZ0up/520hZP+0Tkee7Pt0s6ee8WzwDR9U1dddcXJyQjdu3NAh0G9kv/3YE8Ar5nVvomVPWCcTb78xKOXsBIw7g4vsF+z58owKNUYEjYyrBPT94mEP6Ytbx62dMCCWbvUWHlXQJ6g/9G2vuqXn8Uobb2qbrjBHtP4djFQAbNgL13S8SbxTcnxljVQABhV4VIEE7Qf6EegtGCSg76AfgUcVAAAAAABcSWCoAgAAAACATAJDFQAAAAAAZBIYqgAAAAAAIJPAUAUAAAAAAJkEhioAAAAAAMgkMFQBAAAAAEAmgaEKAAAAAAAyCQxVAAAAAACQSWCoAgAAAACATAJDFQAAAAAAZBIYquBcaWzN0NCjKjV0OEjt6RANPa3pUDo6eedcOVxLLGOvaFWXccj3hkSdyXcbVH00RGuHOnIAkfXRof508y44D6DP7dLpOBLkwvvCaZVmhmaoeqrDHjVaE+NbZzrQzbvnRa9kCvcNnjtnts57puo9MFTBuZJ7sEnNl9OU0+FeUHzcpObjog6BZGr0ao5o/ZOosx63AwAAXD5FWmo2aWlMB8GVA4Yq6AC1UvNXZoEVoLXyDa262fvI3j3+iVV9Xd82yOet+Ki1n70qVOlXpTzqvTUhjZJPha0VuJRrjaoJeTj5y7R8omST9yYrRG/mqSDuh1fBtiziZ9VFWPaAt0DKa+LW6EDfjiJKNtUuJarQDs2PiPtP/38iXKD5N0SVSfu5uPdTyNi31J12CXoZpNfe1IduM75XmNshWi3peojXe4nUdaND6lmTpqsn8XFK16tWvKuTNlEyG+Liwu2b0H+knCK8ZfXhoDyOzrq60qoscToY1W9Ve7E8Ufrs1mewLjxiZe2iz2aRVuNIXD1E1LvTLkEi09F16bSBah/T5+L11m2Htff6dgitlzK/CB0NtL+d38xWcAaKlyesv+HxPv27ru63kqn98Tmub2jk2GS1tUDlET++XCpnPeLHH3/UV6Afabv9as/Ors2+PvvK1yevzx5eu3Z27fsPMupr9WHktXru4dnrExWMfM+kKfjwvR9nw/cfVtVT8h0rTfmOSPNZTYWdNHV+5l0Re/Z61sqDy3Tt2ZnJ0c5f5ePHOeWy6yKAW4YPZ8+CslmyO7IGnjXhqHzc96LSsepc3OUy++mG3w+XO07Gy6eTcSdYJqMXpk7cNlP15eibFxcIS/3xn+V01HWgLZ1+kBSnZYnRSRt5P9CGthz2O3Y4WBcyzpLHbW+tg8G0THxA9nbK4ubjxpn28fqtk25Yn/ld71nBh+8tmQw6TbfelWxO3oH2CdZXUO7zpn19D+iXacO4NrPHwGC967p22sxpIysdO2zVrcQaL926dvuaG6fDdh4eXCZzP6ijEe1ntZdqTz++pTzBcljytPOu/WwrmYLxoXctGdxnk/uGfR31bC/p1j6ERxV0xtgErbzZpgOxImu83yZaXqHyx7pctdU/71D5Vl49Z8HP7Swv0PSwvjE8TQvL+lq8ebC7Qyvf+tvTxZl1Kq/ut17hWWkW764Q3V+nWb0NlMuPEr35YnluV2jhgckhR9Pf+Xk0rs9Ss7lE5lBB/lZZX2nZ3vpxuTvP6fgur1uTaFB+xj6mkKeb9/WlwZLdkfVwnypWOXh7a3bDyGMTrrfcgwWvbVqTot7jZOxnAnr4XNRt5R2XuEb7q2Van/Famqa/XaGd3QNRU2Fyd6a8uqq9q9CK6Ac7n7l2GlT/SDSaF7UabEup9zu0/V6kmBSnKW/Mujqp+5mPlvk7uw2PaSHPzwXLk9y+rftPIK3He844EO7facqSpu9b/XY4T6O0Q19+UkEXVe82xcebvkwaJeuev108PE7PP02I9uiiz2aRFuNIqM3GZmn9foX2PU9h/Hhpk9j2om6nrDS5n5TvjYvUkvpajN7q62Ts91T7HdVZB2PGSn2dpu/b+ktjS7Tn6Xd77ybpvivT+Y3P3Nc9+U4PaPvNCk14epItYKiCDuEBgCcL1ZFG787SFPGEpTrs1B3TrXyiDFjfGKzTF7NNYbY4RubFdHQRHFFdTLS5YZbZ3zaU27wSlq1MN6/rICOezY0V/UErEvEMDyDecQe1FZOGRv2I6HbeG5wYOQiFiJDNaxsdTOQy6z1j8MRxWhfaoI9KmPrgox1xSKOJ9Ufp/c0ZsYDjScQa+GVb6qMhJs3Sqno9KS41UuZRyhsjgRH6WRT6mYuMMzLrcNcoXYvr38pwT6KXOigMhJfHNLVb8NIKHutgwrJyXxX9eazzPptFWo0jXA/qKIup+zTlDetOctvnaPyeWAj+UBX9q0ovVrXxm9TXYvW2G+LGSn3Zbt/XyDJ2+G5Lmc5zfJbOpnl6JRYQtc15ItsIzxgwVEGH6MHn3SvRkXhCzlH+tlhdPnkhVvBTNG4PMJqoSUsOlBLunGJFyh/9NO2f78U8P9SAqM7o7NOEzvvY8zy0Y/jZ6DNW7yZ0WY5pPeidiUFOJmw46TAjJ50QUbJFDX5xXGa9Zwye0OVkuEJ7Tl2IX+yHaEWaYK/K5j4dSb3n+qzQiyfsYZqQdSjbcnnPTU/8NsVknRSXmiTDMyouygjoCqVrcf07anfFpbc62BBlnX5p0tij0blC6CxhvAHdeZ/NIq3GEa6H8saxLqv/S/4wKaw7rdre7PK82vT7hdLNmL4Wq7fdEDdW6sskefQjUcgydvhuS5nOdXxW3vXKu7VY51JWgKEKOkZte1aoogceuZXwRgxOclsnjHr+hXNY/4XnPWLDl2j+SeCgeM8PdwsjwvOwiEnpiVidavnlwOqtKpWnWKGN8klflnSyKYPR2w6SXjZ12RJrtavgr/ej1tGWt0LfaWzFLxbCXFS9Z4yAHi6Kul25K7VYGJ4VKgU+hEj6iETqvegHJPVetQf3A5WegNtytWQZS9bHJElxqVHGst2Gvsw6btMqz6av8+0TSOtpydO16P6dZgLsoQ5yW44UAvUXXrQpWa16F+/xh0Brh1302SzSYhzheqC5RafNVD3ocMJ4adO67ZUeVsR472+PJ/W1GL3V150RM1bq6zR9f2fula+Th2tU8srY+t1oWsl0vuOzajeew61jGxkEhironGE+e6RXlAwPiuIfeS4viuFp2nw76m+PPCGa8s6oik7zYJOO721726CF3Sk67rlnb4WmaFHlz9tct/e882h89ofmzJbhItG3fBaoJCc9KdvGEZWiZNOTAcvtTpC8YhWDjFXeBV7BTrpfW0ZTpKVP63Tkbfns003rbJlNZL3FruT1wCjTVYPdxdR7xlgWE/QTXbcj8zT61vci8Z8/2yN/O7QkQsYzYgwcvu9N5gG9l884xhH/+Zw9Iq8tS0QiP+U1TYpLj5T5tn+EwJY5sjwd/3k3YcTd2vfT+rju6xr3709TtG30fWSbpj6Fz4dG0bkOBvSZZdBeVCVjiY42nodlkLJa/UvKyjrQTZ/NIi3Gkcg2sz2q8eOlQ4q2V+ef3QV0Ul8rPj6m9Y9+3P6ttGdU42E9s/vJoigd911DkjxMeeMm7eu4ockjWrfK2OrdOFrJ1LO+oe86DKs53FtUR/w1gCzwDX9Rpa+74uTkhG7cuKFDoN8YiPZjb8HIF1q46kbYAIFx5yJhb+8LupnS+AS950L1vafjJR+pKND2veO2F2FZgT2kL271r/yRsGE6SbR3znNit3oLjyoAAAAAzgfppSvQPK3T86tk5PU1+iz2ZMX5azZZBR5VIEH7gX4EegsGCeg76EfgUQUAAAAAAFcSGKoAAAAAACCTwFAFAAAAAACZBIYqAAAAAADIJDBUAQAAAABAJoGhCgAAAAAAMgkMVQAAAAAAkElgqAIAAAAAgEwCQxUAAAAAAGQSGKoAAAAAACCTwFAFfUCN1oaGaO1QBzuksTVDQ09rOpQVuGwzVD3VwU7h/572oyo1dLBXdXYVOXc9OK3SzNCaaIH2qT0dopkt1Yr29bkhZe2B/gEAwDkBQxX0AUVaajZpaUwHQQpQZyAFw9O02dyk6WEdBgCAjAFDFXSI9gRurdHQkOX5kR6aIXlvKOipYa+fiXtUpepT8a/2bIW8R46H0PY6dpBvDNKz5r3je8CUx03I98i+rzyU5vmZp2sBT5Qb73syY+RlpMwlqtAOzY+I9zwvX1xaAqecKj0p72SF6M08Fbzndb5aPlW/VStd2+PX0GXVP1G2q++NrTtldtpFwPXl14dfUy4J7SSoW/rlpu++F8w7DkdfLe+5q6/8C+i/3e9E3NpT8bx5X+qT1gV9XU0rd6gPAABA74GhCrpAGFifJ6jZbNLmg5ya6Ea2aepTU95rvh0VBpg1CU4e0bqJ+45oe1Um0gFt5BuHmLwLc6O0x8+L395yhUq2QbK6TfQdxy1RURpywqBc3lPpi9+CNC8NPIGXiN7q/D+t09GkPYEH5DVIb9YerVBZ1cvjoriZlJaQ48k8jZq45jFN7b6i+oNNUeYVovvrdCzux3lRd+a+0IR8zy1v7WmB5km9y3HHt45E6a44XvuKn6hjmit4hiYbqSUybX1M6x9LEcakaqejjWP93B6R0+YV2qbnVvqLfhsKXfLec+LiYWO0sDvltdHebbEoidTX/3975xcax5Lf+9/JbrJ/pSSbP5NYhlEww0UmRORBA4aLBPY8XeIZHKw8xFo5SNw3Iy4IYbCYp0EnxxbiXpwN3CRIuTYiDx6BovFmyYNskCExHj8pBOtBmHg4kvFk2c0yycnZ3Zxd3fpVVXdX9XT39PyR1CN9P9B2V1fX/19V/epX1SPRfmtEs/cMRVQsYoquzMyJdz3JbSY63+F9AAAAjgcoqqALhII1xcqVov5yiyqLc9424tg0rd4o0Y5QAJr8hJI2t6jv2yZ+umHUL0yLyZaVUEX6Ul7facz4Dl/Q1maRtqUiqchOrYpcaF7vUEkoidOOgijLVqGtl45yY+c3ksi4avRuUz1WpGjykVeGVuTXpu3yvqkJ9aNKO0sifx9PitgUqZtzQnk+4/hkcWUtT6XnrPjp+nDbS9TxnSJVnr5Qip+DbqcVd+GRpem9OUq/d94q0pzjN5SmUaHSvXuvnONCoXQXLNKvFXV68bRCxTteG0n5W9oRudUY5UmlRYyb74S0OH1j21i8iHyKsoYTku9WfQAAAI4JKKqgZ9TeVoiWcu7W4OBghma1YsV++Utp5dA0KYcdEpVuGKkhnoy9rczMTOe2oXpt1912d/KQ69BaHB0Xnztly53nd7a3508YVtwPa7TLFnA+iuG0AR+r8CHb6XLaVRyZ1FCWsmPmkyBS4j0R3t1e56MfrVALlJLR7oMjs7BmAgDOBVBUQc9gxTPvboV6F1tz2K/ylm08HlLB7AFR6YahFIUddyt8P8rKNDROhRv20YDquqcoSAuWsSXqXNY2f0xaxVU/TMuPpORz61hAp2RpYlEoZs5WsaC+8fDsb/0HwYqntCIW3SMh7vXIs2Yysp2kRbpd1OJo3tlel0c/WpGm4Rt579iMe7W2pqeuFCgvFnHegqZKjztZlLXoAwAAcFxAUQU9gydF67yd/DhDWf3UhPnQ8ntoWB2lIutur9ap/J34qlJUumFIC6+7Fa62VsPhLXahUBhW24dCvXBV27EJ6WcqA6yMxP1IxiIqLj5XO+KdpVSMUtrZwu6Q7N19WiXPipt5y6raGccni/NCeSteZWlgxd2nkPGHVdZPfwm4nTZnad5t45htLi22xvY6HyFQdxGkaPy6ce5UoBZaLc5hM3wO+lnRsMY+FAuhTnYyWvQBAAA4JqCogt7Bk+JegbacbVP9gZO0bMoJkz9y0n73iArGGdXUzRVDWZonut6GqhSVbgh8vo4/oFGTrkjvDp/5C/poRiOUQ8f6ytf61LB46CiJ/i159TFUPIuqtmhy3qUyFBHX2IK2omq/Ef6wSlvVtOLE9de2giyUp7TzYRFfdyfEwzwNX1DeZ5JFsbi5Z9ajJy/Zuw3aJk8hkx9W+SyqTpuPujIUs82FrM6xIqzjHnw+Qduy/aOVztTNddq/vuUtJuSHVfHOJ1dJfcinrnWaviQe+o4txCKqD8hfFsAvAAAAjoGjHvHpp5/qO9CPnEb7vfpk4Gjgk1falWAOnhzdGrDz2jd5b8mrowdctuknRx/0kw/lW5Y7yWDciUa2pWjfB1X9QLe3547Jme4D/QPkHfQj3cotLKoAtIIttvpnilwr25tV2je+gO5f1B8GkD935Fjr+Ge7miyIoB9hS6xlhdc/qRW12xDIme4DAIAk8xFrq/q+Kw4ODujixYvaBfoNtB/oRyC34DwBeQf9SLdyC4sqAAAAAABIJFBUAQAAAABAIoGiCgAAAAAAEgkUVQAAAAAAkEigqAIAAAAAgEQCRRUAAAAAACQSKKoAAAAAACCRQFEFAAAAAACJBIoqAAAAAABIJFBUAQAAAABAIoGiCgAAAAAAEgkUVZBsDss0NbhMVe08NmQ6U1Q+1G4AAAAAnDpQVAEAAAAAQCKBogq6oErLg4M0qK/l1+ppfWNKuG0raPW+eOd2merskNZLJ5xhxdTW07IM78XH1PQzvqY2ZCya4DwobD87XJ3Kt41wL/VjAAAAACQGKKqgQ1gJzBE9a1Cjwdc20TWlKKZuzlGRSrTjKo1V2lnK0+rHk5RiZXRkiwp7OtyzUZodMZXaEm3RivRbGNOPjGeNvVWimXmt3PryIPx2rzmKLyuiOdpd2w8IJ0Lez9Ds5W3lJ66Jt7NUUV4AAAAASAhQVEFnvN6h0o1VmnaVySxNr+Wp9JxVTvNeIN8t0PiQUB9fblFlcY4mxb1kbJpWb5hKbZHmbqb0vYPxbChNo0KlfPde3PvzMDRJc4sV2nqpLKfjHzdo3QrnoBXnqax2ixxPrVJe3wMAAAAgGUBRBR1Rr+0SXU6TqVKm0kIVfFOT2/upKwXKL+1IS2n1eYny18flu7W3FaKlnLvlPjiYodlNDt0+Mg+bs5Rx4xqk3JL2FKmlWDF2jwzkqKR96LBGu0JtTTvKMmMpsgAAAABIAlBUQUeYSqmDpbwOjVNBWkqV9bJwRam06Ut5yjvb8cblbfPHR+Zh0du+dy5lRVXnU+edIwONbSqqYFop3aWaczaWkcorAAAAAJIEFFXQGWMTVNycpcfGOdTHMxUqXnW201M0fj1PpWs5d9tfPr1SsM6KOh9W2R9BxYTzsJQzwirlVH40JRVP48gAHxNQd4IsTSxWaHbdOxlbXccZVQAAACBpQFEFHZKlBf0BlbO1zh81mZZRuf0v/i/emfSOCAxN0vpegbZGdDj9YVUnFtWwPEiLqjyvWqKcfC6u5xO0zcqp/nAre3efVt94RxB2LhlnVF8vi2f4TVUAAADgtPnoSKDvu+Lg4IAuXryoXaDfQPuBfgRyC84TkHfQj3Qrt7CoAgAAAACARAJFFQAAAAAAJBIoqgAAAAAAIJFAUQUAAAAAAIkEiioAAAAAAEgkUFQBAAAAAEAigaIKAAAAAAASCRRVAAAAAACQSKCoAgAAAACARNLTv0wFAAAAAACASTd/mQp/QhVI0H6gH4HcgvME5B30I93KLbb+AQAAAABAIoGiCgAAAAAAEgkUVQAAAAAAkEigqAIAAAAAgEQCRRUAAAAAACQSKKoAAAAAACCRQFEFAAAAAACJBIoqAAAAAABIJFBUAQAAAABAIoGiCgAAAAAAEkkCFNUqLQ8O0qB7TVH5UHudMPWNKRq8X9Uu7b5dprp2gwBeLxttJ64k1tdhmaYGl4Wk+e5PC5mHXsg5953T6y/9iuzXQlaXX+sHJlqepzbOea/nejiBvowx9oTwj9M9HgPRjsdD9X63Y5HSr9RYV6fy7ZBxL+GcrqIqJ+wc7a7tU6PRUNezUZodSUZlpm6uU+PRJKW0G9jIweka0bbTduLavjxLmdNWBJPO0CStN9Zpcki7walQ+k7zxFp9XtJ3AJwNgsbp/bVdyvVwnMZcmVSytCDae2FMO/uUU1RUhXZ/b5ZIKKnrNw3xHlsQnSjvTSLaAlbWVhB5+VZujoXE7yef3y/LVYS3grQtuM5qhVcumZkK0VJOPFdWKhXe6MoyL05Y25KlVj5lI25zEPBZjc04+xVRF/MzRKt7C6IreGTvbtPq2rBYwesHgnjtw5ffOmjXm7d40ZbEDdv6ZaXTchBWq0u7LVR6QSvYsDK48Th+AfE1+WmZ9t5sr5wSvcgrUUUu7Mx0WRab0gQ2i0Uqbm7RC5+87SyJ54vaKQlv35bya1mxbD+/rC5zm/njdvxNeQsYD1lezPdt+Q2TLSUnQWOWjOtaiWiTF53BRgN//t2cB+SvWW69cC/0Y3BMiPoOGqelYtmY0ON0FzKuUe/pcK1kQBA8RgWPd5asRc39phz65N4sU1SfsLBk1VfuUD+7DHzJcphjQWT9NteVSWBd6LjtecNJR+fnkP/P0OymWKBf02FlOLtcKv5Wc+cpcNQjPv30U30Xl1dHDwZuHT050E4Lw+/gydGtgYGjW+UPyuvow9GT6YGjgU9eKVf51tHA9BPxVPHqE5+flYYK68Yl4/b85fs6LGO5fe/63TLdgQci54Zbh+V7L//sNvOUDNpuv+oDq97DaKd97HdZBgaOHlSlw1ffys9sK5mfkPpXYbVf2D0TUqaoMljp6Hw5eQ5tdyvdNstpwf62LNn5aXafNdofd7x+zf+b7eM8N9stqn3l+2Hya7Wjz0/KqtFu8l0vHetdgZUH/a6bbxmX39+Wn2DZ0vGG9Zmo/t2yr4WNsb78aHdoOqCJ4xinO5ZxA/k8lgzo9Hzyrd7V8uDmpUVfiJBDL06FN+dG9wkXXQb7PZ2WP4zl9pVBx+OVIbp+/ema5YisCyN/1nOZnhO/0n/cMgnsemr27xWdjNMmp2dRPazRrr4NpkLv3utbKtKca3VN0eTHq5Rf2hFaf51ePK1Q8Y635ZCdcvw0i3PWFuv4xw3PgjuUplF115L6yy2qmHENTdLcYoW2Xnqrn/zatLtqTV/KE72piRzWqfZGP9Rk7/b/tm+95ms93xkotSpsr31SadEam++oxo7XO1S6sUrTzpZFU33naXXKsxHUL0xTo+FZDWT9t2JonAo3SrSjV6K87Zu/Pu7bvooqQ53SUw1q3HVTpeEb+jZuu7dZzmjYImi/31TfwCV1pUA081jXjW7nq2ZdR7WvJkx+aZxWjOMd0k8j5WxtxZMF2eb6PlLeHIzxcGxCuIw2l2OaHjtbylbYmBVN675m5C8qPyKG6bUY/RR0TNM43UQ3Mh5FiAw4Y9THpnzv01zakTtz/IruC+FyGDH2xugTjJrvt70tczFXrOwpC3RrXcDsjzzHiNpwy6Dqd7dmpOeLa4V3lJ/7R+wW44IMx8c5Bin3ZpX23faMJnu1SJWnL1TdH76grc0iTbj9MzmcnqLaUknM0/AFfRvILtWEsvvOMWU7StLIrOgSYaQoJQTCM5/z1mk8am8rlL+U1i4Fd4zK21ZdVijWj/ap8DTj5jHKtN8vmBOvZGxBnn1qNPZp1R3o2m0fDznA6q1HJ2xuSXsGkBri7utt6chjHC1J0fh1fczksEwPl8wFkUNUGZQ8eUq62lpRxGv3dssZiVz8jVLaGfQY2c+4r2g38BgyFio8SJOpRDFR7dsCIY8pMfy7W3q8lR6LzvuMn57KlkFnfU3n53Ja1ItH0zgCekrr+u1CxjshcIxKUXYsa8mFIrovhMth+Ngbt080z/dcT1mRzyC/uLpAGzQtGFuPC7zwZlW92dgSAS90RX08FmNgdZ2PYnoL1yRximdUeWXRvJJh6hsPxaqnQOOmMDfBws5xiNXLnjog7l32eRwPJdTztKLf2xbrvngECWKQwAZRF0rC5CMnb9s0OpMJPxfTL1wYpnzTGT9GdShFu+3jIQdYsaK1wxnWcB9q8bFDE/o9Pucch9TNOXlW8fE6r5InAvIVVQatiDyf0M9MJT1eu7dbzkiClNKgiQFo9ELleVUN0gHW9Kj2jURO/PNEH+s2feaNNNKKMTPvnQ2TiyR930Wf8dNT2TLouK9xfnwTsFQcwPEROk47dCHjndDWwjm6L0TJYdjYG7dPRCme3egCsfEt6FqPC6Id783S6DMuqzG2tETtapSeL0tLd+FKd2PDcXGKiqrawichQJalSQzwvDIyTdxiHUEP3XdUgyilgicaotl73gHryMPActI2rGa8DaDuWiJXK0sPfZNLjIYV782P+MrY0lrcB8itBlH3I+ZhbB70TCt1m+1jwiu9pVzTAfEwa7QcKNzVoNomiUeWJhYrVBKKQvAWe1QZWCkXg4cTTm6dqNvY7d5mOaNRZZld92qXFbBgBRwwcqEi6j8X2Jcj2rcFUgEztvSsXxOQH4xy33EsI+9o1N3676LP+OmpbHl03NcM642iSo9jWmNBhwSO045M8Qc4nct4Z+gxypBv+WGV7yMpRXRfCJXDqLE3Zp9Q873xnoiTP55id8e6QBi+uOZZ/7GOIDHRdVHfmKfZy3xUIUsL/MtJxnutUOUpUck8gpAwTlFRFYhOtK5XO645+9quXDXYP6dQpALN63cyskGcMzX89eL+9S3XlJ95WqD9MOuDSG9usSTPcci4xCpymzvNiGpsRzjZzxNkDed1r0Bb7uSyRYW9GGdNm8rIP8dlnE/rY+SXo/rnxFTZMrR1fV/UqX5B0Fb7WPDPamwTuVsdOaJn4dYgPq/Dix717jzRHT6/k4s1KbOFiyIs+OFl4NWooXDcI5rj1ek1MSlQ3HZvr5w2etDn9PVAn73boG1SMsxXTri882egGa5D8V/gIB3RvsakH4SjADvtsHN1WyppGfklbp1qaWdXR1lFJsRTxyLTeZ/x04VsaaWS8+DvQ533NZGfvVXadfOzQ8MxrbGgc5rHaUemeJ7tXMY7RY5R8mcMVZpyjAr5aauovhAqhy/HI8bemH1CzveGrMr5XuslneoCYSwWiO45cbFVNPjnpMLqIi0U1gz/soOz2BibplUS9duk/LOyy23L4Y2F75A+R9ukHCeHj/iLKn3fFQcHB3Tx4kXt6iG8khl5R3MdDdQgLsfWfomHrcBKwY6nHIIk0Y9yyxYktuCuOpObHOO6nOzAueD8jtNnE7aKZt7Ona4xgY8pyd/ZPT4dq1u5PV2LKgCniTxHmBFrz1VagZIKTgi2KFkWLmlFgZIKADhJ9PnkayUqPku2ITD5FlVwIqD9QD8CuQXnCcg76EdgUQUAAAAAAGcSKKoAAAAAACCRQFEFAAAAAACJBIoqAAAAAABIJFBUAQAAAABAIoGiCgAAAAAAEgkUVQAAAAAAkEigqAIAAAAAgEQCRRUAAAAAACQSKKoAAAAAACCRnBFFtUrLg4O0/Fo7ATglqvcHafB+VbuShvrbzj3pJ4dlmhqcovKhdp9H2qiD+sZUguXieJBlvl0WUtea6PqJllvuc1MbcVIB7WPOrT0cP7ok2eMs6DWwqAIAQCcMTdJ6Y50mh7QbWKRurlPj0SSltBv0I1laaDRoYUw7E0L2boMad7PaBc46p6yoqtXaoL68VTE/n6LyxrLr5189yRWVG66mn4KTo7mNZPu9DmsztRoP8lPWlLLhb1uppL8TbnBZpOzh91v2rbQt/1DrTpgcKjmb2igb/nb6VnlF/FGSaMpsdPntPDDxwjp5CyoPP8vQ7CZR6Zp4btRFvDqy22/5pX7MSMuiWS/Nlpd4aZwMzfXNeTfLF1P+zHLr+7LxrtOG3HaZmQrRUk48N+KWYQLSjIhLESavzX3S7oPR7RAmYyZN/UHGYebHqx9Vz148/nr091USvae5DcLl1uaFVSe21c+uryRYBE8Uc4zyybbV5kbbeWiZOmzdDpZsuP4RdW/Jv5Z3Jxzn2UrDyYd2ybR0Cm2ma8uhXR8goRz1iE8//VTfxeXD0ZPpgaNb5Q/KefDk6NbAraMnB+x4dfRgYOBo4JNX0stxP6gq14fyraOB6SciBsNt+IP2ab/9fG0k20+43Xax2+zVJy3a0217X/tWHwi/ByKEwopH+nnh3Dxof7+c2HlwiJJDHSYsfd+7/vRN/Gmbbn/5nXiC687Ob1PYyPIoP7OfxKujkPw78co0vDrypxM3jU5oX251fow6U2UJyW+U/Jnl1m0WJkcyTrPMPn8rnci4oto3xrhplMXMk90mvjQMVF05caj3mupSx2OVOU5fNfyl25WZZrk1sfMksNKy66Cp3vuMtuXdV16rXrmejH7J7uY25/pzwrfZDpF17/PT7tC8WflQaTl5bStdeW+8y25X7sFx0ck4bXKqFtXxjxu0flNvDA2laVTdafK0OuWY9tM0fINot8ZrpTq9eFqh4h1vSyl1c46K+h6cJEYbDY1TQbSR1y52m6WnzK0a5WexOOduoabSQhI230nrZP3CNDUaC+SGvJTXd2LN/LxE+bUVb+t1aJLmFvV9gJxkp1Ypv7TTZDWIlkNRyrVpO/03Nblqr7/cooqRbzt9kyrtLJnyHJAXXzwra3kqPWdff9gUTd4pUuXpC205EJhhBa3K4xG3jkLyr++jid8OJ4pRZ9mrYvS4sUrTenszrvw1U6Q5q94r9O69cvppkp2xaVq9UaId1/ITHldX4+YzryypKyu0f5VbN4aMGXj9IUXj10V9GOUw+4dJdF/VGPGYbRAHs4/S2AJtL1Zo66XIxesdKhltq9LVfueCcVoxjqfIetXUa7v6TiPqzZWrDrHaIaru/X4i1LQY8zoldrrv34meZCD81nGEIPGcoqKaopToPJ4ZPkcl7RNNjd5t5mn4gnZKAhQfkCBUW3tbUGoLKQ6pIR44vW0cuYUaC5YTvU2lww6OzNqDlKRTORQpvK1Q/lJauxSBisxhjXaFOpHWk4VEKhi7VIvaduIJX4at0OyIUY5rUTlspzwx6yg0/3GI2w7JpHP5i4ZlRx0FcOolbp/o4bgpypYay1K2bRnrDypvRf9hZWxzljJuPQ9Sbkm/cB7gNhbLBvdIhdGufIZ4//qWVzcB2/ndEFX30u9yWuTNw1SiuyGyzYUy3nhGlHP9go47gKRxioqqGvznaYUajYa4tmNaRVkp9Vsq1GQIkooeKJ9P6Lbep9WYCws1Ie/QhAzXoH1j1c2WsMrMvHfG6LBMD91JiOUkT6t7Kpx3eRYlRadyqJRSngxNpALiJ0gpDVL+/PBALsMWadsqg7hCP1Jppzwx6yg0/3GI2w7JJEr+uoFlJ7+276uTOB+t9HLc1LQtY+0T3VePB15ESuVncdsul7i6tRz2DdI4ME/0sS77M0NaDoVayh+86TrZviyUu5CzyZ0QVffSz2d5b7Lwdkh0m9epfkEoq/rZ/tou5XqsoIPec3qKqpzojO0tNteruxao7abSdzzhqm88jG0FA6eBsua4W4uHL2gr5sJCWi3dbR21fekiVsf7a+RZgkbe0ai7nchyIvzumXLCSodvBd2xHIoUrhQov/QwxuSbpYnFCs2ueylX12epsjjhKWu+eOZnKlS8yr4ctkQ5YwKRH0CEDa5tlSdmHYXlX98rRcfYtn792LAOxk0jmUTKXxew7JBPceMPS1p+6NPtuHnNq3evHdqUsU6I7KvdU5l57MmTUM5yS3kqXBF1NDZBxaWcUa9K0bc/Tju7SOXPOFLBRzAUdSrfy1DG18b+HaKuiKp79tucpceG32Nzt+LCMOU3t+iF7h9tzfER6VbvizKP+MYen2UXJI/TU1TluRExOPKgxdfzCXmuaNYvRAHwloVc/emw81QQQzdILnz+yJik7hHN8RnMa62/uOTzjDSTUeHYMnCHzzfm9ERTp1rasSzxtUAT4qkz2Pq3tjJPC7TfZC3sXA7l+aZno1a5CiGTL/+cyjZ5W7054bJ+XmVRKC73dDwjszT6zLOuBYYNs3ZFlsdRVthPlS9WHQmyd/dp9Y2Xh51L5hnVLC08K3rb+8+HLYt53DSSSLT8xUctalT9yQmUZWevQFuu4rZFhb0YFtUux01pQdJhzXZoS8Y6IrqvRtMst37ya8O0o/M+eG2XVvecc5n880rbRO7RkxyR6FvnxaIqv9/QcsfXztVtqSBm7tdo8pG2omq/3JtVWomsl9btYBNV98Jvb5V2Xb8dGjZ3K4ScrxhzRntzfHi6LOdWH5gZpW2cUU08H/EXVfq+Kw4ODujixYvaBfqNfmw/tvqw5cSdlNgqJSf8/vptS7ZsZd7O4XcBOwDjTn9wVvrqaXOW5V2Og7x4wm/vnjm6ldtT/eofgG6QP/psWjSlJRITHwBJA30VANApsKgCCdoP9COQW3CegLyDfgQWVQAAAAAAcCaBogoAAAAAABIJFFUAAAAAAJBIoKgCAAAAAIBEAkUVAAAAAAAkEiiqAAAAAAAgkUBRBQAAAAAAiQSKKgAAAAAASCRQVAEAAAAAQCKBogoAAAAAABIJFFUAAAAAAJBITlVRrd4fpMHBKSof6gcG9Y0p4TdIy6/1gwhkPPer2hVFlZZD0gPtUqfy7Xjt03MOyzTVk3Y8ZXmIXY4zIrc9a7fzQOdtLsfOWOPh+YbnjamNunaB88xJ9Zn4ugowSYBFtUKz6/6Gq9OLpxV935rs3QY17ma1C5x5hiZpvbFOk0PaDQAAAIAzyakrqvnFIuWXdshSVQ9f0BYVqXhDuyVsYWALrLrMlbC5MlYro7K09ql3tVVCWnNyVGLFeMRe1SjLrr58z6c2yka6y1Y+Hauv3y80Dy52WSyrpMxnWLikwPnP0OwmUemayOftslhaKKw6MZ77Cas7C6sujDaXz3UYfV824rOtJD65ub8s3g+v1zBZsOm0/ZQV2g33Uj92iYiXebns+jXV2WvTz07XKpMvXKzyhsbN+RXuDcPfiqNVeU8Lu56tPEe0X9N4IOXbjMuu28C+IOvSe0++Y/QT2R5mfsw2j6hbx4/DZ2bEIn8pJ5775U+nZ41NnBczLn+YcJm043LK1EKGHaL6Sahfs7zJvm7Kp1FHzWX1jw024e1llkOXz2oLhRXekgW7ToLCHh/t1Zk/r2Z9Ncm/VcZgeVT4/ZZlHKZshI1DbctrG7LjpNOqz0SVrTl/vvBmPQuZqunHoE2OesSnn36q7+Lz6pOBo1vlD/L/B1X9UKCevzp6Mu08/yDv+V3JwZOjWwO3jp4cKKcTD/OhfOtowPCT7uknIgbm1dEDw4/hsAOfvNIuOx3pN/BAhFJY71YfhPq1zoNRFjNPvnL50zhO2m8/VVdmu9nlbHa7RNSdhz9+duswsp7M+zDZUHGYcas2dfxtebDzYcuCRxvt53P7y9mcF6O8Vljl1xTWqVtfOla9c12bbSDclny3Km9U3E35sssQXd7e0M244/DqE52nOO3nyq2WLb+/Lq9f9j0/Fc6qIzcOQ5baqlvbT6Zt1LuJ9Gsqky+sr30dv8B0jLia3vfXp4N87n/P7M9GGMut4nfLpuMJy29T/nzpctkdObDLrfzsdFT+7Ho3iBjTzHQYV946oH15b6fOfGOAVfe6TBFl9OrFbgfpZ9StahefvxvWzoO/DVUefG3sxO3Lr90mvnrw5VHG4/rZRJXNn7/I/Dh1H5LOWaaTcdokEYqqPZmyIHDjmgP6h6MPTmNLnHe0y4lH0CRwTcJqCE6TW2DkxYyXMYXwg8ifiZluZB6ssio+HLw6elUVZfSHE2+Zk9px0r2iGpTXgPoVRNWdB4cNKbvs8Lo+zXuJEa7JT2ANHmb+omXBpa32E7G6MhQQv5mXgHgjw5rPRH2G5VHmyV8GSczyRsTdHIc5ybQob4/oVG7Nfu0Q3X72PeN/36vrgL5gyKIXjuvowdEDEW+zvEbVrUjBqkM7vaByODT5+duc3U4eAuTBDN8yLoG/zpjm/HF5uA8F+ZlxBNeJV8922wbFZT7z4o1uL0aGYyXDVz6H8DHNzlO3dKaoxq0zv1zZYQPlX8t7uDz602f4WYS/IUdNbRghr03vRubDbpfmsA5t9rXI/Kg6DE7nbNOtopqMr/7HJqi4uUUv2GT+eodKi3O+84cpSgm3t7XCW/g94LBGu85RAMc8fy1ezKmhlPjX2yaRWwcxqNd2iS6nRYk8UkNZyo6lqPbW2X5w8qO21/uDGr3bzNPwBe2UpGn4RoXevddOTby6y9JCY5uIjxbo90K3EXtBTFlo1X75S2n9VJG+lKfK25qOf5TSplwPpcUThYx3c5YyTtriyi1pz1B03Yr6TJnbU0a+UzfXaf/6lhevs6UZV/Yj4o6kRXlPjxRNPtqnwtOMW25nezOy/dqC+4I+FuPU7cisqG1FKi1q4U2N6jzW3Rim6atFKj2vUv3lFlUWJ4Tkt0KNh9624vGME4Gy7uRdu03iynBzPXN5uA/1sg0iaMp/dHsxqSsFyov/89fHrfpwCB/TwuUteXQ6z3Yhj13MwX6OZ/7svGxhsgzaJyE/T5WlicUKbb2sUvk7JSpe9Q/VagCYpxVqNBri2qai9ukKOXEWaVvGaVyPJgMHIxPVmXdoQofZX4sngFEDPQtxfm3fzou4FsQAnnyClNIg5TV+3dUP00JZ1fWwt0q714LOD0UwNE6FGyXKGWeKquv2BOQSUxZatZ9/QnUHKxn/LtXM/MtBWiHjXdy20xbX+s0oSdR1KwfReaKPdbhnRu84FDkVyqoT3/ZloUhwfcSV/ai4o2hR3tOkLvI0+cgp8zaNzmTkIiiy/dqC+0KeVvecNJxrQSmhemH++PmuUnwuDFN+6SHNP60EjH1B6IXD8wkd7z6tWuf5e0OQrAcprw5xZThK8exdG0TQlP8W7cX1fW+WRp+xrMwHjkFRY1qYvCWPTufZKHlUc/vsPe8cdn3joacAdzEH+zme+bPzvhYmy6B9EqKoCnGeWiWayYnVSpEm/IIlJ7gizTkDHlsi1F2XcCfyKTJ8qNv4uCEMOXiuTbsDWexfKZCT1CzNu6tqNTjwKptX7WQOhPpgeDIHNT8pGr+ep9J3fAPSjQKNm1Y1Qay6EwpSZsQ/oPssdC1ha4YYbI1V9kMhR8FqcUxZaNF+rHCY7fdwKU+FKyy3esA2fuHCUpo5XpFPr7xevApf2Ps5t26l8mDsQlSfO72DJ9gMZXxlUJN+vPKGx92KFuU9LUSbzAu5sq1aSuGPbr924L5AvsmZFRnn4xNVN6UlUnHLBVWFKkFjXyBqAbg6pZVa/vj0GCyqjqw/NmTy8UyEMt1ShhWqno33jHGud22g8cU1H5j/6Paqb8zT7OVtofBkaeHZqPWeQ+iYFiFviaPjeTZaHrN3hXJHnqU985ZVU4eY424Mjmf+7LyvBcuyvgdtkRhFVQ3Wogu7nd1gaJLmWJi1oPPqZpsnwRHzq8M46MmTtxl0R+CfttomT5HJCVec1ZxSrJ3tnHmiO6ty8PUPys2oLW1eVauwOaJn2urAP7u0V6AtZxtkZIsKYpWfTIuqVkzldplqB/82c+ZpgfYD6jJW3Y0taCuqUxds0XAsHG0gBinHysHX+tSweBis8MaThXbbz/sZLTlgv/Hi37kkyq28BP6jDka8EjFYXtpxw+berLp1m7o5ZynjO1eFcs5bsPdr0pIjrahGuBUdZ5zyhsfduudFl/eUkD9tZrff7tqKaqMW7dcOgX3BtdCJurnKU7Ujh6ov0Y1himc3zNL0mlCsnHzeI5pb476odhwcRZD9upukg2UyfDxqJcMaWc9m3zbGuR62gWRRKC/3nLh4DAnOf1h7pYXCmpkhT1EZm1ZKl0+RCh3TXo6Hy1vSEHXf2TwbLY+sAKedHRm+7k6Ih56y3ukc3ESg7MSbP8P7TIuyRcH54YWNEbawqP1AW3zEB1X1fVccHBzQxYsXtQv0G2ey/XhFzWfNeDtS/84ur9blQIjf3T0TYNwBYbBVNPN27kz19f6Td7aq8+6Pt7CW7RJixABnk27lNjkWVQB6Da9o+UyRYdWTlkgoqQAAcAKwld3e1cnMjNI2lFTQBrCoAgnaD/QjkFtwnoC8g34EFlUAAAAAAHAmgaIKAAAAAAASCRRVAAAAAACQSKCoAgAAAACARAJFFQAAAAAAJBIoqgAAAAAAIJFAUQUAAAAAAIkEiioAAAAAAEgkUFQBAAAAAEAigaIKAAAAAAASCRRV0DPqG1M0eLtMde3umMMyTQ0uU1U7k02VlgenqHyonSDxWHL6erk3MtstUubPphxV7w/S4H3Vm3szRtSpfHuQll9rp6BnYw/oHZZM8zhpt1knyHbWsiQ5jX7DY4Yoy2DfzFH9DxRVAMC5InVznRqPJiml3YlgaJLWG+s0OaTdZ5TjqvtEtikwyNJCo0ELY9rZK06834hF0ndKVHzWoEZjQZQKnARQVEHnyNUsryzV6vKFfuxi+ZurXm2F3HBWpip86Oo0MB5lVbFW13rVPrVR12GWRRpiBa7D8mpersi1W75nIC0/2s+Ml59PbZRl3Mpf51WmkaMSVWh2xA4DkotjlZH/XysRbc5SRrRrk7XHJ0OOf5icMKafIzMqXIgV0Amv0/Lkqp10ldwH+3mYsu+3Pkb5qfxoP5/1yuobTjjX4qSe1eSbiqAym33U7pN2uZQfP8vQ7CZR6ZqKn59a8TKheQ4Ye0Lq6+xg16Ml5xFtGxVO1XdZjcGO3GoZd99/KR9qdL3L+Fu1gR2P48eylpmpEC3lxHMdl5YhL3R4ni1ZlVf4nBPcHzhfzbLnEinP0f3frk++OG9mPcRtG7tunfSDyyNoqj9/Pu10TquvQFEFHSIEeGSWRuXKkq8JeseDiAN3gJEtKuxp/2ejQpkzO4RQ7t5O6LAN2l4sUc7f8Rl/PHsF2hrhTpuiyY9XKb+048X5eodKN1Zp5aZjVynRFq3o9ItycMm8ndPxrBLNzLudnwexHG3r/OzT6pucNWlWZt7RhPTTeeUOK1fz21SkPK1y/u5ifd1PSCuckAsSMrMv2jXY2uPJEPtHyQlPBrk3Ki72XxEhS9KnE+KnW72fo921fe0n5JMe+iY1lbfMzCht63f2r29RxpgkM08Lbr6ln9MXQ/ufDCpx+wZbNPn9a7uqP/Czj4m2lvSLgRh91OqTPGEa5XL92DInyn+DlFUryIraMs/m2CP6r1B8TAXibMGKhikf20TXdF1E1pMKR+74zuFsRYuWtog+Zj9lWazeF0rcZUdGGzTxdlbUdBjhbWDH4/ll7wrZXMsTLbJfkBW1dZ4Dx3Ef4f1BzDmPWsheqDzHwK1PnTexIHt3R+dhjWj2njM/+sop0tl12lTi1e26mAsj+3cL4owtJwEUVdAZWimcdif3LE3zIKKpv9yiyuKcN5iMTYsOXqIdd9AQyt2Up9hl74oBaXOLXvg6QVM8QjmcW6zQ1kvRzYbGqWDEWX1eovz1cWPwKNKco7SOTSiF0klzKE2jokO/e8+OKu0smfkRA9KdIlWevnA7c35t2t3mSV8S5XxTi9XRQb9jyFCknNTpxdMKFe94k1fq5pwI3Snx06290Y812bv+SVzn7Zm3VZm6skL7VznmkHzrvhjZ/zRm3wh+X98HYpTT6pNE42LS5olWIv3i0TrPZl2maVgoHru1M9qbmxbvYpzem6P0eyE5UfUUMr6XnhuKnRm2SUZFiKlVUdNhhLVBndJTQilyF/3KLxYx8tx6HI/uD60Jl+eWGPWZvaoW0E5ZUmkh/Zvv1O6Ev5yR8t1NeeKMLScDFFXQEfXaLtHltCv8jOxMmtpbZ4vG2TZQWybRNHdqjid/Ka1dCh5gKm+5y6Zo/LoYiL4jVoeHZXq4ZE7ubXBYo11ehfL2vZNf3hIGwCRSTmr0bjNPwxe0U9LGJBtFZLrKylN4mnH9zJ0ARUDehlKUGsuKSTss36ovRve/ZsLebx+RPzEhsjVIlYuP2MSj3TyfZQLH6SHR7mOpyHoKHd/fhCzQpYyOUtpUYtpYXHiodveOj8SZNxRt5zmQ6P6QBGQ59XElp8/nQnctuilPnLHlZICiCjoiaACQHUjDA17e2DJwrujD9P4OFTzBmAOsszp8vM7WgQl3tdwWckAtutui7oWPM4BJpJwEDf48Sejbbmghn/VDEhOK83ybRmcyvq3sqIkpLN+qL7bqf37C3m8f3t4cpHlnG5W3gLVPK9rN81kmSlGLqqfQ8d2nCLpIGd2lmmmlk8pru+hzmc+dYwFqqz0Obec5kOj+kARkOeXxB6fPq8vdfbDorjytx5aTAYoq6AzeSheruseu0FbpsXFGNXWlYJ/P4fNQYuLxhLxCs+velgyfhSndKNC4b1uB48kvGedipOU0T4UrTqfM0sRihUpiRWluO7UHx2GfV+IzgU2H5cE5J0pODOu+9qtvPDSsgEKVvUzGNqTdX6KJSFf0h/mRjM/S4Z+EdN6ueWfElaWS3SH51n2xdf+zCX5f37eDVHKMHRLe7lR3LWk3z2caPU7Pu/KhFgAsL5H1FDK+F6+GjbFqHLbG9PWoM6phKCXKHcsPX9BW3MVe23kOIro/dE43/d8Hl9M6V+21aTMtyiMXGMaRvNePPQt2rLHlZICiCjokSwvyELfaEhgc3KFh44wqn5tZl4fztb8+tO9ZVMVgdGlHhx1UH6EEWTAD47HPyajzPN0NJHxQf5u8owryw5VYFlU9QHP+pMISNWiAxKEnN95Gi9NmUXLCH2dtX/a25OapYFkB5Tls9ziMr7+0IDRd7h/a0qH8+OOHlaZzZJy3/bVdyunw6uMKdWZV+vEHFqafI/sx+p8Fvy8/nNTv3yMqRJ5RDUHEMyc/KNHxPJ+gbdnPDOVajj3mB5qadvN8puGPz2z54I9wpPUtsp5UOP4YyQwXtSOWvas+8lPvD9LOpagzqmHwuVKy5GeOz5nqj4WUcq3SaLbstZ/nICL7Qxd00/9tgssZbFFtVR4Rl/7QWMb1fNizYLN8xBhbToKPjgT6visODg7o4sWL2gX6jZNtP1bmHtJwTyYP3irK0Nb1/dCOCs4uyR53WM47mywBCALzLOhHupVbWFRB/yIP3GdolsyvWgEAAABwVoBFFUjQfqAfgdyC8wTkHfQjsKgCAAAAAIAzCRRVAAAAAACQSKCoAgAAAACARAJFFQAAAAAAJBIoqgAAAAAAIJFAUQUAAAAAAIkEiioAAAAAAEgkUFQBAAAAAEAigaIKAAAAAAASCRRVAAAAAACQSKCoAgAAAACARAJFFQBwrqhvTNHg/ap2tUc3YU+UwzJNDU5R+VA5q/cHjXxXaXlQuMW1/JrddSrfVu6pjbp840R4vUyDt8siddDPWH1Cyt2ykLBTwCfz4OwARRUAAM442bsNatzNyvv6xkMqLW5To9GghTHx4PVjmqVV2hfu9Zsp+Q4AfcfQJK031mlySLvBmQGKKgDgHFJzrYhBlkRpgdR+jrWIn2VmKkRLOfGcLTfKMqmskgK/RYcthq51ybNi8uWGkYT7cZpTG2XDP8xa5VlFZRwv9WONiqcurV9WGb4n8nitRLQ5SxkjbWklc9I0rJ7KelbWabUuW1j+ZTwB6ZpYbeArt+VnWLit9ES+/1mWIyCsUybZZk5cRttpy2BZ14PKn13OUMt6WJwyvHBvsFw0y9xxYbWlkZ+mtpF1YpbRrjc7HtsvDuHtGSY//vr6ZyV3Vr2rsLIudZu5vqHtIIjwC88nODWOesSnn36q70A/gvYD/UgncvuhfOtoYODW0ZMD/eDgydGtgYGjB1XlfPXJwNHAJ6+U4+jD0ZPpgaNb5Q/KxWFdP5+7+kDE673L8aj7V0cPjPhVek76UX46LwMPxFuG20jfwf9chbPjCSuDzPf0E1FShfQ33GbcTXXXTf596Vr4/YTbrFcv/3b7+NNryp906/z58qraT4fVMuHEy3DcttusB40/Tsut8mLVfZu0Le8yfaM+2K3Tt+tK1aNfZqy2CmlHS5786TmEtmeU/ATUly8fVrxm2vLeH6/pZ7SRGWdoPkE3dKtfwKIKADh/LM55W4RDk7SylqfSc7adVGlnKU+rU2qbnChFk3eKVHn6IvAsZepKgfJLO9LqUn1eouKiePdtTbjqVHtDNJpOEb3eodKNVZrmbXZGpDe3WKGtlyLGKD9Nfm2anNykL+WJ3tR8efHnmSg7tUrizQ6o04unFSremRQlV8i4dBklZt31JP/N1Gu7+k4ztqCPJbRuHzM9kXuadttWIPNboHGR//rLLaqYZRmbptUbJdpxLXpFmnOPQqj2NMnebd5mboqzqT7sdjp23r+jir6ViPys6yMgjFdXKRq/LtrGyLvZVvUL09RoLNjt2Aah7dlSfnz15Wsj7nP56+OurDqodthWR1uYoXFa2ZsQ6QW0kRFnuNyB0wSKKgAAMDwpH9ZoV0ztsyPG9h9vUYcxlKZREaJ2qBSo4akJKrJSd/iCtjaLNCEmSjn56S1uJ87ckgoe5RcbmedRSptKk8xXJ9To3SZR6ZqXn8GRWVvZMehJ/gNI3Vyn/etbXrzuVn2b7SPwLyYcxab21jkC4cSVoVlR9mCEQvxonwpPM+77QVv3HGf+Ulq7FKzUqcXLKSAUrcYzopxbxs62slNDXGPeFr08PtIGYe3ZvvwohdpcVBauNCuSze2QEmXIUlb0x6h2D5U7cKpAUQUAAOZyWkxmrOAVabvRkB8budcjz8Jok6UJtgCt79CutNSlafhGiR7eY6vNhLRApdJCZdQfL5kXW2qi/GLjKsvazUiFrhM4/3la3bPzY1rTTHqS/yAOhXoglAYnvu3LQpnhs4ltt49gaJwK0mJmKzasQObX9u14xOVa4XzURf1OPnLe26bRmUzT2dogpTRIeT056lS/IJRVXbb9tV3KdaB8qfOpOzThxtOmvT6kPTuRH3fhYVjH/UQtDiLbPUzuwKkCRRUAcP5Yemh9ODM/U6HiVVbFWPEsUc6YnKyPbwLIXi1SZalEJC11yuJT2XTiE4yxlTXn+0hEW+Si/GKjlOXZdSPP6+FW0Gg4/0Sz97zyKiUlxBLXk/z7qVP5XoYyvjpXyl777aPKlKfStZyl2LDCQzPzlhzwBzZ+5VPCMjKS8ZUrT8MX9K1GKVG2bD0MsfqdBNX7oh5HfG3HCzJ9GxepbLvHBNTxkPhEtGcn8qMXHrlrwdv+jGoHI16jbcPbPUruwGkCRRUAcCY4Ojqizz//nH70ox/R97//ffrw4QO9f/9eXnzPz9jvxz/9GdG9vLj09t7ILI0+8yxp/FNO2+RtDeaEy7HYORMgP3cnQZ5sxX/yPKpAvmMpMVlaaGwTudvpOSKRnrIaRfnFJ3t3n1bfeHneudTpGVWRf9/2Z+ZpgfZDLKpd5Z/rTW/72ooJb7Nra5bOQ+7NKq3oOKPaJwzVJmSdvZXnNfcKtOUcIxjZosJeiEWV39VWVKecu2srTWdUg+M8vZ9M4rqSVlRdV5mZUdo2zqjGhc8pk1v2eaI7fG45F3NBEtWenciPPk9rnSH2IdthlXadeM22DW33iHzKX/Dw/XIAODE+4i+q9H1XHBwc0MWLF7UL9BtoP9CPsNymUin67LPP6Mc//jF95Stfkdcv/uIv0i/8wi/Ii/n5z38ur//6r/+in/zkJ/L66le/St/4xjfkuwD0AxinQT/SrdzCogoA6Fv+4z/+g37wgx9IZfO3fuu36Fd/9Vfp61//unR/6Utfoo8++khefM/P2I/f4XfZzWH5LBoAAIBkAkUVANB3sGWUt/LZevqbv/mb0jLaLhyGw37xxRcyLo4TAABAsoCiCgDoK376059KSygrqb/zO7/jbu93Aof91re+JePiODluAAAAyQGKKgCgb2Cr5w9/+EMaGBiQHzv0Co6L4+S4YVkFAIDkAEUVANA38Ff7fM60k63+VnCcHDenAQAAIBlAUQUA9AX80RNv1ffSkuqH4+Y08IEVAAAkAyiqAIDEw9vx/BNU/MV+O/BPVr19+1a74sFpcFo4AgAAAKcPFFUAQOJhxZG35tv9cOru3bv0+7//+/IH/+PCaXBanCYAAIDTBYoqACDR8N8k+c///E/65je/qZ/E51//9V+t/+PCaXGaPfp7KAAAADoEiioAINHw9j3/OH+71tRu4LQ4TU4bAADA6QFFFQCQaPjPnX7ta1/TrpOD0+S0AQAAnB5QVAEAiYY/amLr5knDaeKDKgAAOF2gqAIAEs3PfvYz+vKXv6xdJ8eXvvQlmXYn1DemaPB2meraDQAAoDOgqAIAEs3Pf/7zWOdT379/T7dv36Z/+Id/0E+a4T+RurCwQH/1V3+ln4TDiiqn3Qmpm+vUeDRJKe0GAADQGVBUAQBnglqtRn/7t39Lf/iHf0j/+I//qJ96fPHFF1KR/Yu/+Av6+7//e/00nM8++zF91/lVq8MyTQ0uU5ktpYODtPy6Ssvi/6kNw2Yq32E/bVG9X9Ue2i385OWztIb7qTRcPyM+AAA4L0BRBQAkGramxrFsXrlyRVpK+QOoGzdu0MuXL+mjjz6Sfhx+amqK/u7v/o5GR0fpr//6r+XzKL72pZ/S/MT/FeqiQ4m2aEX+1aqFsSxNr+Wp8vSFq1jWX25RZXFb+OkHGlZEMzOjtC3Ccdj961uU0Uqn9HtaoH3tt3151vWr3s/R7tq+fC796CGVD6UXAACcG6CoAgASTTtb8H/0R39Ef/7nf06ff/65VFb39vbk8zt37tD3vvc9qaR+97vflRbKVnwhFOT/8z/+N+281g+oSHM3vc381M05Km5u0QupPNbpxdMKFa9mpZ+Hfv5sgRyf1JUV2r/K9lLtd8c7IpCdWqX80o70q73RDzXZu+s0OaQdAABwToCiCgBINPz1PZ8tjcutW7eksso/2O/8+dR/+qd/ot/7vd+jSqVCv/zLvyyfteIv//L/0f/6nnYEkqWJxQptvawTHb6grc0iTfisqUQ1ereZp+EL2skMpSg1lhWh2Y+odM3Y3h+ZpYp8KUWTj/ap8DTj+lnHDAAA4JwARRUAkGi+8pWvtP3D+9/+9rfp4cOH2kX0u7/7u1JJ5b/jH5c//uM/ln/Ryr+Vb5K9WpTb/1W57T/hWk090jR8o0Lv3munBfvlaXVPbe17l7K+1g9JKKvOs20ancnI868AAHCegKIKAEg0X/3qV6VFtd0/Z/onf/In9Gd/9mf0B3/wB/Js6re+9S3t0xpO6ycH36P/mUpFK4djE1TcnKXcTNC2P5Oi8et5Kl1bds+6qo+n2M1+RLP3vA+oXL/DMs2PZHxWVJ9lFgAAzgFQVAEAiYY/iOK/EvXZZ5/pJ/Hhr/z/5m/+pi1LKvOnf/qn9N/++1Mq7PGHU/phILz9L/67sUrTIe/xT1Xtr+1STm/hq4+nlNVU+vHHVX6/oUla11ZUtfXPH1atyDOqnqILAABnn4+O2jVThHBwcEAXL17ULtBvoP1AkuG/EPWDH/yAUqmU+yX/ccEfbtXrdfr1X//1U/mLWACEgXEa9CPdyi0sqgCAxMMK49e//nX64Q9/qJ8cH//2b/9G3/jGN6CkAgBAAoCiCgDoC3gLnK2d/HHRccFxcxqcFgAAgNMHiioAoG/4lV/5FfmzU52cV20Fx8lxcxoAAACSARRVAEDfwNvx/PX+v//7v/fUsspxcZwcN7b8AQAgOUBRBQD0Fb/0S79Ev/Zrvyb/VOq//Mu/0M9+9jPt0z5ffPGFPPfKcXGcHDcAAIDk0DNFlf/MIQ/6AABw3LDV8zd+4zekgslf6P/oRz+SvwwQF36XP5riH/T/8pe/LOOCJRUAAHoL64WsH3ZDzxRV/p1DPt8FAAAnxTe/+U2pZDLf//736cOHD1Jp5fOmrMTyh1F88T0/Y+WU3+F3+WeuOCw+nAIAgOOB9ULWD7uhZ4rqwMBAz8+NAQBAK9gSyh9A/fZv/7b7d/x5cHSUUr74np+xcsrv8LscBlZUAAA4Hpyz/6wfdkPPfvCfMTPFv3nIW2qgP8APSYN+BHILzhOQd9AP8HY/GwYcfbDbXaueKqoMf9jAmfv888+7+sgBAAAAAAD0F3wmlbf7WUnt9nwq03NFFQAAAAAAgF6An6cCAAAAAACJBIoqAAAAAABIJFBUAQAAAABAIoGiCgAAAAAAEgkUVQAAAAAAkECI/j/aSwBqa6qxHgAAAABJRU5ErkJggg==;" parent="1" vertex="1">
          <mxGeometry x="1020.37" y="920" width="1159.26" height="1264.64" as="geometry" />
        </mxCell>
        <mxCell id="A_hPwJBu-BMwf7_vtUkT-178" value="" style="shape=partialRectangle;html=1;whiteSpace=wrap;connectable=0;strokeColor=inherit;overflow=hidden;fillColor=none;top=0;left=0;bottom=0;right=0;pointerEvents=1;fontSize=16;" parent="1" vertex="1">
          <mxGeometry x="1100" y="2580" width="170" height="120" as="geometry">
            <mxRectangle width="170" height="120" as="alternateBounds" />
          </mxGeometry>
        </mxCell>
        <mxCell id="wmr8g2sEvl8wamCRfuZ8-4" value="&lt;font style=&quot;font-size: 18px;&quot;&gt;Database A&lt;/font&gt;" style="shape=datastore;whiteSpace=wrap;html=1;fillColor=#ffe6cc;strokeColor=#d79b00;" vertex="1" parent="1">
          <mxGeometry x="1353" y="780" width="180" height="100" as="geometry" />
        </mxCell>
        <mxCell id="wmr8g2sEvl8wamCRfuZ8-5" value="&amp;nbsp;Service A" style="whiteSpace=wrap;html=1;shadow=1;fontSize=18;fillColor=#fa6800;strokeColor=#C73500;fontColor=#000000;" vertex="1" parent="1">
          <mxGeometry x="1353" y="670" width="160" height="50" as="geometry" />
        </mxCell>
        <mxCell id="wmr8g2sEvl8wamCRfuZ8-6" value="Service B" style="whiteSpace=wrap;html=1;shadow=1;fontSize=18;fillColor=#fa6800;strokeColor=#C73500;fontColor=#000000;" vertex="1" parent="1">
          <mxGeometry x="1763" y="665" width="180" height="60" as="geometry" />
        </mxCell>
        <mxCell id="wmr8g2sEvl8wamCRfuZ8-7" value="&lt;font style=&quot;font-size: 18px;&quot;&gt;Database B&lt;/font&gt;" style="shape=datastore;whiteSpace=wrap;html=1;fillColor=#ffe6cc;strokeColor=#d79b00;" vertex="1" parent="1">
          <mxGeometry x="1763" y="780" width="180" height="100" as="geometry" />
        </mxCell>
        <mxCell id="wmr8g2sEvl8wamCRfuZ8-8" style="edgeStyle=orthogonalEdgeStyle;rounded=0;orthogonalLoop=1;jettySize=auto;html=1;exitX=0.15;exitY=0.05;exitDx=0;exitDy=0;exitPerimeter=0;entryX=0.174;entryY=1.01;entryDx=0;entryDy=0;entryPerimeter=0;" edge="1" parent="1" source="wmr8g2sEvl8wamCRfuZ8-7" target="wmr8g2sEvl8wamCRfuZ8-27">
          <mxGeometry relative="1" as="geometry" />
        </mxCell>
        <mxCell id="wmr8g2sEvl8wamCRfuZ8-9" style="edgeStyle=orthogonalEdgeStyle;rounded=0;orthogonalLoop=1;jettySize=auto;html=1;entryX=0.756;entryY=-0.011;entryDx=0;entryDy=0;entryPerimeter=0;" edge="1" parent="1" target="wmr8g2sEvl8wamCRfuZ8-7">
          <mxGeometry relative="1" as="geometry">
            <mxPoint x="1899" y="752" as="sourcePoint" />
          </mxGeometry>
        </mxCell>
        <mxCell id="wmr8g2sEvl8wamCRfuZ8-10" style="edgeStyle=orthogonalEdgeStyle;rounded=0;orthogonalLoop=1;jettySize=auto;html=1;entryX=0.673;entryY=0.023;entryDx=0;entryDy=0;entryPerimeter=0;" edge="1" parent="1" target="wmr8g2sEvl8wamCRfuZ8-4">
          <mxGeometry relative="1" as="geometry">
            <mxPoint x="1474" y="736" as="sourcePoint" />
          </mxGeometry>
        </mxCell>
        <mxCell id="wmr8g2sEvl8wamCRfuZ8-11" style="edgeStyle=orthogonalEdgeStyle;rounded=0;orthogonalLoop=1;jettySize=auto;html=1;exitX=0.15;exitY=0.05;exitDx=0;exitDy=0;exitPerimeter=0;" edge="1" parent="1" source="wmr8g2sEvl8wamCRfuZ8-4">
          <mxGeometry relative="1" as="geometry">
            <mxPoint x="1380" y="740" as="targetPoint" />
          </mxGeometry>
        </mxCell>
        <mxCell id="wmr8g2sEvl8wamCRfuZ8-13" style="edgeStyle=orthogonalEdgeStyle;rounded=0;orthogonalLoop=1;jettySize=auto;html=1;exitX=-0.006;exitY=0.332;exitDx=0;exitDy=0;entryX=1;entryY=0.25;entryDx=0;entryDy=0;exitPerimeter=0;" edge="1" parent="1" source="wmr8g2sEvl8wamCRfuZ8-24" target="wmr8g2sEvl8wamCRfuZ8-25">
          <mxGeometry relative="1" as="geometry" />
        </mxCell>
        <mxCell id="wmr8g2sEvl8wamCRfuZ8-14" value="API Gateway" style="whiteSpace=wrap;html=1;shadow=1;fontSize=18;fillColor=#a0522d;strokeColor=#6D1F00;fontColor=#ffffff;" vertex="1" parent="1">
          <mxGeometry x="1548" y="500" width="180" height="60" as="geometry" />
        </mxCell>
        <mxCell id="wmr8g2sEvl8wamCRfuZ8-15" value="" style="endArrow=classic;startArrow=classic;html=1;rounded=0;entryX=0.547;entryY=-0.004;entryDx=0;entryDy=0;exitX=0.171;exitY=1.017;exitDx=0;exitDy=0;exitPerimeter=0;entryPerimeter=0;" edge="1" parent="1" source="wmr8g2sEvl8wamCRfuZ8-24" target="wmr8g2sEvl8wamCRfuZ8-26">
          <mxGeometry width="50" height="50" relative="1" as="geometry">
            <mxPoint x="1473" y="620" as="sourcePoint" />
            <mxPoint x="1523" y="570" as="targetPoint" />
          </mxGeometry>
        </mxCell>
        <mxCell id="wmr8g2sEvl8wamCRfuZ8-16" value="" style="endArrow=classic;startArrow=classic;html=1;rounded=0;entryX=0.5;entryY=0;entryDx=0;entryDy=0;exitX=0.867;exitY=1.022;exitDx=0;exitDy=0;exitPerimeter=0;" edge="1" parent="1" source="wmr8g2sEvl8wamCRfuZ8-24" target="wmr8g2sEvl8wamCRfuZ8-6">
          <mxGeometry width="50" height="50" relative="1" as="geometry">
            <mxPoint x="1888" y="520" as="sourcePoint" />
            <mxPoint x="1728" y="680" as="targetPoint" />
          </mxGeometry>
        </mxCell>
        <mxCell id="wmr8g2sEvl8wamCRfuZ8-17" value="" style="endArrow=classic;startArrow=classic;html=1;rounded=0;entryX=0.196;entryY=1.001;entryDx=0;entryDy=0;exitX=0.778;exitY=0.01;exitDx=0;exitDy=0;entryPerimeter=0;exitPerimeter=0;" edge="1" parent="1" source="wmr8g2sEvl8wamCRfuZ8-24" target="wmr8g2sEvl8wamCRfuZ8-23">
          <mxGeometry width="50" height="50" relative="1" as="geometry">
            <mxPoint x="1663" y="415" as="sourcePoint" />
            <mxPoint x="1833" y="510" as="targetPoint" />
          </mxGeometry>
        </mxCell>
        <mxCell id="wmr8g2sEvl8wamCRfuZ8-18" value="" style="endArrow=classic;startArrow=classic;html=1;rounded=0;entryX=0.143;entryY=-0.004;entryDx=0;entryDy=0;exitX=0.714;exitY=1.005;exitDx=0;exitDy=0;entryPerimeter=0;exitPerimeter=0;" edge="1" parent="1" source="wmr8g2sEvl8wamCRfuZ8-22" target="wmr8g2sEvl8wamCRfuZ8-24">
          <mxGeometry width="50" height="50" relative="1" as="geometry">
            <mxPoint x="1473" y="520" as="sourcePoint" />
            <mxPoint x="1566" y="410" as="targetPoint" />
          </mxGeometry>
        </mxCell>
        <mxCell id="wmr8g2sEvl8wamCRfuZ8-19" style="edgeStyle=orthogonalEdgeStyle;rounded=0;orthogonalLoop=1;jettySize=auto;html=1;exitX=0.996;exitY=0.668;exitDx=0;exitDy=0;entryX=-0.007;entryY=0.611;entryDx=0;entryDy=0;exitPerimeter=0;entryPerimeter=0;" edge="1" parent="1" source="wmr8g2sEvl8wamCRfuZ8-25" target="wmr8g2sEvl8wamCRfuZ8-24">
          <mxGeometry relative="1" as="geometry" />
        </mxCell>
        <mxCell id="wmr8g2sEvl8wamCRfuZ8-22" value="" style="swimlane;startSize=0;" vertex="1" parent="1">
          <mxGeometry x="1253" y="300" width="270" height="130" as="geometry" />
        </mxCell>
        <mxCell id="wmr8g2sEvl8wamCRfuZ8-3" value="Mobile Interface" style="whiteSpace=wrap;html=1;shadow=1;fontSize=18;fillColor=#e51400;strokeColor=#B20000;fontColor=#ffffff;" vertex="1" parent="wmr8g2sEvl8wamCRfuZ8-22">
          <mxGeometry x="10" y="30" width="250" height="60" as="geometry" />
        </mxCell>
        <mxCell id="wmr8g2sEvl8wamCRfuZ8-23" value="" style="swimlane;startSize=0;" vertex="1" parent="1">
          <mxGeometry x="1727" y="300" width="270" height="130" as="geometry" />
        </mxCell>
        <mxCell id="wmr8g2sEvl8wamCRfuZ8-12" value="Web Interface" style="whiteSpace=wrap;html=1;shadow=1;fontSize=18;fillColor=#e3c800;strokeColor=#B09500;fontColor=#000000;" vertex="1" parent="wmr8g2sEvl8wamCRfuZ8-23">
          <mxGeometry x="10" y="35" width="250" height="60" as="geometry" />
        </mxCell>
        <mxCell id="wmr8g2sEvl8wamCRfuZ8-24" value="" style="swimlane;startSize=0;" vertex="1" parent="1">
          <mxGeometry x="1523" y="472.5" width="230" height="115" as="geometry">
            <mxRectangle x="1280" y="242.5" width="50" height="40" as="alternateBounds" />
          </mxGeometry>
        </mxCell>
        <mxCell id="wmr8g2sEvl8wamCRfuZ8-25" value="" style="swimlane;startSize=0;" vertex="1" parent="1">
          <mxGeometry x="1273" y="490" width="180" height="80" as="geometry" />
        </mxCell>
        <mxCell id="wmr8g2sEvl8wamCRfuZ8-20" value="Security Module" style="whiteSpace=wrap;html=1;shadow=1;fontSize=18;fillColor=#76608a;strokeColor=#432D57;fontColor=#ffffff;" vertex="1" parent="wmr8g2sEvl8wamCRfuZ8-25">
          <mxGeometry x="27.5" y="12.5" width="125" height="55" as="geometry" />
        </mxCell>
        <mxCell id="wmr8g2sEvl8wamCRfuZ8-26" value="" style="swimlane;startSize=0;" vertex="1" parent="1">
          <mxGeometry x="1343" y="655" width="180" height="80" as="geometry" />
        </mxCell>
        <mxCell id="wmr8g2sEvl8wamCRfuZ8-27" value="" style="swimlane;startSize=0;" vertex="1" parent="1">
          <mxGeometry x="1753" y="650" width="200" height="100" as="geometry" />
        </mxCell>
        <mxCell id="wmr8g2sEvl8wamCRfuZ8-32" value="&lt;span style=&quot;color: rgb(13, 13, 13); font-family: Söhne, ui-sans-serif, system-ui, -apple-system, &amp;quot;Segoe UI&amp;quot;, Roboto, Ubuntu, Cantarell, &amp;quot;Noto Sans&amp;quot;, sans-serif, &amp;quot;Helvetica Neue&amp;quot;, Arial, &amp;quot;Apple Color Emoji&amp;quot;, &amp;quot;Segoe UI Emoji&amp;quot;, &amp;quot;Segoe UI Symbol&amp;quot;, &amp;quot;Noto Color Emoji&amp;quot;; font-size: 23px; text-align: start; white-space-collapse: preserve; background-color: rgb(255, 255, 255);&quot;&gt;Monolithic architecture involves developing and deploying all components of a software application as a single package or unit. In monolithic architecture, the application runs on a single server, and all operations occur on this server.&lt;/span&gt;" style="text;html=1;align=center;verticalAlign=middle;whiteSpace=wrap;rounded=0;" vertex="1" parent="1">
          <mxGeometry x="60" y="110" width="670" height="90" as="geometry" />
        </mxCell>
        <mxCell id="wmr8g2sEvl8wamCRfuZ8-33" value="&lt;div style=&quot;font-size: 22px;&quot;&gt;&lt;font style=&quot;font-size: 22px;&quot;&gt;&lt;br&gt;&lt;/font&gt;&lt;/div&gt;&lt;div style=&quot;font-size: 22px;&quot;&gt;&lt;span style=&quot;color: rgb(13, 13, 13); font-family: Söhne, ui-sans-serif, system-ui, -apple-system, &amp;quot;Segoe UI&amp;quot;, Roboto, Ubuntu, Cantarell, &amp;quot;Noto Sans&amp;quot;, sans-serif, &amp;quot;Helvetica Neue&amp;quot;, Arial, &amp;quot;Apple Color Emoji&amp;quot;, &amp;quot;Segoe UI Emoji&amp;quot;, &amp;quot;Segoe UI Symbol&amp;quot;, &amp;quot;Noto Color Emoji&amp;quot;; text-align: start; white-space-collapse: preserve; background-color: rgb(255, 255, 255);&quot;&gt;&lt;font style=&quot;font-size: 22px;&quot;&gt;In this approach, the application still maintains a monolithic architecture, meaning all components are contained within a single package and originate from the same codebase. However, these components can run and be distributed across different servers or services. This approach allows large monolithic applications to be divided into smaller parts for better scalability and manageability, but the architecture still exhibits monolithic characteristics.&lt;/font&gt;&lt;/span&gt;&lt;br&gt;&lt;/div&gt;" style="text;html=1;align=center;verticalAlign=middle;whiteSpace=wrap;rounded=0;" vertex="1" parent="1">
          <mxGeometry x="75" y="910" width="820" height="160" as="geometry" />
        </mxCell>
        <mxCell id="wmr8g2sEvl8wamCRfuZ8-34" value="&lt;div style=&quot;font-size: 20px;&quot;&gt;&lt;font style=&quot;font-size: 20px;&quot;&gt;&lt;br&gt;&lt;/font&gt;&lt;/div&gt;&lt;div style=&quot;font-size: 20px;&quot;&gt;&lt;span style=&quot;color: rgb(13, 13, 13); font-family: Söhne, ui-sans-serif, system-ui, -apple-system, &amp;quot;Segoe UI&amp;quot;, Roboto, Ubuntu, Cantarell, &amp;quot;Noto Sans&amp;quot;, sans-serif, &amp;quot;Helvetica Neue&amp;quot;, Arial, &amp;quot;Apple Color Emoji&amp;quot;, &amp;quot;Segoe UI Emoji&amp;quot;, &amp;quot;Segoe UI Symbol&amp;quot;, &amp;quot;Noto Color Emoji&amp;quot;; text-align: start; white-space-collapse: preserve; background-color: rgb(255, 255, 255);&quot;&gt;&lt;font style=&quot;font-size: 20px;&quot;&gt;Microservices architecture is an architectural approach where a software application is divided into small, independent, and specialized services. Each service handles a specific functionality and typically has its own database. Microservices architecture reduces the complexity of an application, increases development speed, enhances scalability, and allows teams to work independently. However, managing and coordinating this architectural approach is often more complex and may require additional overhead.&lt;/font&gt;&lt;/span&gt;&lt;br&gt;&lt;/div&gt;" style="text;html=1;align=center;verticalAlign=middle;whiteSpace=wrap;rounded=0;" vertex="1" parent="1">
          <mxGeometry x="1273" y="70" width="740" height="190" as="geometry" />
        </mxCell>
      </root>
    </mxGraphModel>
  </diagram>
</mxfile>
